/* XPM */
static char *_674905001701[] = {
/* columns rows colors chars-per-pixel */
"60 60 168 2 ",
"   c #B45C23",
".  c #B55D24",
"X  c #B65E24",
"o  c #B65E25",
"O  c #B65F25",
"+  c #B65F26",
"@  c #B75F26",
"#  c #B76026",
"$  c #B86027",
"%  c #B86127",
"&  c #B96127",
"*  c #B86128",
"=  c #B96128",
"-  c #B96228",
";  c #B96229",
":  c #B96329",
">  c #BA6229",
",  c #BA6329",
"<  c #BB6329",
"1  c #BA632A",
"2  c #BB642A",
"3  c #BB642B",
"4  c #BB652B",
"5  c #BC652B",
"6  c #BC662B",
"7  c #BC652C",
"8  c #BC662C",
"9  c #BD662C",
"0  c #BD672C",
"q  c #BD662D",
"w  c #BD672D",
"e  c #BE672D",
"r  c #BE682D",
"t  c #BE682E",
"y  c #BE692E",
"u  c #BF692E",
"i  c #BF692F",
"p  c #C06A2F",
"a  c #C06A30",
"s  c #C06B30",
"d  c #C16B30",
"f  c #C16B31",
"g  c #C16C31",
"h  c #C26C31",
"j  c #C16C32",
"k  c #C26D32",
"l  c #C36D32",
"z  c #C36E33",
"x  c #C46E34",
"c  c #C46F34",
"v  c #C56F34",
"b  c #C57035",
"n  c #C57135",
"m  c #C67136",
"M  c #C67236",
"N  c #C77237",
"B  c #C77337",
"V  c #C87438",
"C  c #C87538",
"Z  c #C87439",
"A  c #C97539",
"S  c #C9753A",
"D  c #CA763A",
"F  c #CA763B",
"G  c #CA773B",
"H  c #CB773B",
"J  c #CB773C",
"K  c #CB783B",
"L  c #CB783C",
"P  c #CC783C",
"I  c #CC793C",
"U  c #CC793D",
"Y  c #CD7A3E",
"T  c #CE7A3E",
"R  c #CF7B3F",
"E  c #CF7C40",
"W  c #CF7D40",
"Q  c #D07D40",
"!  c #D07D41",
"~  c #D07E41",
"^  c #D07E42",
"/  c #D17F42",
"(  c #D27F43",
")  c #D28043",
"_  c #D38144",
"`  c #D48245",
"'  c #D48345",
"]  c #D48346",
"[  c #D68547",
"{  c #D68648",
"}  c #D78648",
"|  c #D88849",
" . c #D9884A",
".. c #D98A4B",
"X. c #DA8A4B",
"o. c #DA8A4C",
"O. c #DB8A4C",
"+. c #DB8C4D",
"@. c #DC8C4E",
"#. c #DC8D4E",
"$. c #DD8D4F",
"%. c #DD8E4F",
"&. c #DD8E50",
"*. c #DE8E50",
"=. c #DE8F50",
"-. c #DF8F51",
";. c #DE9050",
":. c #E09052",
">. c #E09152",
",. c #E09253",
"<. c #E19253",
"1. c #E19353",
"2. c #E19354",
"3. c #E29355",
"4. c #E29454",
"5. c #E39455",
"6. c #E39555",
"7. c #E49555",
"8. c #E49556",
"9. c #E49656",
"0. c #E59657",
"q. c #E59757",
"w. c #E59758",
"e. c #E69758",
"r. c #E69858",
"t. c #E69859",
"y. c #E79859",
"u. c #E7995A",
"i. c #E89A5A",
"p. c #E89A5B",
"a. c #E99A5B",
"s. c #E99B5B",
"d. c #E99B5C",
"f. c #E99C5C",
"g. c #EA9D5D",
"h. c #EB9E5D",
"j. c #EB9E5E",
"k. c #EC9E5E",
"l. c #EC9F5F",
"z. c #ECA05F",
"x. c #EDA05F",
"c. c #EDA060",
"v. c #EEA160",
"b. c #EEA161",
"n. c #EEA261",
"m. c #EFA262",
"M. c #EFA362",
"N. c #F0A362",
"B. c #F0A363",
"V. c #F0A463",
"C. c #F1A463",
"Z. c #F1A464",
"A. c #F1A564",
"S. c #F2A565",
"D. c #F2A665",
"F. c #F3A665",
"G. c #F3A766",
"H. c #F3A866",
"J. c #F3A867",
"K. c #F4A867",
"L. c #F4A967",
"P. c #F4A968",
"I. c #F5A968",
"U. c #F5AA68",
"Y. c #F6AA69",
"T. c #F6AB69",
"R. c #F6AB6A",
"E. c None",
/* pixels */
"E.E.E.E.E.E.E.E.E.E.E.E.E.E.E.E.E.E.E.E.E.E.E.E.E.E.E.E.E.E.E.E.E.E.E.E.E.E.E.E.E.E.E.E.E.E.E.E.E.E.E.E.E.E.E.E.E.E.E.E.",
"E.E.E.E.E.E.E.E.E.E.E.E.E.E.E.E.E.E.E.E.E.E.E.E.E.E.E.E.E.E.E.E.E.E.E.E.E.E.E.E.E.E.E.E.E.E.E.E.E.E.E.E.E.E.E.E.E.E.E.E.",
". $ 8 8 8 8 8 8 8 8 8 8 8 6 ; o , 8 8 8 8 8 8 8 8 8 8 8 5 @ @ 5 8 8 8 8 8 8 8 8 8 8 8 , o ; 6 8 8 8 8 8 8 8 8 8 8 8 $ . ",
"o v <.1.1.1.1.1.1.1.1.1.1.,.^ ; ) 1.1.1.1.1.1.1.1.1.1.1.>.t t >.1.1.1.1.1.1.1.1.1.1.1.) ; ^ ,.1.1.1.1.1.1.1.1.1.1.<.v o ",
"+ J G.G.G.G.G.G.G.G.G.G.G.F.+.4 %.G.G.G.G.G.G.G.G.G.G.G.A.k k A.G.G.G.G.G.G.G.G.G.G.G.%.4 +.F.G.G.G.G.G.G.G.G.G.G.G.J + ",
"+ H D.G.G.G.G.G.G.G.G.G.G.D.+.4 %.G.G.G.G.G.G.G.G.G.G.G.A.j j A.G.G.G.G.G.G.G.G.G.G.G.%.4 +.D.G.G.G.G.G.G.G.G.G.G.D.H + ",
"+ H D.G.G.G.G.G.G.G.G.G.G.D.+.4 %.G.G.G.G.G.G.G.G.G.G.G.A.j j A.G.G.G.G.G.G.G.G.G.G.G.%.4 +.D.G.G.G.G.G.G.G.G.G.G.D.H + ",
"+ P L.U.U.U.U.U.U.U.U.U.U.K.#.4 ;.I.U.U.U.U.U.U.U.U.U.U.G.k k G.U.U.U.U.U.U.U.U.U.U.I.;.4 #.K.U.U.U.U.U.U.U.U.U.U.L.P + ",
"o t E W W W W ! ! Q W W W E n # M E W W W Q ! Q W W W W R , , R W W W W Q ! Q W W W E M # n E W W W Q ! ! W W W W E t o ",
". @ 5 5 5 5 2 o . 1 7 5 5 5 9 e 9 5 5 5 7 >   # 5 5 5 5 5 w w 5 5 5 5 5 #   > 7 5 5 5 9 e 9 5 5 5 7 1 . o 2 5 5 5 5 @ . ",
"o m 0.q.q.e.<.m s $.e.q.q.q.q.q.q.q.q.q.r. .5 U 9.w.q.q.q.q.q.q.q.q.w.9.U 5  .r.q.q.q.q.q.q.q.q.q.e.$.s m <.e.q.q.0.m o ",
"+ L G.K.K.P.m.L c d.I.K.K.K.K.K.K.K.K.K.U.7.w _ G.K.K.K.K.K.K.K.K.K.K.G._ w 7.U.K.K.K.K.K.K.K.K.K.I.d.c L m.P.K.K.G.L + ",
"+ H D.G.G.H.b.H c p.K.G.G.G.G.G.G.G.G.G.K.5.w _ D.G.G.G.G.G.G.G.G.G.G.D._ w 5.K.G.G.G.G.G.G.G.G.G.K.p.c H b.H.G.G.D.H + ",
"+ H D.G.G.J.b.H c a.K.G.G.G.G.G.G.G.G.G.K.5.w _ D.G.G.G.G.G.G.G.G.G.G.D._ w 5.K.G.G.G.G.G.G.G.G.G.K.a.c H b.J.G.G.D.H + ",
"O F B.V.V.A.k.D z t.A.V.V.V.V.V.V.V.V.V.S.<.0 / M.Z.V.V.V.V.V.V.V.V.Z.M./ 0 <.S.V.V.V.V.V.V.V.V.V.A.t.z D k.A.V.V.B.F O ",
"o w P I I I D q < V I I I I I I I I I I I M % a L I I I I I I I I I I L a % M I I I I I I I I I I I V < q D I I I P w o ",
". % w e e e e w 0 w e e e w 2 @ 2 e e e e w 9 w e e e e w $ $ w e e e e w 9 w e e e e 2 @ 2 w e e e w 0 w e e e e w % . ",
"O C j.l.l.l.l.l.l.l.l.l.l.j.} 2  .j.l.l.l.l.l.l.l.l.l.l.g.d d g.l.l.l.l.l.l.l.l.l.l.j. .2 } j.l.l.l.l.l.l.l.l.l.l.j.C O ",
"+ H D.G.G.G.G.G.G.G.G.G.G.D.+.4 %.G.G.G.G.G.G.G.G.G.G.G.A.j j A.G.G.G.G.G.G.G.G.G.G.G.%.4 +.D.G.G.G.G.G.G.G.G.G.G.D.H + ",
"+ H D.G.G.G.G.G.G.G.G.G.G.D.+.4 %.G.G.G.G.G.G.G.G.G.G.G.A.j j A.G.G.G.G.G.G.G.G.G.G.G.%.4 +.D.G.G.G.G.G.G.G.G.G.G.D.H + ",
"+ J G.H.H.H.H.H.H.H.H.H.H.G.+.4 %.G.H.H.H.H.H.H.H.H.H.H.A.k k A.H.H.H.H.H.H.H.H.H.H.G.%.4 +.G.H.H.H.H.H.H.H.H.H.H.G.J + ",
"o A c.b.b.b.b.b.b.b.b.b.b.c.| 2 o.v.b.b.b.b.b.b.b.b.b.b.l.f f l.b.b.b.b.b.b.b.b.b.b.v.o.2 | c.b.b.b.b.b.b.b.b.b.b.c.A o ",
"X 9 H H H H H P P J H H H H k O z H H H H J P L H H H H F - - F H H H H L P J H H H H z O k H H H H J P P H H H H H 9 X ",
". , c c c c l - $ g c c c c b n b c c c c p o 3 x c c c c b b c c c c x 3 o p c c c c b n b c c c c g $ - l c c c c , . ",
"o B i.p.p.s.9.B h :.d.p.p.p.p.p.p.p.p.p.f.O.5 T u.s.p.p.p.p.p.p.p.p.s.u.T 5 O.f.p.p.p.p.p.p.p.p.p.d.:.h B 9.s.p.p.i.B o ",
"+ L G.K.K.L.m.J c d.I.K.K.K.K.K.K.K.K.K.I.6.w _ G.K.K.K.K.K.K.K.K.K.K.G._ w 6.I.K.K.K.K.K.K.K.K.K.I.d.c J m.L.K.K.G.L + ",
"+ H D.G.G.H.b.H c p.K.G.G.G.G.G.G.G.G.G.K.5.w _ D.G.G.G.G.G.G.G.G.G.G.D._ w 5.K.G.G.G.G.G.G.G.G.G.K.p.c H b.H.G.G.D.H + ",
"+ H D.G.G.H.b.H c p.K.G.G.G.G.G.G.G.G.G.K.5.w _ D.G.G.G.G.G.G.G.G.G.G.D._ w 5.K.G.G.G.G.G.G.G.G.G.K.p.c H b.H.G.G.D.H + ",
"O F V.A.A.A.l.F z y.D.A.A.A.A.A.A.A.A.A.D.<.0 ( B.A.A.A.A.A.A.A.A.A.A.B.( 0 <.D.A.A.A.A.A.A.A.A.A.D.y.z F l.A.A.A.V.F O ",
". > j j j k f 1 * p k j j j j g j j j j k y # 5 g j j j j g g j j j j g 5 # y k j j j j g j j j j k p * 1 f k j j j > . ",
". > j j j j j j g j j j j j w @ r j j j j j g j j j j j g % % g j j j j j g j j j j j r @ w j j j j j g j j j j j j > . ",
"O F V.A.A.A.A.A.A.A.A.A.A.V.X.2 @.C.A.A.A.A.A.A.A.A.A.A.m.g g m.A.A.A.A.A.A.A.A.A.A.C.@.2 X.V.A.A.A.A.A.A.A.A.A.A.V.F O ",
"+ H D.G.G.G.G.G.G.G.G.G.G.D.+.4 %.G.G.G.G.G.G.G.G.G.G.G.A.j j A.G.G.G.G.G.G.G.G.G.G.G.%.4 +.D.G.G.G.G.G.G.G.G.G.G.D.H + ",
"+ H D.G.G.G.G.G.G.G.G.G.G.D.+.4 %.G.G.G.G.G.G.G.G.G.G.G.A.j j A.G.G.G.G.G.G.G.G.G.G.G.%.4 +.D.G.G.G.G.G.G.G.G.G.G.D.H + ",
"+ L G.K.K.K.K.K.K.K.K.K.K.G.+.4 =.J.K.K.K.K.K.K.K.K.K.K.D.k k D.K.K.K.K.K.K.K.K.K.K.J.=.4 +.G.K.K.K.K.K.K.K.K.K.K.G.L + ",
"o B i.p.p.p.p.p.p.p.p.p.p.i.] 1 { p.p.p.p.p.p.p.p.p.p.p.y.p p y.p.p.p.p.p.p.p.p.p.p.p.{ 1 ] i.p.p.p.p.p.p.p.p.p.p.i.B o ",
". , c c c c c b b c c c c c e . t c c c c c n b c c c c z @ @ z c c c c b n c c c c c t . e c c c c c b b c c c c c , . ",
"X 9 H H H J A 7 - N L H H H L P L H H H L b @ u G H H H H P P H H H H G u @ b L H H H L P L H H H L N - 7 A J H H H 9 X ",
"o A c.b.b.n.d.S l 9.m.b.b.b.b.b.b.b.b.b.m.-.9 ~ x.b.b.b.b.b.b.b.b.b.b.x.~ 9 -.m.b.b.b.b.b.b.b.b.b.m.9.l S d.n.b.b.c.A o ",
"+ J G.H.H.K.n.J c s.L.H.H.H.H.H.H.H.H.H.I.5.w _ D.K.H.H.H.H.H.H.H.H.K.D._ w 5.I.H.H.H.H.H.H.H.H.H.L.s.c J n.K.H.H.G.J + ",
"+ H D.G.G.H.b.H c p.K.G.G.G.G.G.G.G.G.G.K.5.w _ D.G.G.G.G.G.G.G.G.G.G.D._ w 5.K.G.G.G.G.G.G.G.G.G.K.p.c H b.H.G.G.D.H + ",
"+ H D.G.G.J.b.H c a.K.G.G.G.G.G.G.G.G.G.K.5.w _ D.G.G.G.G.G.G.G.G.G.G.D._ w 5.K.G.G.G.G.G.G.G.G.G.K.a.c H b.J.G.G.D.H + ",
"O C j.l.l.l.u.V k 3.z.l.l.l.l.l.l.l.l.l.c.&.8 Q h.l.l.l.l.l.l.l.l.l.l.h.Q 8 &.c.l.l.l.l.l.l.l.l.l.z.3.k V u.l.l.l.j.C O ",
". % w e e e 0 = $ 8 e e e e w 9 w e e e r 5 @ > w e e e e 0 0 e e e e w > @ 5 r e e e w 9 w e e e e 8 $ = 0 e e e w % . ",
"o w P I I I I I I I I I I P z @ c I I I I I I I I I I I K : : K I I I I I I I I I I I c @ z P I I I I I I I I I I P w o ",
"O F B.V.V.V.V.V.V.V.V.V.V.N...2 +.V.V.V.V.V.V.V.V.V.V.V.n.g g n.V.V.V.V.V.V.V.V.V.V.V.+.2 ..N.V.V.V.V.V.V.V.V.V.V.B.F O ",
"+ H D.G.G.G.G.G.G.G.G.G.G.D.+.4 %.G.G.G.G.G.G.G.G.G.G.G.A.j j A.G.G.G.G.G.G.G.G.G.G.G.%.4 +.D.G.G.G.G.G.G.G.G.G.G.D.H + ",
"+ H D.G.G.G.G.G.G.G.G.G.G.D.+.4 %.G.G.G.G.G.G.G.G.G.G.G.A.j j A.G.G.G.G.G.G.G.G.G.G.G.%.4 +.D.G.G.G.G.G.G.G.G.G.G.D.H + ",
"+ L G.K.K.K.K.K.K.K.K.K.K.G.+.4 =.K.K.K.K.K.K.K.K.K.K.K.D.k k D.K.K.K.K.K.K.K.K.K.K.K.=.4 +.G.K.K.K.K.K.K.K.K.K.K.G.L + ",
"o m 0.q.q.q.q.q.q.q.q.q.q.0._ , ' 0.q.q.q.q.q.q.q.q.q.q.8.i i 8.q.q.q.q.q.q.q.q.q.q.0.' , _ 0.q.q.q.q.q.q.q.q.q.q.0.m o ",
". @ 5 5 5 5 7 w w 8 5 5 5 5 &   = 5 5 5 5 8 e 9 5 5 5 5 5 . . 5 5 5 5 5 9 e 8 5 5 5 5 =   & 5 5 5 5 8 w w 7 5 5 5 5 @ . ",
"o t E W W Q Y t 2 H ! W W W Q ! Q W W W ! Z % g E Q W W W ! ! W W W Q E g % Z ! W W W Q ! Q W W W ! H 2 t Y Q W W E t o ",
"+ P L.U.U.Y.B.P c g.T.U.U.U.U.U.U.U.U.U.R.9.r ` K.U.U.U.U.U.U.U.U.U.U.K.` r 9.R.U.U.U.U.U.U.U.U.U.T.g.c P B.Y.U.U.L.P + ",
"+ H D.G.G.H.b.H c p.K.G.G.G.G.G.G.G.G.G.K.5.w _ D.G.G.G.G.G.G.G.G.G.G.D._ w 5.K.G.G.G.G.G.G.G.G.G.K.p.c H b.H.G.G.D.H + ",
"+ H D.G.G.H.b.H c p.K.G.G.G.G.G.G.G.G.G.K.5.w _ D.G.G.G.G.G.G.G.G.G.G.D._ w 5.K.G.G.G.G.G.G.G.G.G.K.p.c H b.H.G.G.D.H + ",
"+ J G.G.G.K.b.H c s.K.G.G.G.G.G.G.G.G.G.I.5.w _ D.K.G.G.G.G.G.G.G.G.K.D._ w 5.I.G.G.G.G.G.G.G.G.G.K.s.c H b.K.G.G.G.J + ",
"o v <.1.1.2.*.b a X.4.1.1.1.1.1.1.1.1.1.4.[ 3 G ,.2.1.1.1.1.1.1.1.1.2.,.G 3 [ 4.1.1.1.1.1.1.1.1.1.4.X.a b *.2.1.1.<.v o ",
". $ 8 8 8 8 4 $ @ 2 8 8 8 8 8 8 8 8 8 8 8 1 o * 6 8 8 8 8 8 8 8 8 8 8 6 * o 1 8 8 8 8 8 8 8 8 8 8 8 2 @ $ 4 8 8 8 8 $ . ",
"E.E.E.E.E.E.E.E.E.E.E.E.E.E.E.E.E.E.E.E.E.E.E.E.E.E.E.E.E.E.E.E.E.E.E.E.E.E.E.E.E.E.E.E.E.E.E.E.E.E.E.E.E.E.E.E.E.E.E.E.",
"E.E.E.E.E.E.E.E.E.E.E.E.E.E.E.E.E.E.E.E.E.E.E.E.E.E.E.E.E.E.E.E.E.E.E.E.E.E.E.E.E.E.E.E.E.E.E.E.E.E.E.E.E.E.E.E.E.E.E.E."
};
