/* XPM */
static char *result[] = {
/* columns rows colors chars-per-pixel */
"60 60 34 1 ",
"  c black",
". c #003E00",
"X c #004100",
"o c #004200",
"O c #004400",
"+ c #004500",
"@ c #004600",
"# c #004800",
"$ c #004900",
"% c #004A00",
"& c #004C00",
"* c #24E724",
"= c #27EB27",
"- c #27ED25",
"; c #26EC26",
": c #26ED26",
"> c #27EC27",
", c #27ED27",
"< c #26EE26",
"1 c #27EE26",
"2 c #27EE27",
"3 c #27EF27",
"4 c #28ED27",
"5 c #29ED27",
"6 c #28ED28",
"7 c #29ED28",
"8 c #29ED29",
"9 c #2BED29",
"0 c #2BED2A",
"q c #2BED2B",
"w c #2CED2C",
"e c #2DED2C",
"r c #27F027",
"t c None",
/* pixels */
"tttttttttttttttttttttttttttttttttttttttttttttttttttttttttttt",
"tttttttttttttttttttttttttttttttttttttttttttttttttttttttttttt",
"tttttttttttttttttttttttttttttttttttttttttttttttttttttttttttt",
"tttttttttttttttttttttttttttttttttttttttttttttttttttttttttttt",
"tttt                                                    tttt",
"tttt                                                    tttt",
"tttt  w8888888888888888888888888888888888888888888888q  tttt",
"tttt  9,,,,,,,,,,,,,,,,,,,,,,,,,,,,,,,,,,,,,,,,,,,,,,7  tttt",
"tttt  @######%,,,,,,,6%##############################@  tttt",
"tttt  oooooooO,,,,,,,6OooooOoooooooooooooooooooooooooX  tttt",
"tttt  7--,OooO,,,,,,,6OO,--6+ooooooooooooo64#o,----,%X  tttt",
"tttt  6,,-oooO,,,,,,,6OO,,,6Oooooooooooooo76$o-4,,,4&X  tttt",
"tttt  6,,-oooO,,,,,,,6OO,,,6Oooooooooooooo#$4-&#7,,4&X  tttt",
"tttt  6,,-oooO,,,,,,,6OO,,,6OooooooooooooooO46$O7,,4&X  tttt",
"tttt  6,,-oooO,,,,,,,6OO,,,6Oooooooooooooowq&@77,,,4&X  tttt",
"tttt  6,,-oooO,,,,,,,6OO,,,6Oooooooooooooo76$o4,,,,4&X  tttt",
"tttt  6,,-oooO,,,,,,,6OO,,,6Oooooooooooooo+@44&@7,,4&X  tttt",
"tttt  6,,-oooO,,,,,,,6OO,,,6OooooooooooooooO,,$o6,,4&X  tttt",
"tttt  6,,-oooO,,,,,,,6OO,,,6Oooooooooooooo86&#44,,,4&X  tttt",
"tttt  6,,-oooO,,,,,,,6OO,,,6OooooooooooooO96$O46,,,4&X  tttt",
"tttt  6,,-oooO,,,,,,,6OO,,,6Oooooooooooooo@#64&#74,4&X  tttt",
"tttt  6,,-oooO,,,,,,,6OO,,,6OooooooooooooooO4,$O7,,4&X  tttt",
"tttt  6,,-oooO,,,,,,,6OO,,,6OooooooooooooO76%O4,,,,4&X  tttt",
"tttt  6,,-oooO,,,,,,,6OO,,,6Oooooooooooooo86%O46,,,4&X  tttt",
"tttt  6,,-oooO,,,,,,,6OO,,,6Oooooooooooooo+#87&@5,,4&X  tttt",
"tttt  6,,-oooO,,,,,,,6OO,,,6OoooooooooooooO+76$O7,,4&X  tttt",
"tttt  6,,-oooO,4,,,,,7OO,,,4Oooooooooooooo76&@4,,,,4&X  tttt",
"tttt  86,4oXXo7,,,4,,8oo6,67OXXXXXXXXXXXXo86#o46,6,6%X  tttt",
"tttt                                                    tttt",
"tttt                                                    tttt",
"tttttt                                                tttttt",
"tttttt                                                tttttt",
"tttttttt  e74<*::;1,77776,,,,,,,,,,,,,,,,,0777+...  tttttttt",
"tttttttt  7,<,,,,,,,,,,,,,,,,,,,,,,,,,,,,,,,,,#ooX  tttttttt",
"tttttttt  9,<,,,,,,,,,,,,,,,,,,,,,,,,,,,,,,,,4#ooX  tttttttt",
"tttttttt  8,<,,,,,,,,,,,,,,,,,,,,,,,,,,,,,,,,,#ooX  tttttttt",
"tttttttt  8,:<::<<<<:,,,,,,,,,,,,,,,,,,,,,,,,,#ooX  tttttttt",
"tttttttt  8,,,,,,,,<,,,,,,,,,,,,,,,,,,,,,,,,,,#ooX  tttttttt",
"tttttttt  8,,<,,,,,<2,,,,,,,,,,,,,,,,,,,,,,,,,#ooX  tttttttt",
"tttttttt  8,,<:<:,::2,,,,,,,,,,,,,,,,,,,,,,,,,#ooX  tttttttt",
"tttttttt  8,2,,,,,,2r,,,,,,,,,,,,,,,,,,,,,,,,,#ooX  tttttttt",
"tttttttt  8,,=,,,,,22,,,,,,,,,,,,,,,,,,,,,,,,,#ooX  tttttttt",
"tttttttt  8,1>,,,,,>2:,,,,,,,,,,,,,,,,,,,,,,,,#ooX  tttttttt",
"tttttttt  8,,>,,,,,,2,,,,,,,,,,,,,,,,,,,,,,,,,#ooX  tttttttt",
"tttttttt  8,,,,,,,,,,,,,,,,,,,,,,,,,,,,,,,2,,,#ooX  tttttttt",
"tttttttt  8,2,,,,,,,2,,,,,,,,,,,,,,,,,,,,,,,,,#ooX  tttttttt",
"tttttttt  8,1,,,,,,,,,,,,,,,,,,,,,,,,,,,,,,,,,#ooX  tttttttt",
"tttttttt  8,2,,,,,,,,,,,,,,,,,,,,,,,,,,,,,,,,,#ooX  tttttttt",
"tttttttt  8,:3,,,,,,,,,,,,,,,,,,,,,,,,,,,,,,,,#ooX  tttttttt",
"tttttttt  8,,,,,,,,,,,,,,,,,,,,,,,,,,,,,,,,,,,#ooX  tttttttt",
"tttttttt  8,,,,,,,,,,,,,,,,,,,,,,,,,,,,,,,,,,,#ooX  tttttttt",
"tttttttt  8,,,,,,,,,,,,,,,,,,,,,,,,,,,,,,,,,,,#ooX  tttttttt",
"tttttttt  8,,,,,,,,,,,,,,<,,,,,,,,,,,,,,,,,,,,#ooX  tttttttt",
"tttttttt  8,,,,,,,,,,,,,,,,,,,,,,,,,,,,,,,,,,,#ooX  tttttttt",
"tttttttt  8,,,,,,,,,,,,,,,,,,,,,,,,,,,,,,,,,,,#ooX  tttttttt",
"tttttttt  8,,,,,,,,,,,,,,,,,,,,,,,,,,,,,,,,,,,#ooX  tttttttt",
"tttttttt  8,,,,,,,,,,,,,,,,,,,,,,,,,,,,,,,,,,,#ooX  tttttttt",
"tttttttt  6,,,,,,,,,,,,,,,,,,,,,,,,,,,,,,,,,,,#ooX  tttttttt",
"tttttttt  ,,,,,,,,,,,,,,,,,,,,,,,,,,,,,,,,,,,,#ooX  tttttttt",
"tttttttt  ,,,,,,,,,,,,,,,,,,,,,,,,,,,,,,,,,,,9#ooX  tttttttt"
};
