/* XPM */
static char *result[] = {
/* columns rows colors chars-per-pixel */
"60 60 120 2 ",
"   c #CD4A00",
".  c #D35300",
"X  c #D35900",
"o  c #DC5D00",
"O  c #D66200",
"+  c #DA6400",
"@  c #DC6D00",
"#  c #DE7400",
"$  c #DF7A00",
"%  c #E46700",
"&  c #E46800",
"*  c #E77500",
"=  c #EC7200",
"-  c #E17C00",
";  c #EC7F01",
":  c #F17400",
">  c #F57F01",
",  c #E28200",
"<  c #EB8600",
"1  c #E58A02",
"2  c #EC8B02",
"3  c #F28302",
"4  c #FE8604",
"5  c #F48C04",
"6  c #FF8C05",
"7  c #FF8F0A",
"8  c #E69103",
"9  c #EA9403",
"0  c #EB9A04",
"q  c #FF9406",
"w  c #F59D05",
"e  c #FE9A07",
"r  c #FF940A",
"t  c #FF9B0A",
"y  c #FF9D12",
"u  c #ECA405",
"i  c #EFAB06",
"p  c #EDAC08",
"a  c #F6A205",
"s  c #F4AE07",
"d  c #FDAC05",
"f  c #F6A708",
"g  c #FFA40B",
"h  c #F1AE08",
"j  c #FFAC0C",
"k  c #F2B407",
"l  c #FFB306",
"z  c #F5BF07",
"x  c #FFBC07",
"c  c #F3B008",
"v  c #FFB40C",
"b  c #FEBC0C",
"n  c #FFA217",
"m  c #FFA61B",
"M  c #FFAA1D",
"N  c #FFBF10",
"B  c #FFB118",
"V  c #FFAB22",
"C  c #FFAF28",
"Z  c #FFB224",
"A  c #FFB822",
"S  c #FFB42E",
"D  c #FFB92E",
"F  c #FFBA33",
"G  c #FFBE3B",
"H  c #FFC30A",
"J  c #FFCC0B",
"K  c #FFD106",
"L  c #FFD40C",
"P  c #FFDB0E",
"I  c #FFC412",
"U  c #FFCC13",
"Y  c #FFD314",
"T  c #FFDC14",
"R  c #FFD318",
"E  c #FFDD1A",
"W  c #FFE20F",
"Q  c #FFE314",
"!  c #FFE41C",
"~  c #FFD523",
"^  c #FFDD26",
"/  c #FFC532",
"(  c #FFC13D",
")  c #FFDB33",
"_  c #FFDC3C",
"`  c #FFE121",
"'  c #FFE62C",
"]  c #FFE435",
"[  c #FFC743",
"{  c #FFC944",
"}  c #FFCB4B",
"|  c #FFCD52",
" . c #FFCE59",
".. c #FFD155",
"X. c #FFDC54",
"o. c #FFD45A",
"O. c #FFDD5E",
"+. c #FFE943",
"@. c #FFEA56",
"#. c #FFE65C",
"$. c #FFD361",
"%. c #FFDF61",
"&. c #FFDE6B",
"*. c #FFDC7D",
"=. c #FFE060",
"-. c #FFE06B",
";. c #FFE072",
":. c #FFE976",
">. c #FFE47D",
",. c #FFE483",
"<. c #FFEA82",
"1. c #FFE48C",
"2. c #FFEA8D",
"3. c #FFE697",
"4. c #FFEC97",
"5. c #FFE699",
"6. c #FFEB9D",
"7. c #FFEDA1",
"8. c #FFECA9",
"9. c None",
/* pixels */
"9.9.9.9.9.9.9.9.9.9.9.9.9.9.9.9.9.9.9.9.9.9.9.9.9.9.9.9.9.9.9.9.9.9.9.9.9.9.9.9.9.9.9.9.9.9.9.9.9.9.9.9.9.9.9.9.9.9.9.9.",
"9.9.9.9.9.9.9.9.9.9.9.9.9.9.9.9.9.9.9.9.9.9.9.9.9.9.9.9.9.9.9.9.9.9.9.9.9.9.9.9.9.9.9.9.9.9.9.9.9.9.9.9.9.9.9.9.9.9.9.9.",
"9.9.9.9.9.9.9.9.9.9.9.9.9.9.9.9.9.9.9.9.9.9.9.9.9.9.9.9.9.9.9.9.9.9.9.9.9.9.9.9.9.9.9.9.9.9.9.9.9.9.9.9.9.9.9.9.9.9.9.9.",
"9.9.9.9.9.9.9.9.9.9.9.9.9.9.9.9.9.9.9.9.9.9.9.9.9.9.9.9.9.9.9.9.9.9.9.9.9.9.9.9.9.9.9.9.9.9.9.9.9.9.9.9.9.9.9.9.9.9.9.9.",
"9.9.9.9.9.9.9.9.9.9.9.9.9.9.9.9.9.9.9.9.9.9.9.9.9.9.9.9.9.9.9.9.9.9.9.9.9.9.9.9.9.9.9.9.9.9.9.9.9.9.9.9.9.9.9.9.9.9.9.9.",
"9.9.9.9.9.9.9.9.9.9.9.9.9.9.9.9.9.9.9.9.9.9.9.9.9.9.9.9.9.9.9.9.9.9.9.9.9.9.9.9.9.9.9.9.9.9.9.9.9.9.9.9.9.9.9.9.9.9.9.9.",
"9.9.9.9.9.9.9.9.9.9.9.9.9.9.9.9.9.9.9.9.9.9.9.9.9.9.9.9.9.9.9.9.9.9.9.9.9.9.9.9.9.9.9.9.9.9.9.9.9.9.9.9.9.9.9.9.9.9.9.9.",
"9.9.9.9.9.9.9.9.9.9.9.9.9.9.9.9.9.9.9.9.9.9.9.9.9.9.9.9.9.9.9.9.9.9.9.9.9.9.9.9.9.9.9.9.9.9.9.9.9.9.9.9.9.9.9.9.9.9.9.9.",
"9.9.9.9.9.9.9.9.9.9.9.9.9.9.9.9.9.9.9.9.9.9.9.9.9.9.9.9.9.9.9.9.9.9.9.9.9.9.9.9.9.9.9.9.9.9.9.9.9.9.9.9.9.9.9.9.9.9.9.9.",
"9.9.9.9.9.9.9.9.9.9.9.9.9.9.9.9.9.9.9.9.9.9.9.9.9.9.9.9.9.9.9.9.9.9.9.9.9.9.9.9.9.9.9.9.9.9.9.9.9.9.9.9.9.9.9.9.9.9.9.9.",
"9.9.9.9.9.9.9.9.9.9.9.9.9.9.9.9.9.9.9.9.9.9.9.9.9.9.9.9.9.9.9.9.9.9.9.9.9.9.9.9.9.9.9.9.9.9.9.9.9.9.9.9.9.9.9.9.9.9.9.9.",
"9.9.9.9.9.9.9.9.9.9.9.9.9.9.9.9.9.9.9.9.9.9.9.9.,.6.7.5.1.1.1.1.5.6.7.<.9.9.9.9.9.9.9.9.9.9.9.9.9.9.9.9.9.9.9.9.9.9.9.9.",
"9.9.9.9.9.9.9.9.9.9.9.9.9.9.9.9.9.9.9.9.9.9.7.3.,.#._ ~ Y J L Y ^ _ O.>.4.7.9.9.9.9.9.9.9.9.9.9.9.9.9.9.9.9.9.9.9.9.9.9.",
"9.9.9.9.9.9.9.9.9.9.9.9.9.9.9.9.9.9.9.9.9.8.,.) L L J x l d d d x J L L ) >.8.9.9.9.9.9.9.9.9.9.9.9.9.9.9.9.9.9.9.9.9.9.",
"9.9.9.9.9.9.9.9.9.9.9.9.9.9.9.9.9.9.9.6.2.] P L l 2 @ . .     . . @ 2 l P P _ 2.7.9.9.9.9.9.9.9.9.9.9.9.9.9.9.9.9.9.9.9.",
"9.9.9.9.9.9.9.9.9.9.9.9.9.9.9.9.9.9.4.2.^ L J w + X o % = : : = % o X O w J P ^ <.6.9.9.9.9.9.9.9.9.9.9.9.9.9.9.9.9.9.9.",
"9.9.9.9.9.9.9.9.9.9.9.9.9.9.9.9.9.7.:.T P l @ + 3 6 6 q V } } Z 6 q 6 > O @ l Y T :.7.9.9.9.9.9.9.9.9.9.9.9.9.9.9.9.9.9.",
"9.9.9.9.9.9.9.9.9.9.9.9.9.9.9.9.9.<.^ P l # * 6 r 6 6 q F o.o.F 6 q q q 4 * # x P ^ <.9.9.9.9.9.9.9.9.9.9.9.9.9.9.9.9.9.",
"9.9.9.9.9.9.9.9.9.9.9.9.9.9.9.9.6.E P x # 3 e q q q q r F o.o.F q e r r e e 3 # x P E 6.9.9.9.9.9.9.9.9.9.9.9.9.9.9.9.9.",
"9.9.9.9.9.9.9.9.9.9.9.9.9.9.9.:.#.P J - 3 t q e q t D [ o.o.o...{ } } ( r e e 3 - L P #.<.9.9.9.9.9.9.9.9.9.9.9.9.9.9.9.",
"9.9.9.9.9.9.9.9.9.9.9.9.9.9.9.<.Q L d < j H e q y { o.o.o.o.o.o.o.o.o.} r e e e ; d P T <.9.9.9.9.9.9.9.9.9.9.9.9.9.9.9.",
"9.9.9.9.9.9.9.9.9.9.9.9.9.9.9.] L J 2 r d H r r } o.o.............o.o.} q e q e e 2 J P ] 9.9.9.9.9.9.9.9.9.9.9.9.9.9.9.",
"9.9.9.9.9.9.9.9.9.9.9.9.9.9.9.` P d 5 e q q q e o.o.o.G M V V V C V Z m e e e q e 5 d P ` 9.9.9.9.9.9.9.9.9.9.9.9.9.9.9.",
"9.9.9.9.9.9.9.9.9.9.9.9.9.9.@.P P a e l J d q n o.o.| 7 4 4 4 4 6 6 q q r q r q r t w P T @.9.9.9.9.9.9.9.9.9.9.9.9.9.9.",
"9.9.9.9.9.9.9.9.9.9.9.9.9.9.+.W P e t x J H q t o.o.o.n r 7 7 r r 6 r q q q q e r t e P P +.9.9.9.9.9.9.9.9.9.9.9.9.9.9.",
"9.9.9.9.9.9.9.9.9.9.9.9.9.9.' P P g e e d e q q | o.o.o.| } | | } F r r q q q e q e g L P ' 9.9.9.9.9.9.9.9.9.9.9.9.9.9.",
"9.9.9.9.9.9.9.9.9.9.9.9.9.9.! P P g e q q q q q V } o.o.o.o.o.o.o.o.{ m q e q q e t g P P ! 9.9.9.9.9.9.9.9.9.9.9.9.9.9.",
"9.9.9.9.9.9.9.9.9.9.9.9.9.9.Q P P g e q q q q q q m | o.| ..o...o.o.o.} e q q r q e j P P Q 9.9.9.9.9.9.9.9.9.9.9.9.9.9.",
"9.9.9.9.9.9.9.9.9.9.9.9.9.9.Q P P B e q q q q q q 6 7 r y r r y M o.o.o.n e q q q e B P P W 9.9.9.9.9.9.9.9.9.9.9.9.9.9.",
"9.9.9.9.9.9.9.9.9.9.9.9.9.9.P P L Z e q q q q q q q 6 7 4 4 4 4 r ..o.o.n q q r e e Z P P T 9.9.9.9.9.9.9.9.9.9.9.9.9.9.",
"9.9.9.9.9.9.9.9.9.9.9.9.9.9.J P P / t q q q q q r t r r r 7 7 r m o.o.o.t q 6 6 q e / P P Y 9.9.9.9.9.9.9.9.9.9.9.9.9.9.",
"9.9.9.9.9.9.9.9.9.9.9.9.9.9.z P P X.M q q q q q ( | | } } } } | ..o.o...q 6 . + q M X.P T R 9.9.9.9.9.9.9.9.9.9.9.9.9.9.",
"9.9.9.9.9.9.9.9.9.9.9.9.9.9.c T P _ [ r q q q q } o.o.o.o.o.o...o.o...m q 4 . o q [ _ P L I 9.9.9.9.9.9.9.9.9.9.9.9.9.9.",
"9.9.9.9.9.9.9.9.9.9.9.9.9.9.k H P P O.t q 6 6 q [ ..o...o.o.o.o.} ( y q 4 4 6 6 t O.P P U I 9.9.9.9.9.9.9.9.9.9.9.9.9.9.",
"9.9.9.9.9.9.9.9.9.9.9.9.9.9.k c L L )  .r 6 q q y n n n ( o.o.G y 6 6 q . % q r  .) P L H U 9.9.9.9.9.9.9.9.9.9.9.9.9.9.",
"9.9.9.9.9.9.9.9.9.9.9.9.9.9.9.u j P L %.o.7 6 6 6 6 6 4 S ..o.S 6 6 6 6 > 4 r $.%.L L j I Y 9.9.9.9.9.9.9.9.9.9.9.9.9.9.",
"9.9.9.9.9.9.9.9.9.9.9.9.9.9.9.i j J P Y &. .r 6 6 6 6 4 C | | C 6 6 6 q 6 q | &.Y L J f I 9.9.9.9.9.9.9.9.9.9.9.9.9.9.9.",
"9.9.9.9.9.9.9.9.9.9.9.9.9.9.9.k v v J L R &.*.V 6 6 6 4 6 r r 7 6 6 6 6 B *.&.Y P b 1 f U 9.9.9.9.9.9.9.9.9.9.9.9.9.9.9.",
"9.9.9.9.9.9.9.9.9.9.9.9.9.9.9.9.b N v H L Y O.,.| S r q 7 6 6 q q r S  .1.O.Y L H 2 1 c E 9.9.9.9.9.9.9.9.9.9.9.9.9.9.9.",
"9.9.9.9.9.9.9.9.9.9.9.9.9.9.9.9.Y I j , l L J ~ ,.5.1.$.G V V G o.3.5.,.~ L L H j 9 0 b 9.9.9.9.9.9.9.9.9.9.9.9.9.9.9.9.",
"9.9.9.9.9.9.9.9.9.9.9.9.9.9.9.9.9.Y v 1 , v J L L Y _ O.>.,.,.>.O._ R L J H 2 j B 0 u 9.9.9.9.9.9.9.9.9.9.9.9.9.9.9.9.9.",
"9.9.9.9.9.9.9.9.9.9.9.9.9.9.9.9.9.Q I 9 1 j g b H L J J K K J L J J L H a - - j v s H 9.9.9.9.9.9.9.9.9.9.9.9.9.9.9.9.9.",
"9.9.9.9.9.9.9.9.9.9.9.9.9.9.9.9.9.9.9.p 9 v j g # + 2 l x x d d w d g g $ $ 1 v I H 9.9.9.9.9.9.9.9.9.9.9.9.9.9.9.9.9.9.",
"9.9.9.9.9.9.9.9.9.9.9.9.9.9.9.9.9.9.9.J c N v B $ $ @ t t e + O @ g j j , 1 0 I E 9.9.9.9.9.9.9.9.9.9.9.9.9.9.9.9.9.9.9.",
"9.9.9.9.9.9.9.9.9.9.9.9.9.9.9.9.9.9.9.9.9.Y I b 1 $ $ g g e @ + - j j v 1 0 i E 9.9.9.9.9.9.9.9.9.9.9.9.9.9.9.9.9.9.9.9.",
"9.9.9.9.9.9.9.9.9.9.9.9.9.9.9.9.9.9.9.9.9.9.Y I 8 1 , g j g - # - j v v u p 9.9.9.9.9.9.9.9.9.9.9.9.9.9.9.9.9.9.9.9.9.9.",
"9.9.9.9.9.9.9.9.9.9.9.9.9.9.9.9.9.9.9.9.9.9.9.9.9.9 1 f j g , - 1 v N N 9.9.9.9.9.9.9.9.9.9.9.9.9.9.9.9.9.9.9.9.9.9.9.9.",
"9.9.9.9.9.9.9.9.9.9.9.9.9.9.9.9.9.9.9.9.9.9.9.9.9.9.9.9.9.9.9.9.9.9.9.9.9.9.9.9.9.9.9.9.9.9.9.9.9.9.9.9.9.9.9.9.9.9.9.9.",
"9.9.9.9.9.9.9.9.9.9.9.9.9.9.9.9.9.9.9.9.9.9.9.9.9.9.9.9.9.9.9.9.9.9.9.9.9.9.9.9.9.9.9.9.9.9.9.9.9.9.9.9.9.9.9.9.9.9.9.9.",
"9.9.9.9.9.9.9.9.9.9.9.9.9.9.9.9.9.9.9.9.9.9.9.9.9.9.9.9.9.9.9.9.9.9.9.9.9.9.9.9.9.9.9.9.9.9.9.9.9.9.9.9.9.9.9.9.9.9.9.9.",
"9.9.9.9.9.9.9.9.9.9.9.9.9.9.9.9.9.9.9.9.9.9.9.9.9.9.9.9.9.9.9.9.9.9.9.9.9.9.9.9.9.9.9.9.9.9.9.9.9.9.9.9.9.9.9.9.9.9.9.9.",
"9.9.9.9.9.9.9.9.9.9.9.9.9.9.9.9.9.9.9.9.9.9.9.9.9.9.9.9.9.9.9.9.9.9.9.9.9.9.9.9.9.9.9.9.9.9.9.9.9.9.9.9.9.9.9.9.9.9.9.9.",
"9.9.9.9.9.9.9.9.9.9.9.9.9.9.9.9.9.9.9.9.9.9.9.9.9.9.9.9.9.9.9.9.9.9.9.9.9.9.9.9.9.9.9.9.9.9.9.9.9.9.9.9.9.9.9.9.9.9.9.9.",
"9.9.9.9.9.9.9.9.9.9.9.9.9.9.9.9.9.9.9.9.9.9.9.9.9.9.9.9.9.9.9.9.9.9.9.9.9.9.9.9.9.9.9.9.9.9.9.9.9.9.9.9.9.9.9.9.9.9.9.9.",
"9.9.9.9.9.9.9.9.9.9.9.9.9.9.9.9.9.9.9.9.9.9.9.9.9.9.9.9.9.9.9.9.9.9.9.9.9.9.9.9.9.9.9.9.9.9.9.9.9.9.9.9.9.9.9.9.9.9.9.9.",
"9.9.9.9.9.9.9.9.9.9.9.9.9.9.9.9.9.9.9.9.9.9.9.9.9.9.9.9.9.9.9.9.9.9.9.9.9.9.9.9.9.9.9.9.9.9.9.9.9.9.9.9.9.9.9.9.9.9.9.9.",
"9.9.9.9.9.9.9.9.9.9.9.9.9.9.9.9.9.9.9.9.9.9.9.9.9.9.9.9.9.9.9.9.9.9.9.9.9.9.9.9.9.9.9.9.9.9.9.9.9.9.9.9.9.9.9.9.9.9.9.9.",
"9.9.9.9.9.9.9.9.9.9.9.9.9.9.9.9.9.9.9.9.9.9.9.9.9.9.9.9.9.9.9.9.9.9.9.9.9.9.9.9.9.9.9.9.9.9.9.9.9.9.9.9.9.9.9.9.9.9.9.9.",
"9.9.9.9.9.9.9.9.9.9.9.9.9.9.9.9.9.9.9.9.9.9.9.9.9.9.9.9.9.9.9.9.9.9.9.9.9.9.9.9.9.9.9.9.9.9.9.9.9.9.9.9.9.9.9.9.9.9.9.9.",
"9.9.9.9.9.9.9.9.9.9.9.9.9.9.9.9.9.9.9.9.9.9.9.9.9.9.9.9.9.9.9.9.9.9.9.9.9.9.9.9.9.9.9.9.9.9.9.9.9.9.9.9.9.9.9.9.9.9.9.9."
};
