/* XPM */
static char *_0bb843260e34641ba5cfa4787aa6269LSwKxbz0Bh3ycsRV[] = {
/* columns rows colors chars-per-pixel */
"60 60 208 2 ",
"   c None",
".  c #030303",
"X  c #0C0C0D",
"o  c #0E0F11",
"O  c #141414",
"+  c #191615",
"@  c #1C1C1C",
"#  c #181718",
"$  c #24130B",
"%  c #2A160D",
"&  c #2D180D",
"*  c #331A0F",
"=  c #35160D",
"-  c #2B1B14",
";  c #231D1B",
":  c #271B16",
">  c #351D11",
",  c #3A1E11",
"<  c #2D221C",
"1  c #3D2113",
"2  c #33241D",
"3  c #3B261B",
"4  c #3B281F",
"5  c #1F2121",
"6  c #242323",
"7  c #2A2A2B",
"8  c #272829",
"9  c #372822",
"0  c #2E2E30",
"q  c #333333",
"w  c #3C3C3C",
"e  c #3C332F",
"r  c #420F0F",
"t  c #550E14",
"y  c #442414",
"u  c #492715",
"i  c #4C2916",
"p  c #432B1D",
"a  c #4E2A19",
"s  c #542D19",
"d  c #592F1B",
"f  c #5F2218",
"g  c #5D321C",
"h  c #53311F",
"j  c #66251A",
"k  c #63351E",
"l  c #69361E",
"z  c #6A381F",
"x  c #65381F",
"c  c #482F22",
"v  c #4E3524",
"b  c #543221",
"n  c #5C3723",
"m  c #563C2A",
"M  c #663720",
"N  c #683720",
"B  c #653923",
"V  c #6D3A21",
"C  c #6C3F29",
"Z  c #733D22",
"A  c #793E23",
"S  c #793623",
"D  c #602D31",
"F  c #5E4431",
"G  c #6E422E",
"H  c #764125",
"J  c #7C4225",
"K  c #76432A",
"L  c #7B452A",
"P  c #7D482D",
"I  c #6B4636",
"U  c #6F4B3A",
"Y  c #654839",
"T  c #7A4A33",
"R  c #734A38",
"E  c #7C503B",
"W  c #474848",
"Q  c #555657",
"!  c #644549",
"~  c #724D40",
"^  c #63524B",
"/  c #6F5348",
"(  c #74584B",
")  c #6B5A5C",
"_  c #7A6359",
"`  c #5F6061",
"'  c #676667",
"]  c #7B6B64",
"[  c #737374",
"{  c #7B7B7B",
"}  c #797674",
"|  c #7B736E",
" . c #824527",
".. c #844628",
"X. c #854929",
"o. c #8B4B2A",
"O. c #924E2C",
"+. c #964B2E",
"@. c #8C502E",
"#. c #97502E",
"$. c #95502D",
"%. c #95512E",
"&. c #98512E",
"*. c #9A512E",
"=. c #9B522F",
"-. c #99522E",
";. c #9C532F",
":. c #9E542F",
">. c #9D542F",
",. c #9B532F",
"<. c #844C32",
"1. c #924F30",
"2. c #85543C",
"3. c #8B5339",
"4. c #955332",
"5. c #9C5330",
"6. c #9F5530",
"7. c #9D5531",
"8. c #9C5531",
"9. c #9C5933",
"0. c #965638",
"q. c #955C3D",
"w. c #9B5B3B",
"e. c #A15631",
"r. c #A35B34",
"t. c #A45E39",
"y. c #A76036",
"u. c #855944",
"i. c #855A49",
"p. c #885943",
"a. c #955C44",
"s. c #9B6043",
"d. c #92624C",
"f. c #906047",
"g. c #90714C",
"h. c #886758",
"j. c #946855",
"k. c #946554",
"l. c #9D7C53",
"z. c #A26547",
"x. c #A77257",
"c. c #846C61",
"v. c #867268",
"b. c #977567",
"n. c #877D78",
"m. c #937C72",
"M. c #9B6C62",
"N. c #8A807C",
"B. c #A88779",
"V. c #A7806E",
"C. c #7F8285",
"Z. c #828485",
"A. c #8D8C8C",
"S. c #888988",
"D. c #918A87",
"F. c #9D928F",
"G. c #8C9294",
"H. c #949494",
"J. c #9C9C9C",
"K. c #989B9B",
"L. c #888E90",
"P. c #A18A89",
"I. c #A8958C",
"U. c #A99C96",
"Y. c #AE9591",
"T. c #A1A09F",
"R. c #B4A39B",
"E. c #9AA1A4",
"W. c #A4A4A4",
"Q. c #A5A9AB",
"!. c #ACADAE",
"~. c #A2A7AA",
"^. c #B6ACA7",
"/. c #B9B1AD",
"(. c #AAAEB1",
"). c #ADB0B2",
"_. c #B3B4B5",
"`. c #B9B6B5",
"'. c #B4B9BB",
"]. c #BBBCBD",
"[. c #B7B6B6",
"{. c #C6BCB9",
"}. c #C8C0BB",
"|. c #BDBFC1",
" X c #BCC2C4",
".X c #C4C4C4",
"XX c #C5CACD",
"oX c #CCCCCC",
"OX c #CBC9C7",
"+X c #D3D0CF",
"@X c #CECFD1",
"#X c #C9D1D4",
"$X c #D4D4D4",
"%X c #D3DADC",
"&X c #DADADA",
"*X c #DBD9D7",
"=X c #D1C7C2",
"-X c #D6DEE2",
";X c #DDE2E4",
":X c #E3E4E4",
">X c #E6E9EB",
",X c #ECECED",
"<X c #E0E5E8",
"1X c #ECEEF0",
"2X c #EFF1F1",
"3X c #F4F5F5",
"4X c #F7F8F8",
"5X c #FBFBFB",
/* pixels */
"                                                      x.s.0.4.4.4.q.l.                                                  ",
"                                                x.9.5.5.7.5.*.O.O.O.o.o.o.f.                                            ",
"                          q 8 7 q           z.7.6.6.5.5.*.#.#.#.O.O.o.o.o.X...p.                                        ",
"                        7 7 7 7 8 q       t.e.6.:.:.6.*.*.*.#.#.O.O.O.o.X.X.....<.                                      ",
"                      8 @ @ @ 6 7 6 w   7.7.6.6.:.:.:.5.*.*.*.#.O.O.O.o.o.X.X.J ..P       6 < @ 5 7                     ",
"                      @ o X X O 6 6 6 K :.7.6.6.7.:.:.5.,.*.#.#.O.O.O.o.X.o..... .J K c 6 @ 5 5 @ 5 6                   ",
"                    @ X O       7 6 6 9 %.e.7.6.:.:.7.:.*.*.#.#.O.O.o.O.o.X...J J A a 5 @ @ # O @ # # 6                 ",
"                    O @           e 6 < B 7.e.7.7.:.,.*.,.#.#.%.O.O.O.o.o.X.X.J A c 5 @ # # O O O o O O 6               ",
"                                p.C 9 6 9 1.6.6.:.:.7.*.*.*.#.O.O.o.O.o.o.o...J b 6 @ # + 9     w O X X @               ",
"                                5.O.B ; ; B 6.6.7.:.*.5.*.#.#.O.O.O.o.o.o.....n 6 @ O 3 V Z E         O X               ",
"                              4.*.:.O.3 # p 5.5.*.7.*.*.*.#.#.O.o.O.o.o. .X.Z < # + a Z Z Z P           @               ",
"                            s.#.*.*.5.o.; ; Z e.7.*.*.:.*.#.#.O.O.o.o... .J 4 O + 1 s d k Z Z K                         ",
"                            4.#.*.*.*.O.h O n 6.:.7.*.*.#.#.O.o.o.o.o.....a O O 1 u a d d k l K                         ",
"                          4.#.*.*.5.*.*.L + - P :.*.,.*.*.#.%.o.o.o...J n @ O > y u i a d k k l u.                      ",
"                          4.$.#.*.*.#.4.3.F O C *.*.#.#.*.#.o.X.o...J V 2 O % y y u s s d g k k Z                       ",
"                        s.$.*.*.*.5.4.B.$X).q - L #.O.O.*.%...J ....A p O : 3 y u k V N l k k k N j.                    ",
"                        O.#.*.O.*.O.Y.>X5X5XH.# p o.o.o.=.+.Z Z J Z c + 7 Q Q m C V V V V V l k N K                     ",
"                      a.#.*.*.*.O.B.:X5X5X5X5X' @ c ....*.o.M Z Z 3 O 7 [ H.(.K.~ Z V Z Z z V V l V                     ",
"                      %.*.*.*.*.s.}.4X5X5X5X5X3XG.6 - N o.J y 2 ; 5 W U.@X@XOX].D.C V V V Z V V N V P                   ",
"                    0.O.5.*.*.*.V.2X5X5X5X5X5X5X:Xm.n s Z d : : Q '.@X&X*X$X@X.X(.c.N V V V V Z V N H                   ",
"                    4.*.5.*.*.w.}.4X5X5X5X5X2X,X3XR.O.J d a ..i._.%X&X:X&X%X@XOX'.D.C N V Z Z z V l Z 2.                ",
"                  %.#.*.*.5.*.k.<X5X5X5X5XoXW 6 ].`.1.O.+.O.o.h.XX[.!.$X&X*X+XoX|.T.( l Z N z Z V V V L                 ",
"                  4.#.,.5.5.6.I.2X5X5X5X3XH.W.W.` /.4.O.O.o.<.I.{ w q ' &X*X$XoX|.(._ l V V V z Z V l T                 ",
"                0.#.*.7.:.6.4..X3X5X5X5XoXq !.S.8 ^.O.O.O.o.u.H.W A.Q.w @X$X$XoX|.`.v.V V S Z Z V z V V K               ",
"              0.#.5.*.:.:.*.0.$X3X5X5X5XXXO q 0 5 ^.O.#.o.X.p.Z.# [ { 7 !.%X$XoX.X_.N.G Z z Z Z Z z V V K               ",
"              9.*.*.7.:.7.*.a.*X4X5X5X5X.Xo 7 6 0 I.O.%.o...i.Z.o 8 8 # K.*X$X@X.X[.D.I V Z Z Z Z z V V Z               ",
"            z.*.*.:.:.:.:.*.j.:X4X4X5X5XOXX 6 O [ m.5.O.o. .i.C.X 6 @ @ !.*X$XoX.X_.A.U V Z Z Z Z Z z Z V 2.            ",
"            *.*.:.:.:.:.:.*.b.:X4X5X5X5X@Xo . O E.a.4.O.o.J i.Z.X @ o 8 oX$X+XoX}.).D.R Z A H Z Z Z Z z V Z             ",
"          *.:.:.:.:.:.:.6.*.M.:X3X4X5X5X3XZ.X L. X3.#.O.o. .u.H.8 . . Q *X$XoXoX X).S.R Z A Z Z H V Z z Z V p.          ",
"        0.7.6.:.:.:.:.:.6.*.d.:X3X4X4X4X4X3X:X%XI.o.#.o...J R |.{ # q XX*X$X+XOX].Q.n.G A A Z Z Z Z Z H V Z H           ",
"        9.*.:.:.:.:.6.6.=.*.p.&X3X4X4X4X4X4X>X#Xd.+.O.+.o.A R W.@XoX$X&X*X$XoX.X_.~.] V J A Z Z Z Z V V V Z Z 2.        ",
"      0.:.:.6.6.6.*.6.6.=.*.1.OX2X3X3X4X3X1X-XU.4.O.1.+.X. .A m.@X$X*X%X$X@X.X].).E._ Z  .H Z Z Z Z Z V N V Z K         ",
"      6.6.>.6.6.6.>.>.-.-.-.@.I.>X1X1X1X>X-X|.j.+.*.O.O.X. .A i. X$X$X$X@XOX|._.Q.L.( A J J Z Z Z V z V N V Z H T       ",
"    w.6.6.6.6.6.>.-.%.%.%.-.$.d.%X;X;X;X-X Xb.o.5.5.*.O.o.X. .L F.XXoXXXXX|.[.(.E.| Z J J A Z Z Z Z z N B N V Z T       ",
"    5.9.6.6.>.-.%.o.X.X.o.$.-.O.b.XX%X@X'.b.o.*.:.,.5.O.o.o...A h.(. X|.|._.(.E.S.~ S ..J A Z Z V V V k k k x z Z K     ",
"  z.7.r.9.9.-.%.o.J J J ..o.O.$.O.2.M.k.T o.*.*.*.5.5.O.o.o... .V c.Q._.(.~.E.L./ Z J J A Z Z Z Z V l k k k k l z 2.    ",
"  0.r.y.e.8.-.o.J Z     J H ..o.O.$.$.O.O.O.$.O.%.O.O.o... ...J S Z ~ A.E.G.{ I Z A J H A Z Z V V V z x k g g g z Z     ",
"  r.r.y.9.,.@. .H C     h.l Z J ..X.o.o.o.o.o.X.X.......H A Z Z Z Z Z Z C B Z Z Z Z Z Z Z V z z z l N x g g k g k Z 2.  ",
"x.9.y.r.9.-.o.J l h.:X+Xv.g k l V A A S A A Z V V Z V z z l l k k k N l N V V V l l l l C C z z x x k k k g g g g z P   ",
"q.r.y.r.r.-.X.Z k }.>X}.J.Y s g k k k k k k k g g d d s d d d d d d k k k d d d s d s n =XU.k k k k g g g g g d d V A   ",
"@.9.r.r.9.-.X.B n OX:X]._.^ u i s s s s s s i u y y y , , y u y u i i a s i i i y y , N.,X/.d g g g g g g g g d d k H   ",
"@.9.r.r.r.,.L k h.*X*X{.!.^ = y y u u i s s s u y y * * * * * , , 1 1 y y 1 y , , , y /.,X`.^ y d g k g g g g g d g H f.",
"<.4.9.9.r.8.X.f Y.&X@X`.U.M.+.*.e.:.:.>.:.:.:.-.*.*.$.$.O.o.A g 1 * = , * > = , , = _ &X&X].| * s g k g g k g s s g H E ",
"E @.-.9.r.8.o.j F.OX^.x.t.e.e.e.e.:.:.>.:.-.-.:.,.*.$.$.$.$.O.O.O.O.X.Z u , , y , , N.2X$X_.| & y g g g x g d s i g H X.",
"u.o.@.>.:.7.-.5.t.t.t.e.e.e.:.=.-.%.$.O.O.O.O.$.O.O.o.O.O.O.o.O.O.o.O.o.o...S t t D {.:X@X_.N.e * d k k x g s s i g H P ",
"  P @.@.#.#.-.-.:.*.:.:.=.*.+.o.o.o.X...X.X.X.o.X.X...X...X.X.X.o.o.o.o.o..... .S k.+X&XoX!.K.! % k Z Z V g s s i g H X.",
"  H  .o.o.o.O.O.O.o.O.o.o.o... .J J J J  . .J J J  .J  . .J J  .J ..J ......J ..J J 2.R.`.J.H._ r X.X.L H g s s s g H P ",
"  E H J ......X.o.o..... . .J A A J J A A A A A A Z A Z A Z H Z Z Z A Z A H J H J A J ..3.v.n.! d %.X.H x d s i h x H <.",
"    x H H H J J L J J H A Z Z z Z Z Z Z Z Z Z V z V V z z Z z Z Z z z Z z Z V Z z Z z z H J J J J J H l g s i i g V H d.",
"    G g k x z Z Z Z Z Z z l l k l l N k k k k k l k l l x l l l k l k k l l k k k l l k x k x l N N k g d i i s g V H   ",
"      b s g k x M k k k k k g k g g g g d k g g d d d d g g k g k g k k k g k g g d g d g k g k k g d s a i a d B Z P   ",
"        u u s s s d d d d s s s d s d s s s a a s i s s s s s s d d d s d d s d s s i s s s s d d s u u i a s g N V     ",
"          1 1 y y u u u i u i i u u u u u u y y y y u u u u i i i s i s i a a i y u u u u i i i u u y u i s h k l T     ",
"            2 & > > 1 1 1 1 1 1 y y , y , , , , * , , , , y y y y y y u y y u y y y 1 , 1 1 y y y y u u s s g k G       ",
"                $ $ $ % % & & & & & % % & & & & % & * * * * , , , , , 1 y , , , , , * * * , 1 1 1 u u i i s g B         ",
"                    9 $ $ $ $ $ $ $ $ $ $ $ $ $ $ $ $ $ $ % $ $ % > * * * * * * & & & & * , , 1 1 y u i s d G           ",
"                              - & % % $ % % % % $ $ $ $ $ $ $ $ $ $ $ $ $ $ $ $ % % % * * , , 1 1 y u i d I             ",
"                                                  m v p < % $ $ $ % $ $ $ % % $ % % & * * > , , y y u F                 ",
"                                                                F F p > & % & % % & * * > > 1 1 v                       ",
"                                                                        g.l.                                            "
};
