/* XPM */
static char *bcba4fe4cac545bea04d4245bdf85453IGkieMsFV188HPqe[] = {
/* columns rows colors chars-per-pixel */
"60 60 101 2 ",
"   c #0C3D0E",
".  c #163E0F",
"X  c #1B3D0E",
"o  c #143E12",
"O  c #1B3E12",
"+  c #0D410C",
"@  c #14420E",
"#  c #1B420E",
"$  c #064111",
"%  c #0F4312",
"&  c #0F4813",
"*  c #134513",
"=  c #1B4415",
"-  c #154915",
";  c #1B4A16",
":  c #164619",
">  c #1C4619",
",  c #164B1A",
"<  c #1C4C1B",
"1  c #155116",
"2  c #15521B",
"3  c #1C521D",
"4  c #224415",
"5  c #294313",
"6  c #224A16",
"7  c #224719",
"8  c #2A461A",
"9  c #234C1C",
"0  c #2A4B1C",
"q  c #314B1D",
"w  c #23521E",
"e  c #29511E",
"r  c #26581D",
"t  c #1D4E20",
"y  c #175320",
"u  c #1D5422",
"i  c #175B22",
"p  c #1E5A24",
"a  c #234E21",
"s  c #2B4E22",
"d  c #314F22",
"f  c #245423",
"g  c #2B5424",
"h  c #245A25",
"j  c #2B5A25",
"k  c #255728",
"l  c #2B5629",
"z  c #255C2A",
"x  c #2B5C2B",
"c  c #325524",
"v  c #3A5426",
"b  c #325926",
"n  c #315629",
"m  c #325C2C",
"M  c #3A5C2C",
"N  c #2E5E31",
"B  c #335E31",
"V  c #395E31",
"C  c #1D6128",
"Z  c #236227",
"A  c #2A6024",
"S  c #25622B",
"D  c #2C622D",
"F  c #2D682E",
"G  c #32622E",
"H  c #39622F",
"J  c #34692F",
"K  c #266631",
"L  c #2D6432",
"P  c #2D6A34",
"I  c #2F6B38",
"U  c #336433",
"Y  c #3A6434",
"T  c #346A35",
"R  c #3A6A35",
"E  c #336538",
"W  c #3A6638",
"Q  c #356C3A",
"!  c #3B6C3B",
"~  c #2E7239",
"^  c #337136",
"/  c #35723B",
"(  c #3C723C",
")  c #377B3E",
"_  c #3F793F",
"`  c #426434",
"'  c #426B36",
"]  c #42663A",
"[  c #426D3B",
"{  c #42723D",
"}  c #357341",
"|  c #3C7441",
" . c #3D7943",
".. c #436E40",
"X. c #427442",
"o. c #487345",
"O. c #437A45",
"+. c #4A7A47",
"@. c #45794B",
"#. c #4B7E4B",
"$. c #44804A",
/* pixels */
"x g 9 0 s l m > a N L U L T w x L / O.K ! 9 9 s f 3 R j r H J A A 2 p K U k t z z % < x y P R j m c g g f U f z L p P S ",
"j j 9 9 O 0 a a x ! E z a E 9 f ( 2 2 - U Y ` g j R h G 6 G H ( ! D 2 K U x } f u x B a 2 ( T 9 0 9 # g U k & L L D Q ! ",
"U U T x O > l O W N Q : h 9 l g G Q T p x m g x x 3 h j b ' 6 J O.L Q h k U j | k U m < D  .A 6 9 ' ; 3 T p Q K / U x 7 ",
"h { g x k | l B : u N L x m 9 7 j T h z E [ 9 x D 3 - w ' b j G W 1 h T g U l t E z s < ! O.z f ; 9 { w z k L L x f m 6 ",
"p L 3 z l ! L L p z x s . s e g R K ~ ^ w g 7 s : j l ! U ; w ! G < 3 h B W t f ! k f < W Q D k b 4 Y e Y ! Y x = = W e ",
"2 Q j : W z p L z h L x = g 0 g ( Z F F x g s n s U , B x . j D x m k j = g E U ! f f N T Q A = g H 0 m g s l B x 6 m ; ",
"< L p L z E z E F - ! L W 9 b e R r D D x j > k u y | N l > 9 x x j x < < x * x Q j t ! U Q z - W r f { x p * D Q x w k ",
"< U f } P } p z T f L T j U M g { < 3 ^ < G f 9 N u N a s 7 B f x Y f U x a t z N Q u ! u L S z G r A T 2 z / z / T - U ",
", j x N - U S S Q Q L ! j G = ( F / Z F g a s > ! N k k l a z u g f j D , o.f u L k z p L u Q Q D p Z ) z S P p K D x g ",
"t a W W 9 T K D Z / h U ; 3 ; 1 ^ F F A Y n n 7 l B k l l t z x R D j 6 j < W j N } L z p p K P D ^ D 3 p Q P h h h Y f ",
"s a U Q ( D 1 { G w j R D 3 < j w R G D U Y ..l Q p k ! l 9 x E G ' ; m 3 h L T k Q p p , : z L { x ; h < 9 E g a a ! g ",
"a 9 W x 1 f x m w j G h { r h P w r D D j j 7 x Q L N f l m k B j b b 6 - R , B E E k K x x Q L g x 7 7 s m V Y l O g > ",
"a B E Y f f x w G # H r H { { r A ( G r j 9 g 4 T 3 h f f k U f w ' 6 6 x j Y x W u p z k x U f V s s s m U < U B k k f ",
"E W a x z 9 G R # # H 6 9 R w D R J D A b e 4 M m j , h ! - S F j b 4 6 T x l E B t k N = B N f x s 7 f N U W , k l k k ",
"  | < : ! W w e w b b 0 c { G + r { 3 J e g 7 7 j L h f U h Q j G e 5 = W > > l s a t N = B x h N E : l ..k x k f k E z ",
"a k t u T ! U 9 9 # ' H R G x w w H w G Y H f = D z z - G R h J H 0 0 4 Y k a ! f k , L g g h G - , U f u N U N f , E z ",
"a j ! z u Q , k 9 f ! T L D U * ; B g g R G r x w h Q % E ..f W 0 6 M 0 ' 1 j D f ! p ( j r A { A ^ J r r r w J ! f L k ",
"E k k k % Y x k Y Y 3 h z D P ! m . d 9 #.D j w G f z z ! > W f # b c G r { h p f T R x 3 J / 3 A r r R w b j G D U | u ",
"T l x x l k f < h D ; ! f A p U U l s g J _ @ r k < L z t N z < e 6 e j w T X.f L P F x J r r _ R r H ' = H b J = D | < ",
", | ! * 9 > z , Q D < x < L z L U f 9 Y ; J w ; U w P x N j f f 6 ' r j J 3 T u p ! 3 ( Z O.) J R r w { r r e { U R ! z ",
"u ( E j j 9 h ( x Q ! l f f p } f k g R h 3 ^ b X.f u Q f o.L f b g { # D f p z ! U D p T A { F R ^ r ' G h R 3 ( S S D ",
"j < W [ j k U < z f Q W E z z z p  .w f A 3 H R < T U T , * Q T { g G Y U z @.L L L U z Q P p F J 1 r ^ G j A h J f z P ",
"B j R x O.x = l x f j | , p Q Q Q U < - h r { w Y l L P w < 2 T J ; x h #.z p u U & z z T D P / P C ) T h J w j Y m g > ",
", 3 ( T f  .g < > z : | , z L N Q z U R r Z R H m * T K f ; / D g > j k Q Q , t z L N L Q 1 p K Z ~ P J T D 3 f G U 9 = ",
"9 * O.F 3 ! U j 9 t x Q p Q W z p h j h ^ ( b G U x Q ! f L L D w j x x T ( x < L L x W u Q K Q S ^ P D z A z h z T D D ",
"f U f U * L U g B , Q x L p u I L L k - J R w > Y x z f U x ( A < J < ( f - T x k t z ! | L z p D h ! { f f Q x x F K T ",
"h h h G x U A U , E N k k a L E E z f < { F w w j ! f k f < G z ; { R D h f G G > j k ! x N L L x j ; g g = g { x g U U ",
"F Q j j g U D L L f f > W k t p p E f f 3 ^ f 9 9 x * N g g D j R b < R R X.* U x E l f < z z f - Y 4 m m m g s g , D z ",
"Q 1 ( w 9 m < S N u > W E k t k p N N N z Q U f B < : W W 7 a > ; G j j ; G g f = a a ! k W u < m [ 4 m c 7 > U U f L p ",
"Z w ( j T < U 3 t k x z | : } t N o B t X.% G g 9 a k W m s s g G w w # G g g . 0 7 l 0 t t t f f ' 9 j Y > < l T x L z ",
"U R ( h f F x f B a t k } N a t E l B > U * x m a E k N O n 9 s H w w w Y G @ e 7 s m Y B ! x x T h 1 ! X.9 g a T E x a ",
"' h z T ( h f U k l   N } t k E > s l n ! , 9 U x E a a a > s U G w j j w m c m 9 s s [ j < 9 x ^ ( 1 h ( h * t g x s 9 ",
"` b w $.p P 3 j E W u Q L K u W 8 s a n c Y w j R N : l j Y j U e 6 D x H G 6 c 6 6 A G x f > k ( r D Z ) ) S D 1 D 6 w ",
"e c J 3 Q K T G f j z h z Q w U 8 X c X 9 0 ' h , [ f g h ^ j j x G ( G ; H b H 9 b w w ! T a f R ; 1 ^ ^ C Z ( r A G 6 ",
"0 6 j w L p Q N : t U u ! h D x k ; s Y 6 0 j ; < S L y K T h D g w G j r A r H r r e c a B z W w w H ^ F _ T ^ r T j j ",
"d 6 # j j < D N f U N f 3 x D U Q z 9 [ b e e b f x i  .P F F J j w f j { r 9 r 6 ` 5 0 8 ! L y G A b b w R / ^ 3 ( w g ",
"0 b 6 6 m D W Q | < B l > x @ ! } ~ < m # e 0 0 f < K ~ K / h R j m g T G j b w g ' 5 8 8 7 W p 1 U g j m G X., f x m a ",
"e b 9 0 j Y ! L ! f X.9 w x h K p 2 j g 9 0 M 4 s z L p Q p P ( z g j U b w ' 6 R 9 s d v s L , P f j < R G j g , j g B ",
"m e 6 c 0 B U p ! E E g > l T G K x m m 0 6 0 c m l Q z j j k +.x f D h m 4 M 6 w G ] X 5 d f E w h ( & L ! ; , g [ a W ",
"j g c 9 g m z u , z ..9 = T U   f g ' 6 H # 4 m s 9 U N f a f j g ! U f m d 0 H ; R = m s = a ! f ! L 3 T p , s W Y x j ",
"! < n g > a z p I p Q B a B E u a a Y [ m l ! w f ] B = > 6 +.w f j h D Y 4 0 c b r ; j M 0 [ M n s | W W E , t ! l x x ",
"G j Y s l t Q z z Q N k u Q z W O 7 W X.R F ^ 2 N t ] O k { D w W j 3 #.j m 0 4 H = g ; G m m 4 s o B t Q I D L j u L , ",
"j G T Y g < E z y } K % u X.z k s a U S h C P C Q N B g U S 3 O.[ 9 * ( h L j 6 M 0 b = g ( x @ s > ..t ! L L E z < j x ",
"U U * s l k z L p S } L U L f k = 9 Q C 2 2 C ~ K z s l z K  .R B m 3 ( S / 3 j ` 5 6 g J T j f f N E t t u z / z < 8 s ",
"j U 9 * B f t ! K : i }  .Q u > s k L z S S C p z k k E  .$. .P < U U R P T p x c c 0 9 T P T < z E z t x t z 3 < < c 5 ",
"= j x U k a a N u z P } z z : x * z z z h D L ! : t U j : Q  .p 2 h m g T P / x c q 6 j h ^ D J | } N % E , U > = 6 c 0 ",
"g m w ( a k l k E L K } K p > ! t E x U D G 9 0 l s f u < f T ^ P P s M x ! Q z 9 V b w 1 ^ ^ R l l k : W l m 8 0 0 c ' ",
"= ! x ! E t l | N u L P z u s m < T s G U ! s s ] l E N f , 3 F S L s V G h p S j m D 2 F h ( b N x t > x Y 0 0 0 0 M r ",
" .P X.z x * x p k f Q ^ F ( Y c 0 g < z L o.9 = m s s B f g w A z U s m Y A I f < a N L p p c 0 U z p 3 T G ' G > x m x ",
"K D w ( , U J x : g h ( / A r 0 ` Y D z z x m g > B f f 7 f j j x s 9 g T D Q z a E W } p u s s Q y , T x 3 G T f k k z ",
"P S 1 T : k D w u t ( J h x 6 0 0 M A S k | 7 s f l j j R 6 ( f l o > 9 f Z D U a t E } u E s 4 f l | { j j G ; t k } p ",
"y L m m j x T = x U U G Q p f H 0 c L 2 K z W O a ..x < x f G x g 9 m l ; x h X.N a z P L @.= O B x m x # T ; T y z N } ",
"T D 9 e Q , U [ L k ! j T f G 6 4 G S D * ! f m < x @.h x < Q j f 9 m f w D f T l < z Q z a Y M m G ; ( { r { j p }   } ",
"2 U c 9 W t g g L * m g ( - @ b 9 Y h / u k x x * L ! Q ! x f | > s ..l w w x R ..x k z U ; 4 0 R h 3 R h R R 1 z Q z I ",
"h T 4 q j D 9 x U p j g D : G g ' g L D - w E > p L  .: x x Q Q f > g g f A D < N , | L j , = H X.y F T D r T 3 z N @.: ",
"A j 0 4 U x j e X.f e ; x L U j ; +.h 3 L R k G z Q } t L 3 p z k l x ' ; j D w f , U h U 7 6 H P i Z D Z < D U k N k k ",
"F j v 0 z L 6 7 X.! w 4 N z X.3 < U ! z G k j h P P z L f L K Q k t < ! j G h 1 X.L x < G = g r P i K Z 1 r w G U Y l a ",
"p A v v f S w j L L m c W f U , x W W z f f f h / / K U j l u t E B f ! j m j A L D x z U 6 6 < Z C P F h A h W 9 x s > ",
"F J q v L  .J j L N B 9 s : P Q x N z x > f k z P / h L l k z z x x f U j G G T T z N x m e e h h ^ T R b j w Y B B N l ",
"^ R 5 v x ^ ( J : < Y b n , z P u t t U g l x z K ~ h x < f x P z x k U f x w D  .K z j g b H ! Z ( D ^ w w 7 G W s t B "
};
