/* XPM */
static char *_aad8ae9c7a740cda2869e1c702a9cc95EntTCf5f5wDXDD2[] = {
/* columns rows colors chars-per-pixel */
"60 60 240 2 ",
"   c None",
".  c #010202",
"X  c #020B05",
"o  c #000608",
"O  c #020C0C",
"+  c #0B0B0A",
"@  c #150D04",
"#  c #03140B",
"$  c #1D1C08",
"%  c #000E10",
"&  c #011413",
"*  c #001B14",
"=  c #011B1D",
"-  c #0B1A1A",
";  c #081615",
":  c #171918",
">  c #261C00",
",  c #083B06",
"<  c #062619",
"1  c #0A3D16",
"2  c #04381B",
"3  c #1A2612",
"4  c #262506",
"5  c #392801",
"6  c #383208",
"7  c #2B3519",
"8  c #33320F",
"9  c #011E21",
"0  c #022323",
"q  c #022B2C",
"w  c #032726",
"e  c #033C2C",
"r  c #033827",
"t  c #022F33",
"y  c #013334",
"u  c #033B36",
"i  c #01353A",
"p  c #023A3B",
"a  c #0E3E3B",
"s  c #0B3A33",
"d  c #183230",
"f  c #222423",
"g  c #242929",
"h  c #2A2B2A",
"j  c #2B2A24",
"k  c #293938",
"l  c #353534",
"z  c #303229",
"x  c #453701",
"c  c #4B3502",
"v  c #413C3F",
"b  c #165805",
"n  c #034517",
"m  c #125613",
"M  c #0D5307",
"N  c #334A14",
"B  c #126B13",
"V  c #1A7814",
"C  c #196F04",
"Z  c #3F641E",
"A  c #2B6D0E",
"S  c #034628",
"D  c #194626",
"F  c #03542B",
"G  c #095327",
"H  c #054B33",
"J  c #03433D",
"K  c #094535",
"L  c #194734",
"P  c #055332",
"I  c #085935",
"U  c #145730",
"Y  c #274D34",
"T  c #0A6737",
"R  c #097A39",
"E  c #0E7432",
"W  c #5B4605",
"Q  c #574B16",
"!  c #4B4E14",
"~  c #695607",
"^  c #745904",
"/  c #68520E",
"(  c #5D6108",
")  c #6B6703",
"_  c #6C760A",
"`  c #6C6819",
"'  c #786608",
"]  c #47592B",
"[  c #517237",
"{  c #6A782D",
"}  c #0B3F42",
"|  c #034444",
" . c #024C45",
".. c #024649",
"X. c #044B4C",
"o. c #0D4845",
"O. c #05564B",
"+. c #055353",
"@. c #045D5D",
"#. c #055858",
"$. c #114F4C",
"%. c #274A4A",
"&. c #38484B",
"*. c #225541",
"=. c #385B49",
"-. c #3B5454",
";. c #056B43",
":. c #026349",
">. c #067446",
",. c #046356",
"<. c #06635A",
"1. c #076B57",
"2. c #04745B",
"3. c #077758",
"4. c #126755",
"5. c #286849",
"6. c #377653",
"7. c #035C61",
"8. c #046464",
"9. c #066B65",
"0. c #056B6A",
"q. c #0A6B6A",
"w. c #067A68",
"e. c #0B7874",
"r. c #1A6E61",
"t. c #484A48",
"y. c #4B5957",
"u. c #565752",
"i. c #50514B",
"p. c #536559",
"a. c #537250",
"s. c #556664",
"d. c #676868",
"f. c #757A78",
"g. c #6D7875",
"h. c #855C05",
"j. c #9B790B",
"k. c #8C710F",
"l. c #1E8408",
"z. c #228808",
"x. c #229713",
"c. c #27A915",
"v. c #28B618",
"b. c #0F9231",
"n. c #158E31",
"m. c #19AA37",
"M. c #1EB735",
"N. c #1CB32B",
"B. c #24B728",
"V. c #23B33A",
"C. c #3C9436",
"Z. c #61881C",
"A. c #4B8B33",
"S. c #7DA036",
"D. c #74953C",
"F. c #34DC1B",
"G. c #2DC918",
"H. c #26C329",
"J. c #24C539",
"K. c #0B874A",
"L. c #128A4B",
"P. c #10804D",
"I. c #08954A",
"U. c #129B4A",
"Y. c #098358",
"T. c #198952",
"R. c #089656",
"E. c #14965B",
"W. c #2A9451",
"Q. c #13AA4E",
"!. c #1BB24B",
"~. c #04A95D",
"^. c #12A555",
"/. c #09B55D",
"(. c #14B852",
"). c #0CA34C",
"_. c #2DAD56",
"`. c #058866",
"'. c #079868",
"]. c #0A8672",
"[. c #119168",
"{. c #06A767",
"}. c #06B763",
"|. c #13BA69",
" X c #17B764",
".X c #25A968",
"XX c #269B6A",
"oX c #5A8147",
"OX c #4F9052",
"+X c #628741",
"@X c #4CB847",
"#X c #748570",
"$X c #13C159",
"%X c #17C464",
"&X c #28CA66",
"*X c #2ED366",
"=X c #35D267",
"-X c #38CA70",
";X c #64D54E",
":X c #43D768",
">X c #988D13",
",X c #AB870B",
"<X c #B79707",
"1X c #A6981A",
"2X c #B79614",
"3X c #AB890F",
"4X c #80AE1E",
"5X c #B5AD14",
"6X c #9E9C26",
"7X c #95B627",
"8X c #C59D0D",
"9X c #C19911",
"0X c #CAA30C",
"qX c #C9A906",
"wX c #D5AC0C",
"eX c #CDB307",
"rX c #D6B609",
"tX c #C2B51D",
"yX c #E1B50B",
"uX c #90D72C",
"iX c #B0CD1B",
"pX c #DAC308",
"aX c #C7DA1A",
"sX c #E6C805",
"dX c #EED404",
"fX c #F5D600",
"gX c #7D8686",
"hX c #888888",
"jX c #979797",
"kX c #8C918F",
"lX c #ABAAAA",
"zX c #B1AEAE",
"xX c #B9B9B9",
"cX c #81AC89",
"vX c #CFCECE",
"bX c #EAEAEA",
"nX c #E5E5E5",
"mX c #E3F5EE",
"MX c #E5EEF0",
"NX c #E5F0F0",
/* pixels */
"                                                                                                                        ",
"                                                                                                                        ",
"                                                                                                                        ",
"                                                                                                                        ",
"                                                                                                                        ",
"                                                                                                                        ",
"                                                                                                                        ",
"                                                                                                                        ",
"                                                                                                                        ",
"                                                                                                                        ",
"                                                                                                                        ",
"                                            p.P #X      f.A a.    g.I p.                                                ",
"                                  b z.n , , F T ;     #Xb z.m , , S T =.*.T 2 M 1 B l.                                  ",
"                              y.V x.2 I.H.N.I X - jXgXm c.1 >.M.B.R < zXhX< b.H.!.P m c.                                ",
"                            t.T Q.U.<.e.^.T # & X.k U ).^.<.0.'.n.< & zXgX. 2 U.[.8.3.Q.U.D                             ",
"                          y.T H.!.#.t @.J F ;. .q P m.J.2.i +. .S T O.&.%.O.T r #.X.p Y.J.b.5.                          ",
"                        p.T J.V.T N _ E.O.H H u P m.J.R D ' C.#.K P J s.y.u P J 2.A.~ S n.J.b.Y                         ",
"                      a.B M.x.L.X.Z uX.X,.0 X M m.c.n.#.D uX@X2.q o 9 hXhXl + | `.;X4Xs 1.n.B.n.N                       ",
"                      b F.v.1 >.Y.4.L.<.q o M G.G.m I `.,.L.2.p O & #.y f.kX+ & ..P.>.1.R.S V F.v.1                     ",
"                      n $X^.<.8.| * * & | w < Q.(.3.8.O.= * * p u ; <.0.o.: ; | q & * w <.@.Y.(.I.3                     ",
"                      n |.R.e 9 i X.X.X.y O 2 ~.{.H = q ..X.X.i 7 ` E.].y # p w J X...} q 9 ;.|.I.<                     ",
"                      =.F P J u y y y u = 8 ! F F K i i p y } N h.6X!.:.t O.`.H i p i } p i H P U f.                    ",
"                        h o p  .%.i.v + 7 >X,Xx X t +.t + v : W rX5X^.< u E._.a.x c > . i X.9 + d.                      ",
"                          l g g kX    t./ 0XdXqX6 # * o f lXt.) dXtX5.9 I @X2X9X2X3X` h g h f d.                        ",
"                                        u.^ 8X<X,XC.Y.J # f w ` 6X5.w  .a.2X0XsXwXW i.                                  ",
"                                    f.      5 W eXaX@X`.| X _ pX>Xq o.{ ( ^ yXwX` $ i.                                  ",
"                                  a.A     v # G _ qX5XA.a Q <XsX>XL q.] N A ' W : r 5.kX                                ",
"                                a.b z.n , , F T X c >X] > <XrX2XoXq.X.n C z.n M 1 T G : kXzX                            ",
"                              y.V x.2 L.H.N.I X O X J $.6 eXfXS.q.+.w x.V r U.H.m.S o & - - f.                          ",
"                            t.E !.E.@.w.^.T # & | = i 6.3X8X0X+XX.r n.^.T.@.`.^.G . = +.@.7.o.d.                        ",
"                          y.>.B.!.@.i 7.J F ;...w X p OXsXpXD.L r R H.^...p 7.e T :.p y 8.[.2.} d.                      ",
"                        s.T M.V.T N _ T.O.K P s t 9 w ] eXrX] u R J.m.P ! Z.Y.J H H y J q.`.'.2.a f.                    ",
"                      a.B M.x.L.X.Z uX_.,.0 o S w.#.= x <Xk.N x.N.x.3.J Z.uX'.O.& O t ..X.8.`.'.8.& bX                  ",
"                      M F.v.n >.Y.1.L.<.q o 2 !./.`.u ~ <X6 z.F.x.2 Y.2.3.T.O.0 . q o.3 $ o.0.0.#.k bX                  ",
"                      n $X^.4.9.J ; * = | q x iX;X XA.<X,X4 E $XR.<.9.e * * - X.< X 6 j.j.8 } +.k xX                    ",
"                      S |.R.e = i X.X.X.y o x eXaX7X1XwX5X$ R |.K.w 9 p X.X.| w Q j.<X2Xa.4.t %.zX                      ",
"                      =.G P u u i y y i       ^ wXwX9X8XqX^ D I H u i i i } s ) <XyXtXa.s i -.lX                        ",
"                        z o p X.%.i.i.          ` h.,XwXwXwX^ @ & ....7 x x W eX,Xh.! o.t.i.lX                          ",
"                          l g g                 z . ' fXsXsX5X! & * ; ` <X<X>Xj.Q h j t.                                ",
"                                                g . ~ 0X0X8Xa.4.2.I.1.r.Y 4 $ 8                                         ",
"                                              y.o.& W 0XyX2XN :.}.}.{.w.7.t :                                           ",
"                                              ; #.$.7 k.rX9X5 F %X%X}.`.e...h         hXf.f.vX                          ",
"                                              H w.e.i 5 ,Xk.7 ;.%X&X{.w.e.:.a       f.w 9 9 s.lXxX                      ",
"                                            K (.~.w.q c j.>  .'.$X{.2.0.'.{.,.f     k @.#.8.o.+ h nX                    ",
"                                          a [.=X/.S o 6 j.$ >.&X*XI.r >./.}.I.<     hX- & +.q.i g vX                    ",
"                                          D -X|.`.< . @ 8 K .X*XI.S  .R.&X&X~.,.-.u.l . . ;.'.X.+ i.                    ",
"                                        5.U.%X`.J O . . # XX-X|.:.& 8.`.{.*X&X'. .% . . y R.'.X.. . bX                  ",
"                                      t.T ^.XXp . . . X I _.|.2.t 0 8.e.`. X*X&X.X4.2 S `.'.].+.. o bX                  ",
"                                        p.    l f + + D I. X`.K - q +.7.0.`.{.=X:X%X~.~.~.w.8.p o h bX                  ",
"                                                  t.u.#XY gX=.a.#X: - s #.e.]. X%X%X{.].e.e.o.O h xX                    ",
"                                                                          NXNXmXmXmXmXNXNXNXbXnXbX                      ",
"                                                                                                                        ",
"                                                                                                                        ",
"                                                                                                                        ",
"                                                                                                                        ",
"                                                                                                                        ",
"                                                                                                                        ",
"                                                                                                                        ",
"                                                                                                                        ",
"                                                                                                                        "
};
