/* XPM */
static char *result[] = {
/* columns rows colors chars-per-pixel */
"60 60 234 2 ",
"   c #010101",
".  c #000B06",
"X  c #010A0C",
"o  c #070603",
"O  c #06180A",
"+  c #191401",
"@  c #000E12",
"#  c #001314",
"$  c #021A13",
"%  c #011D1B",
"&  c #051617",
"*  c #161D1B",
"=  c #160D00",
"-  c #221A04",
";  c #00210E",
":  c #162617",
">  c #0D311A",
",  c #372802",
"<  c #303A18",
"1  c #011E21",
"2  c #231C20",
"3  c #012222",
"4  c #022C25",
"5  c #012528",
"6  c #032C2E",
"7  c #0E2821",
"8  c #172826",
"9  c #023629",
"0  c #022E31",
"q  c #023334",
"w  c #023C3B",
"e  c #043736",
"r  c #163337",
"t  c #1A3726",
"y  c #292829",
"u  c #2C3637",
"i  c #3A3636",
"p  c #3B3137",
"a  c #2F2F2E",
"s  c #45111C",
"d  c #7C0318",
"f  c #583A0A",
"g  c #4E3C00",
"h  c #4A1431",
"j  c #43343E",
"k  c #0E4E11",
"l  c #186306",
"z  c #187603",
"x  c #0D7318",
"c  c #316E1E",
"v  c #247510",
"b  c #044B27",
"n  c #104027",
"m  c #02552D",
"M  c #064538",
"N  c #065935",
"B  c #185B38",
"V  c #165232",
"C  c #3E4C3A",
"Z  c #394638",
"A  c #225837",
"S  c #244E30",
"D  c #066329",
"F  c #056636",
"G  c #09723B",
"H  c #106A3D",
"J  c #5A4908",
"K  c #775905",
"L  c #645B05",
"P  c #5F661B",
"I  c #7D640B",
"U  c #6A6811",
"Y  c #685A2E",
"T  c #4F6434",
"R  c #043F40",
"E  c #722C4A",
"W  c #044344",
"Q  c #024C4B",
"!  c #074B46",
"~  c #024D53",
"^  c #035453",
"/  c #045C5C",
"(  c #055958",
")  c #114E4A",
"_  c #2A4445",
"`  c #3C4C42",
"'  c #2A4F50",
"]  c #09664D",
"[  c #057D49",
"{  c #05655C",
"}  c #036A57",
"|  c #067859",
" . c #11714D",
".. c #357E56",
"X. c #27664B",
"o. c #045C61",
"O. c #056765",
"+. c #156E69",
"@. c #04736C",
"#. c #037C6D",
"$. c #047863",
"%. c #157765",
"&. c #066D71",
"*. c #077674",
"=. c #127570",
"-. c #237361",
";. c #4D4C4D",
":. c #454847",
">. c #524E4F",
",. c #495B55",
"<. c #535454",
"1. c #625E5F",
"2. c #4E6654",
"3. c #556B57",
"4. c #447D53",
"5. c #4A714A",
"6. c #62675D",
"7. c #5D6160",
"8. c #676768",
"9. c #79776D",
"0. c #6E7676",
"q. c #727272",
"w. c #7A7B7B",
"e. c #6E6E71",
"r. c #876909",
"t. c #8A7802",
"y. c #957109",
"u. c #80741D",
"i. c #A0790D",
"p. c #857E2A",
"a. c #84454B",
"s. c #2A970B",
"d. c #20850B",
"f. c #22AB11",
"g. c #159E2C",
"h. c #158637",
"j. c #129539",
"k. c #39863D",
"l. c #11A03F",
"z. c #1CBB3C",
"x. c #1DA22C",
"c. c #27B624",
"v. c #20B931",
"b. c #5D8114",
"n. c #6A863B",
"m. c #76883A",
"M. c #67AC35",
"N. c #23CF3F",
"B. c #2BCF2A",
"V. c #30D413",
"C. c #7ECE30",
"Z. c #06864B",
"A. c #158C4D",
"S. c #02944E",
"D. c #058855",
"F. c #178E5F",
"G. c #07975C",
"H. c #169A57",
"J. c #169147",
"K. c #299857",
"L. c #02A45A",
"P. c #03B75C",
"I. c #16B45B",
"U. c #16AA47",
"Y. c #2EAC5A",
"T. c #04846B",
"R. c #058A67",
"E. c #168964",
"W. c #029C63",
"Q. c #059868",
"!. c #078570",
"~. c #379E6B",
"^. c #01A363",
"/. c #04A766",
"(. c #0CBB65",
"). c #15B765",
"_. c #10A164",
"`. c #36B56D",
"'. c #52814F",
"]. c #6B8940",
"[. c #54AA43",
"{. c #7C8579",
"}. c #57AF79",
"|. c #18CA59",
" X c #20CA50",
".X c #0BC563",
"XX c #17C465",
"oX c #18D266",
"OX c #24C966",
"+X c #3BCE6B",
"@X c #36D368",
"#X c #32CA6D",
"$X c #5DCE48",
"%X c #6EDD45",
"&X c #838F09",
"*X c #B28B0E",
"=X c #B79B05",
"-X c #AB981C",
";X c #B79916",
":X c #AF8D13",
">X c #B8AF0E",
",X c #9A8D22",
"<X c #A09723",
"1X c #8CBB27",
"2X c #C89B0D",
"3X c #C0920E",
"4X c #CDA30D",
"5X c #C3A309",
"6X c #D6AA0B",
"7X c #DBB807",
"8X c #C8B312",
"9X c #CDAF10",
"0X c #E1BF07",
"qX c #89D53D",
"wX c #A8C813",
"eX c #DFC206",
"rX c #D4D91D",
"tX c #E4C306",
"yX c #E6C905",
"uX c #EDD302",
"iX c #FADB00",
"pX c #82837F",
"aX c #827D81",
"sX c #71A9AA",
"dX c #6FBDA8",
"fX c #6D8888",
"gX c #6CD6A3",
"hX c #848282",
"jX c #878A8A",
"kX c #969697",
"lX c #8F9292",
"zX c #A09D9F",
"xX c #9FA299",
"cX c None",
/* pixels */
"cXcXcXcXcXcXcXcXcXcXcXcXcXcXcXcXcXcXcXcXcXcXcXcXcXcXcXcXcXcXcXcXcXcXcXcXcXcXcXcXcXcXcXcXcXcXcXcXcXcXcXcXcXcXcXcXcXcXcXcX",
"cXcXcXcXcXcXcXcXcXcXcXcXcXcXcXcXcXcXcXcXcXcXcXcXcXcXcXcXcXcXcXcXcXcXcXcXcXcXcXcXcXcXcXcXcXcXcXcXcXcXcXcXcXcXcXcXcXcXcXcX",
"cXcXcXcXcXcXcXcXcXcXcXcXcXcXcXcXcXcXcXcXcXcXcXcXcXcXcXcXcXcXcXcXcXcXcXcXcXcXcXcXcXcXcXcXcXcXcXcXcXcXcXcXcXcXcXcXcXcXcXcX",
"cXcXcXcXcXcXcXcXcXcXcXcXcXcXcXcXcXcXcXcXcXcXcXcXcXcXcXcXcXcXcXcXcXcXcXcXcXcXcXcXcXcXcXcXcXcXcXcXcXcXcXcXcXcXcXcXcXcXcXcX",
"cXcXcXcXcXcXcXcXcXcXcXcXcXcXcXcXcXcXcXcXcXcXcXcXcXcXcXcXcXcXcXcXcXcXcXcXcXcXcXcXcXcXcXcXcXcXcXcXcXcXcXcXcXcXcXcXcXcXcXcX",
"cXcXcXcXcXcXcXcXcXcXcXcXcXcXcXcXcXcXcXcXcXcXcXcXcXcXcXcXcXcXcXcXcXcXcXcXcXcXcXcXcXcXcXcXcXcXcXcXcXcXcXcXcXcXcXcXcXcXcXcX",
"cXcXcXcXcXcXcXcXcXcXcXcXcXcXcXcXcXcXcXcXcXcXcXcXcXcXcXcXcXcXcXcXcXcXcXcXcXcXcXcXcXcXcXcXcXcXcXcXcXcXcXcXcXcXcXcXcXcXcXcX",
"cXcXcXcXcXcXcXcXcXcXcXcXcXcXcXcXcXcXcXcXcXcXcXcXcXcXcXcXcXcXcXcXcXcXcXcXcXcXcXcXcXcXcXcXcXcXcXcXcXcXcXcXcXcXcXcXcXcXcXcX",
"cXcXcXcXcXcXcXcXcXcXcXcXcXcXcXcXcXcXcXcXcXcXcXcXcXcXcXcXcXcXcXcXcXcXcXcXcXcXcXcXcXcXcXcXcXcXcXcXcXcXcXcXcXcXcXcXcXcXcXcX",
"cXcXcXcXcXcXcXcXcXcXcXcXcXcXcXcXcXcXcXcXcXcXcXcXcXcXcXcXcXcXcXcXcXcXcXcXcXcXcXcXcXcXcXcXcXcXcXcXcXcXcXcXcXcXcXcXcXcXcXcX",
"cXcXcXcXcXcXcXcXcXcXcXcXcXcXcXcXcXcXcXcXcXcXcXcXcXcXcXcX{.C cXcXcXcX` cXcXcXcXcXcXcXcXcXcXcXcXcXcXcXcXcXcXcXcXcXcXcXcXcX",
"cXcXcXcXcXcXcXcXcXcXcXcXcXcXcXcXcXcXcXcXcXcXcXcXcXcXcXaXc s.a a a A [ :.cXcXcXcXcXcXcXcXcXcXcXcXcXcXcXcXcXcXcXcXcXcXcXcX",
"cXcXcXcXcXcXcXcXcXcXcXcXcXcXcXcXcXcXcXcXcXcXcXcXcXcXa.c z k D d.x N A cXcXcXcXcXcXcXcXcXcXcXcXcXcXcXcXcXcXcXcXcXcXcXcXcX",
"cXcXcXcXcXcXcXcXcXcXcXcXcXcXcXcXcXcXcXcXcXcXcXcXcXlX] g.h.M G.N.j.; p cXcXcXcXcXcXcXcXcXcXcXcXcXcXcXcXcXcXcXcXcXcXcXcXcX",
"cXcXcXcXcXcXcXcXcXcXcXcXcXcXcXcXcXcXcXcXcXcXcXcXcXV l.I.| ( O.Z.b $ _ cXcXcXcXcXcXcXcXcXcXcXcXcXcXcXcXcXcXcXcXcXcXcXcXcX",
"cXcXcXcXcXcXcXcXcXcXcXcXcXcXcXcXcXcXcXcXcXcXcXjX9 U.B.J.M t { 4 D | W a cXcXcXcXcXcXcXcXcXcXcXcXcXcXcXcXcXcXcXcXcXcXcXcX",
"cXcXcXcXcXcXcXcXcXcXcXcXcXcXcXcXcXcXcXcXcXcXaXV U.B.H.q L wXH.{ 9 $ # . y cXcXcXcXcXcXcXcXcXcXcXcXcXcXcXcXcXcXcXcXcXcXcX",
"cXcXcXcXcXcXcXcXcXcXcXcXcXcXcXcXcXcXcXcXcXpXc f.c.l D./ k.$XF.M X   X q   cXcXcXcXcXcXcXcXcXcXcXcXcXcXcXcXcXcXcXcXcXcXcX",
"cXcXcXcXcXcXcXcXcXcXcXcXcXcXcXcXcXcXcXcXcXa x B.g.M D.] M m q q @ ; N { # cXcXcXcXcXcXcXcXcXcXcXcXcXcXcXcXcXcXcXcXcXcXcX",
"cXcXcXcXcXcXcXcXcXcXcXcXcXcXcXcXcXcXcXcXcXa F (.G.( ^ 0 & & 1 Q t B /.O.@ cXcXcXcXcXcXcXcXcXcXcXcXcXcXcXcXcXcXcXcXcXcXcX",
"cXcXcXcXcXcXcXcXcXcXcXcXcXcXcXcXcXcXcXcXcX:.N _.[ % # w / / ~ : r.Y *./ 8 cXcXcXcXcXcXcXcXcXcXcXcXcXcXcXcXcXcXcXcXcXcXcX",
"cXcXcXcXcXcXcXcXcXcXcXcXcXcXcXcXcXcXcXcXcXcX2.O 4 ( / q # # * I *Xm./ r cXcXcXcXcXcXcXcXcXcXcXcXcXcXcXcXcXcXcXcXcXcXcXcX",
"cXcXcXcXcXcXcXcXcXcXcXcXcXcXcXcXcXcXcXcXcXcXcX>.  3 5 8.<.= K 7X1XK.~ 8 cXcXcXcXcXcXcXcXcXcXcXcXcXcXcXcXcXcXcXcXcXcXcXcX",
"cXcXcXcXcXcXcXcXcXcXcXcXcXcXcXcXcXcXcXcXcXcXcXhXw.q.e.cXkX- :X7X[.} ) aXcXcXcXcXcXcXcXcXcXcXcXcXcXcXcXcXcXcXcXcXcXcXcXcX",
"cXcXcXcXcXcXcXcXcXcXcXcXcXcXcXcXcX5.3.cXcXcX,.3.cXcXcXcX9.J =X2X'.q i cXcXcXcXcXcXcXcXcXcXcXcXcXcXcXcXcXcXcXcXcXcXcXcXcX",
"cXcXcXcXcXcXcXcXcXcXcXcXcXcXcXcXC v d.: : : ] m j cXcX8.L uXyX;X4.q i cXcXcXcXcXcXcXcXcXcXcXcXcXcXcXcXcXcXcXcXcXcXcXcXcX",
"cXcXcXcXcXcXcXcXcXcXcXcXcXcXcXC s.l b j.f.j.b . o :.cX8.g 6X;X'.=.q i cXcXcXcXcXcXcXcXcXcXcXcXcXcXcXcXcXcXcXcXcXcXcXcXcX",
"cXcXcXcXcXcXcXcXcXcXcXcXcXcX,.G z.H / I.U.D X % e X ;.p.=X0X-X-.*.q i cXcXcXcXcXcXcXcXcXcXcXcXcXcXcXcXcXcXcXcXcXcXcXcXcX",
"cXcXcXcXcXcXcXcXcXcXcXcXcX,.m N._.^ ~ O.N b 9 w 6     t.yX8Xn.F.!.0 i cXcXcXcXcXcXcXcXcXcXcXcXcXcXcXcXcXcXcXcXcXcXcXcXcX",
"cXcXcXcXcXcXcXcXcXcXcXcX,.D  Xc. .< A { 4 [ | e # X   I 6X-X%./.W.W _ cXcXcXcXcXcXcXcXcXcXcXcXcXcXcXcXcXcXcXcXcXcXcXcXcX",
"cXcXcXcXcXcXcXcXcXcXcXC G v.c.[ 3 &XC.G.^ $ O M { 6 X t.iX>XE.^.P.Q.Q u cXcXcXcXcXcXcXcXcXcXcXcXcXcXcXcXcXcXcXcXcXcXcXcX",
"cXcXcXcXcXcXcXcXcXcXZ s.V.d.> G.{ K.Y.{ $   m L.W.( @ I 9X<X%.@./.Q.~ 8 cXcXcXcXcXcXcXcXcXcXcXcXcXcXcXcXcXcXcXcXcXcXcXcX",
"cXcXcXcXcXcXcXcXcXcXO g.N.G ^ F.w 9 4 6 w X b.%XOXH.P =XtX9Xm.%.#.!.( & >.7.cXcXcXcXcXcXcXcXcXcXcXcXcXcXcXcXcXcXcXcXcXcX",
"cXcXcXcXcXcXcXcXcXcXO S.(.D.w q q q q e q X t.rXqXM.-X6X0X8Xn.F.#.( 6 o 3 s E cXcXcXcXcXcXcXcXcXcXcXcXcXcXcXcXcXcXcXcXcX",
"cXcXcXcXcXcXcXcXcXcX`  .Z.N # 1 W ^ ^ ) a o f 5XtX4X4X4X6X-X..Q.!.w   1 O.a.d p cXcXcXcXcXcXcXcXcXcXcXcXcXcXcXcXcXcXcXcX",
"cXcXcXcXcXcXcXcXcXcXcX:.O 6 o.^ r 8 * <.cX:.o J *X*XtXuXuX0X-X..=.R 3 } ^.e h E i cXcXcXcXcXcXcXcXcXcXcXcXcXcXcXcXcXcXcX",
"cXcXcXcXcXcXcXcXcXcXcXcX;.  # 8 cXcXcXcXcXcX;.o - , :X4X4X4X3X-X..O.} ^.!.4 h E y cXcXcXcXcXcXcXcXcXcXcXcXcXcXcXcXcXcXcX",
"cXcXcXcXcXcXcXcXcXcXcXcXcXcXcXcXcXcXcXcXcXcXcX<.  + =XyXtX7X;Xn.-.&.@.R.@.T f j kXcXcXcXcXcXcXcXcXcXcXcXcXcXcXcXcXcXcXcX",
"cXcXcXcXcXcXcXcXcXcXcXcXcXcXcXcXcXcXcXcXcXcXcXkX  + =XyX7X8Xn.+.#.T.&.+.'.P Y kXcXcXcXcXcXcXcXcXcXcXcXcXcXcXcXcXcXcXcXcX",
"cXcXcXcXcXcXcXcXcXcXcXcXcXcXcXcXcXcXcXcXcXcXcX0.@ = i.4X4X,X] @.^.^.#.+.I , w.cXcXcXcXcXcXcXcXcXcXcXcXcXcXcXcXcXcXcXcXcX",
"cXcXcXcXcXcXcXcXcXcXcXcXcXcXcXcXcXcXcXcXcXcX8.e ^ * r.7XtXy.: S..X.X/.O.7   q.cXcXcXcXcXcXcXcXcXcXcXcXcXcXcXcXcXcXcXcXcX",
"cXcXcXcXcXcXcXcXcXcXcXcXcXcXcXcXcXcXcXcXcXcX8.5 &.^ : r.6Xy.O S.OXOXL.@.o.% q.cXcXcXfXy a :.cXcXcXcXcXcXcXcXcXcXcXcXcXcX",
"cXcXcXcXcXcXcXcXcXcXcXcXcXcXcXcXcXcXcXcXcXhXX.Z.Q.O.@ K y.< ! L..X).T.@.Q.} _ jXcXw._ R w R <.8.cXcXcXcXcXcXcXcXcXcXcXcX",
"cXcXcXcXcXcXcXcXcXcXcXcXcXcXcXcXcXcXcXcXjXr Z.oXL.w   r.K # R.OX.XZ.W Q././.b i cXkX' M ~ O.w   q.cXcXcXcXcXcXcXcXcXcXcX",
"cXcXcXcXcXcXcXcXcXcXcXcXcXcXcXcXcXcXcXcX*  .#X#XZ..   J J 9 I.@XI.m 9 P.XXP.F u cXcX;.  & @.*.5 <.cXcXcXcXcXcXcXcXcXcXcX",
"cXcXcXcXcXcXcXcXcXcXcXcXcXcXcXcXcXcXcXcXt Y.OXQ.Q .   o t E.@XXXb 6 $.L.@XXX^.( 8 * o   > L.#.6   q.cXcXcXcXcXcXcXcXcXcX",
"cXcXcXcXcXcXcXcXcXcXcXcXcXcXcXcXcXcXcXS G.I.Q.Q X       A +X.XR.5 6 *.T.).@XOXW.Q X   5 | L.T.6   8.cXcXcXcXcXcXcXcXcXcX",
"cXcXcXcXcXcXcXcXcXcXcXcXcXcXcXcXcXcX6.2.N }.X.X       b H.XXR.e 1 ! *.*.T.).@X+X`.Z.G D./.!.*.r   8.cXcXcXcXcXcXcXcXcXcX",
"cXcXcXcXcXcXcXcXcXcXcXcXcXcXcXcXcXcXcXcXhXcXxXq.<.o Z B J.~.e :.8 # q W / $.L.|.|.P.L.G.R.( e   * cXcXcXcXcXcXcXcXcXcXcX",
"cXcXcXcXcXcXcXcXcXcXcXcXcXcXcXcXcXcXcXcXcXcXcXcXcXhXcXkXxXcXpXcXcX8.q.fXsXsXgXgXgXgXdXsXsXsX0.8.cXcXcXcXcXcXcXcXcXcXcXcX",
"cXcXcXcXcXcXcXcXcXcXcXcXcXcXcXcXcXcXcXcXcXcXcXcXcXcXcXcXcXcXcXcXcXcXcXcXcXcXcXcXcXcXcXcXcXcXcXcXcXcXcXcXcXcXcXcXcXcXcXcX",
"cXcXcXcXcXcXcXcXcXcXcXcXcXcXcXcXcXcXcXcXcXcXcXcXcXcXcXcXcXcXcXcXcXcXcXcXcXcXcXcXcXcXcXcXcXcXcXcXcXcXcXcXcXcXcXcXcXcXcXcX",
"cXcXcXcXcXcXcXcXcXcXcXcXcXcXcXcXcXcXcXcXcXcXcXcXcXcXcXcXcXcXcXcXcXcXcXcXcXcXcXcXcXcXcXcXcXcXcXcXcXcXcXcXcXcXcXcXcXcXcXcX",
"cXcXcXcXcXcXcXcXcXcXcXcXcXcXcXcXcXcXcXcXcXcXcXcXcXcXcXcXcXcXcXcXcXcXcXcXcXcXcXcXcXcXcXcXcXcXcXcXcXcXcXcXcXcXcXcXcXcXcXcX",
"cXcXcXcXcXcXcXcXcXcXcXcXcXcXcXcXcXcXcXcXcXcXcXcXcXcXcXcXcXcXcXcXcXcXcXcXcXcXcXcXcXcXcXcXcXcXcXcXcXcXcXcXcXcXcXcXcXcXcXcX",
"cXcXcXcXcXcXcXcXcXcXcXcXcXcXcXcXcXcXcXcXcXcXcXcXcXcXcXcXcXcXcXcXcXcXcXcXcXcXcXcXcXcXcXcXcXcXcXcXcXcXcXcXcXcXcXcXcXcXcXcX",
"cXcXcXcXcXcXcXcXcXcXcXcXcXcXcXcXcXcXcXcXcXcXcXcXcXcXcXcXcXcXcXcXcXcXcXcXcXcXcXcXcXcXcXcXcXcXcXcXcXcXcXcXcXcXcXcXcXcXcXcX",
"cXcXcXcXcXcXcXcXcXcXcXcXcXcXcXcXcXcXcXcXcXcXcXcXcXcXcXcXcXcXcXcXcXcXcXcXcXcXcXcXcXcXcXcXcXcXcXcXcXcXcXcXcXcXcXcXcXcXcXcX",
"cXcXcXcXcXcXcXcXcXcXcXcXcXcXcXcXcXcXcXcXcXcXcXcXcXcXcXcXcXcXcXcXcXcXcXcXcXcXcXcXcXcXcXcXcXcXcXcXcXcXcXcXcXcXcXcXcXcXcXcX",
"cXcXcXcXcXcXcXcXcXcXcXcXcXcXcXcXcXcXcXcXcXcXcXcXcXcXcXcXcXcXcXcXcXcXcXcXcXcXcXcXcXcXcXcXcXcXcXcXcXcXcXcXcXcXcXcXcXcXcXcX"
};
