/* XPM */
static char *result[] = {
/* columns rows colors chars-per-pixel */
"60 60 232 2 ",
"   c #010102",
".  c #020A05",
"X  c #020C0C",
"o  c #0A090A",
"O  c #000409",
"+  c #180D00",
"@  c #01140C",
"#  c #1B1904",
"$  c #011313",
"%  c #001911",
"&  c #011C1C",
"*  c #091816",
"=  c #131818",
"-  c #030F10",
";  c #341E00",
":  c #182008",
">  c #053E09",
",  c #052C1D",
"<  c #023816",
"1  c #082D00",
"2  c #262619",
"3  c #29351C",
"4  c #343917",
"5  c #222701",
"6  c #022424",
"7  c #00262B",
"8  c #012B2D",
"9  c #042E26",
"0  c #033828",
"q  c #002E32",
"w  c #002E3A",
"e  c #013435",
"r  c #013439",
"t  c #033B3B",
"y  c #083A38",
"u  c #163839",
"i  c #1C3024",
"p  c #252525",
"a  c #2B2C2C",
"s  c #2F393B",
"d  c #3D3B3C",
"f  c #302E2F",
"g  c #463905",
"h  c #402E02",
"j  c #493F20",
"k  c #0A4402",
"l  c #145B05",
"z  c #084618",
"x  c #0D5813",
"c  c #324A0C",
"v  c #1A7507",
"b  c #157313",
"n  c #116200",
"m  c #267211",
"M  c #034522",
"N  c #014C2D",
"B  c #014A26",
"V  c #174926",
"C  c #04522C",
"Z  c #055C2D",
"A  c #054B32",
"S  c #054336",
"D  c #1A4635",
"F  c #095B36",
"G  c #165C33",
"H  c #36483F",
"J  c #2F4A2F",
"K  c #076435",
"L  c #0C763D",
"P  c #0D6C34",
"I  c #357323",
"U  c #4D4401",
"Y  c #544300",
"T  c #4C4D17",
"R  c #664C04",
"E  c #6C5704",
"W  c #755805",
"Q  c #6B5714",
"!  c #765E15",
"~  c #786905",
"^  c #7B7703",
"/  c #77711A",
"(  c #46742F",
")  c #0A3D41",
"_  c #034443",
"`  c #024549",
"'  c #044C4B",
"]  c #084745",
"[  c #174849",
"{  c #045349",
"}  c #064F50",
"|  c #045354",
" . c #045B55",
".. c #065D5D",
"X. c #085958",
"o. c #105D5D",
"O. c #2D4848",
"+. c #394846",
"@. c #315D47",
"#. c #006648",
"$. c #186A47",
"%. c #067A4A",
"&. c #06645B",
"*. c #046C5C",
"=. c #046A55",
"-. c #06775A",
";. c #1F765F",
":. c #316C51",
">. c #035E62",
",. c #046464",
"<. c #056B6A",
"1. c #076764",
"2. c #057868",
"3. c #077675",
"4. c #137A75",
"5. c #0D706C",
"6. c #207661",
"7. c #484746",
"8. c #56584E",
"9. c #475856",
"0. c #5B5656",
"q. c #5B5959",
"w. c #575656",
"e. c #415041",
"r. c #625F5F",
"t. c #4F6C44",
"y. c #5E6B5C",
"u. c #50714C",
"i. c #625B62",
"p. c #546965",
"a. c #636C6D",
"s. c #676667",
"d. c #6B7865",
"f. c #6C7B73",
"g. c #757273",
"h. c #787578",
"j. c #76716D",
"k. c #6E6756",
"l. c #886608",
"z. c #98770A",
"x. c #92780F",
"c. c #A27D0C",
"v. c #1C8612",
"b. c #1E9711",
"n. c #228607",
"m. c #259913",
"M. c #229010",
"N. c #28B016",
"B. c #0C863D",
"V. c #158A2F",
"C. c #1DB535",
"Z. c #1DAA35",
"A. c #23BB3B",
"S. c #22B529",
"D. c #6D8A13",
"F. c #6C972E",
"G. c #5B9332",
"H. c #31D119",
"J. c #36E41B",
"K. c #27C829",
"L. c #24C639",
"P. c #7BDA3C",
"I. c #07884A",
"U. c #04984E",
"Y. c #0A8657",
"T. c #099656",
"R. c #159A5B",
"E. c #158952",
"W. c #15A446",
"Q. c #06A75A",
"!. c #16A657",
"~. c #07B65D",
"^. c #13B755",
"/. c #1CB14C",
"(. c #2EBA53",
"). c #058668",
"_. c #079766",
"`. c #128573",
"'. c #048B73",
"]. c #279667",
"[. c #07A668",
"{. c #07B763",
"}. c #15B866",
"|. c #2BB06B",
" X c #2F9247",
".X c #578249",
"XX c #4B8253",
"oX c #649245",
"OX c #768672",
"+X c #08C25F",
"@X c #2AC05C",
"#X c #15C564",
"$X c #29CC66",
"%X c #2ED566",
"&X c #37D467",
"*X c #39D070",
"=X c #5FD959",
"-X c #45D967",
";X c #A9880A",
":X c #BD9A09",
">X c #A6961C",
",X c #BA9614",
"<X c #B38910",
"1X c #BCA609",
"2X c #B8A419",
"3X c #969829",
"4X c #96A82D",
"5X c #9CB122",
"6X c #B6B922",
"7X c #C3990D",
"8X c #C39110",
"9X c #CBA30C",
"0X c #C2A604",
"qX c #D4AA08",
"wX c #D6B30C",
"eX c #D7B608",
"rX c #E6BA0B",
"tX c #BCD51A",
"yX c #93E02F",
"uX c #92D228",
"iX c #D5CF11",
"pX c #E6C804",
"aX c #EDD504",
"sX c #F5D801",
"dX c #817E81",
"fX c #7F8482",
"gX c #888887",
"hX c #949695",
"jX c #8FAB8F",
"kX c #AAAAA9",
"lX c #B2B0B2",
"zX c None",
/* pixels */
"zXzXzXzXzXzXzXzXzXzXzXzXzXzXzXzXzXzXzXzXzXzXzXzXzXzXzXzXzXzXzXzXzXzXzXzXzXzXzXzXzXzXzXzXzXzXzXzXzXzXzXzXzXzXzXzXzXzXzXzX",
"zXzXzXzXzXzXzXzXzXzXzXzXzXzXzXzXzXzXzXzXzXzXzXzXzXzXzXzXzXzXzXzXzXzXzXzXzXzXzXzXzXzXzXzXzXzXzXzXzXzXzXzXzXzXzXzXzXzXzXzX",
"zXzXzXzXzXzXzXzXzXzXzXzXzXzXzXzXzXzXzXzXzXzXzXzXzXzXzXzXzXzXzXzXzXzXzXzXzXzXzXzXzXzXzXzXzXzXzXzXzXzXzXzXzXzXzXzXzXzXzXzX",
"zXzXzXzXzXzXzXzXzXzXzXzXzXzXzXzXzXzXzXzXzXzXzXzXzXzXzXzXzXzXzXzXzXzXzXzXzXzXzXzXzXzXzXzXzXzXzXzXzXzXzXzXzXzXzXzXzXzXzXzX",
"zXzXzXzXzXzXzXzXzXzXzXzXzXzXzXzXzXzXzXzXzXzXzXzXzXzXzXzXzXzXzXzXzXzXzXzXzXzXzXzXzXzXzXzXzXzXzXzXzXzXzXzXzXzXzXzXzXzXzXzX",
"zXzXzXzXzXzXzXzXzXzXzXzXzXzXzXzXzXzXzXzXzXzXzXzXzXzXzXzXzXzXzXzXzXzXzXzXzXzXzXzXzXzXzXzXzXzXzXzXzXzXzXzXzXzXzXzXzXzXzXzX",
"zXzXzXzXzXzXzXzXzXzXzXzXzXzXzXzXzXzXzXzXzXzXzXzXzXzXzXzXzXzXzXzXzXzXzXzXzXzXzXzXzXzXzXzXzXzXzXzXzXzXzXzXzXzXzXzXzXzXzXzX",
"zXzXzXzXzXzXzXzXzXzXzXzXzXzXzXzXzXzXzXzXzXzXzXzXzXzXzXzXzXzXzXzXzXzXzXzXzXzXzXzXzXzXzXzXzXzXzXzXzXzXzXzXzXzXzXzXzXzXzXzX",
"zXzXzXzXzXzXzXzXzXzXzXzXzXzXzXzXzXzXzXzXzXzXzXzXzXzXzXzXzXzXzXzXzXzXzXzXzXzXzXzXzXzXzXzXzXzXzXzXzXzXzXzXzXzXzXzXzXzXzXzX",
"zXzXzXzXzXzXzXzXzXzXzXzXzXzXzXzXzXzXzXzXzXzXzXzXzXzXzXzXzXzXzXzXzXzXzXzXzXzXzXzXzXzXzXzXzXzXzXzXzXzXzXzXzXzXzXzXzXzXzXzX",
"zXzXzXzXzXzXzXzXzXzXzXzXzXzXzXzXzXzXzXzXzXzXzXzXzXzXzXzXzXzXzXzXzXzXzXzXzXzXzXzXzXzXzXzXzXzXzXzXzXzXzXzXzXzXzXzXzXzXzXzX",
"zXzXzXzXzXzXzXzXzXzXzXzXzXzXzXzXzXzXzXzXzXzXzXzXzXzXzXzXd.v y.zXzXzXG zXzXzXzXzXzXzXzXzXzXzXzXzXzXzXzXzXzXzXzXzXzXzXzXzX",
"zXzXzXzXzXzXzXzXzXzXzXzXzXzXzXzXzXzXzXzXzXzXzXzXzXzXzXOXl n.z > k M L @.zXzXzXzXzXzXzXzXzXzXzXzXzXzXzXzXzXzXzXzXzXzXzXzX",
"zXzXzXzXzXzXzXzXzXzXzXzXzXzXzXzXzXzXzXzXzXzXzXzXzXzXp.l N.< %.L.K.L = zXzXzXzXzXzXzXzXzXzXzXzXzXzXzXzXzXzXzXzXzXzXzXzXzX",
"zXzXzXzXzXzXzXzXzXzXzXzXzXzXzXzXzXzXzXzXzXzXzXzXzXq.K !.!.&.5.R.L % * zXzXzXzXzXzXzXzXzXzXzXzXzXzXzXzXzXzXzXzXzXzXzXzXzX",
"zXzXzXzXzXzXzXzXzXzXzXzXzXzXzXzXzXzXzXzXzXzXzXzXq.K C.C.1.q | _ z %.| O.zXzXzXzXzXzXzXzXzXzXzXzXzXzXzXzXzXzXzXzXzXzXzXzX",
"zXzXzXzXzXzXzXzXzXzXzXzXzXzXzXzXzXzXzXzXzXzXzXa.K C.@XP 3 ^  X=.A C y   zXzXzXzXzXzXzXzXzXzXzXzXzXzXzXzXzXzXzXzXzXzXzXzX",
"zXzXzXzXzXzXzXzXzXzXzXzXzXzXzXzXzXzXzXzXzXzXd.l A.m.V...V uX(.-.7     & p.zXzXzXzXzXzXzXzXzXzXzXzXzXzXzXzXzXzXzXzXzXzXzX",
"zXzXzXzXzXzXzXzXzXzXzXzXzXzXzXzXzXzXzXzXzXzXk H.H.> { T.&.I.=.e O   $ | q q.zXzXzXzXzXzXzXzXzXzXzXzXzXzXzXzXzXzXzXzXzXzX",
"zXzXzXzXzXzXzXzXzXzXzXzXzXzXzXzXzXzXzXzXzXg.< ^.^.=.1.{ $ % $ t t * X.3.8 0.zXzXzXzXzXzXzXzXzXzXzXzXzXzXzXzXzXzXzXzXzXzX",
"zXzXzXzXzXzXzXzXzXzXzXzXzXzXzXzXzXzXzXzXzXg.< }.Q.A $ 8 | | | r 4 / !.'.7 0.zXzXzXzXzXzXzXzXzXzXzXzXzXzXzXzXzXzXzXzXzXzX",
"zXzXzXzXzXzXzXzXzXzXzXzXzXzXzXzXzXzXzXzXzXzXp.N C S t e q 8 t 4 l.>XR.3.7 w.zXzXzXzXzXzXzXzXzXzXzXzXzXzXzXzXzXzXzXzXzXzX",
"zXzXzXzXzXzXzXzXzXzXzXzXzXzXzXzXzXzXzXzXzXzXzX7.o 8 ` [ 0.0.= W rX2X;.| O.zXzXzXzXzXzXzXzXzXzXzXzXzXzXzXzXzXzXzXzXzXzXzX",
"zXzXzXzXzXzXzXzXzXzXzXzXzXzXzXzXzXzXzXzXzXzXzXzX7.p p g.zXzXs ~ aX6X;.$ gXzXzXzXzXzXzXzXzXzXzXzXzXzXzXzXzXzXzXzXzXzXzXzX",
"zXzXzXzXzXzXzXzXzXzXzXzXzXzXzXzXzXzXzXzXzXzXzXzXzXzXzXzXzXd 6 / 3X6.1.& gXzXzXzXzXzXzXzXzXzXzXzXzXzXzXzXzXzXzXzXzXzXzXzX",
"zXzXzXzXzXzXzXzXzXzXzXzXzXzXzXzXzXzXi.zXzXzXzXs.zXzXzXzXzX2 ^ pX4X,.y hXdXdXzXzXzXzXdXzXzXzXzXzXzXzXzXzXzXzXzXzXzXzXzXzX",
"zXzXzXzXzXzXzXzXzXzXzXzXzXzXzXzXzXt.m d.h.h.9.P f.zXzXzXd.! 1XrX4XX.- q.( I h.h.h.:.$.gXzXzXzXzXzXzXzXzXzXzXzXzXzXzXzXzX",
"zXzXzXzXzXzXzXzXzXzXzXzXzXzXzXzXu.n n.z > > C K X g.zXzX# 7XeX>Xu.>.X 1 v v < k < F z = hXzXzXzXzXzXzXzXzXzXzXzXzXzXzXzX",
"zXzXzXzXzXzXzXzXzXzXzXzXzXzXzX+.v.M.9 T.K.C.F   $   h.hXh eXsXF.<.| , N.b 0 /.K.Z.0 . $ . X h.zXzXzXzXzXzXzXzXzXzXzXzXzX",
"zXzXzXzXzXzXzXzXzXzXzXzXzXzXH L ^.E...2.!.P X % ' * o T <X7X9XoX' , I.^.Y.>.).U.M . 6 ' $ ] y a.zXzXzXzXzXzXzXzXzXzXzXzX",
"zXzXzXzXzXzXzXzXzXzXzXzXzX+.L S./.} 7 >.0 C %.' 6 O   U aXpXoXD 0 I.K.R.` r o.0 P =.) 6 | _.-.) r.zXzXzXzXzXzXzXzXzXzXzX",
"zXzXzXzXzXzXzXzXzXzXzXzX9.P L.A.F T D.E.' S A e e & O U wXeXJ r V.L.Z.A T D.).S N S e _ 5.)._.-.y h.zXzXzXzXzXzXzXzXzXzX",
"zXzXzXzXzXzXzXzXzXzXzXt.b L.b.I.' ( yX!. .* X B 2. .& g 0Xl.c b.C.v.Y.) F.P.Y.' X X e ` ` >.).`...- zXzXzXzXzXzXzXzXzXzX",
"zXzXzXzXzXzXzXzXzXzXq.n J.N.< %.2.=.I. .7   z (.~._.y E 0X5 b.J.v.< T.1.%.Y.} &   e D # # X.3.<.| s zXzXzXzXzXzXzXzXzXzX",
"zXzXzXzXzXzXzXzXzXzXq.z ^.!.&.1.t % % % ' 7 U tX=X^.G.8X;X# B.+XT...,.9 $ @ , ' * . U c.;X:.3.` s zXzXzXzXzXzXzXzXzXzXzX",
"zXzXzXzXzXzXzXzXzXzXw.B #XT.9 * y | | } 9   g wXiX5X>XeX0X: %.}.%.& & _ | | ` , Q ;X1X>XXX4._ +.zXzXzXzXzXzXzXzXzXzXzXzX",
"zXzXzXzXzXzXzXzXzXzXzX@.N C y t r e q e a.zXk.E qXqX8X9X9XE V N A t r r r w u ~ :XrX6Xu.r 7 9.zXzXzXzXzXzXzXzXzXzXzXzXzX",
"zXzXzXzXzXzXzXzXzXzXzXzXa O t ` O.0.w.r.zXzXzX0.! ~ ;XwXwXwXE + $ ` ` 4 Y U R eXz.W T ] 9.w.zXzXzXzXzXzXzXzXzXzXzXzXzXzX",
"zXzXzXzXzXzXzXzXzXzXzXzXzXa a p zXzXzXzXzXzXzXzXp   ~ sXaXaX2XT - % * / 0X1Xc.z.j a p 7.zXzXzXzXzXzXzXzXzXzXzXzXzXzXzXzX",
"zXzXzXzXzXzXzXzXzXzXzXzXzXzXzXzXzXzXzXzXzXzXzXzXp   E 9X7X7Xu.1.-.U.*.6.D # # 2 kXzXzXzXzXzXzXzXzXzXzXzXzXzXzXzXzXzXzXzX",
"zXzXzXzXzXzXzXzXzXzXzXzXzXzXzXzXzXzXzXzXzXzXzX+.[ - R wXpX,X3 K {.~.[.2.>.q = kXzXzXzXzXzXzXzXzXzXzXzXzXzXzXzXzXzXzXzXzX",
"zXzXzXzXzXzXzXzXzXzXzXzXzXzXzXzXzXzXzXzXzXzXzXX >.} 3 l.wX:X; Z #X#X{.).3._ a zXzXzXzXh.h.j.zXzXzXzXzXzXzXzXzXzXzXzXzXzX",
"zXzXzXzXzXzXzXzXzXzXzXzXzXzXzXzXzXzXzXzXzXzXf.C 2.'.w h <X~ i #.#X%X[.2.3.=.u hXzXzXa.6 6 & p.zXzXzXzXzXzXzXzXzXzXzXzXzX",
"zXzXzXzXzXzXzXzXzXzXzXzXzXzXzXzXzXzXzXzXzXa.B ~.~.2.7 g c.# } [.~.~.*.<._.[.=.= zXzXu o.>.1._ O a zXzXzXzXzXzXzXzXzXzXzX",
"zXzXzXzXzXzXzXzXzXzXzXzXzXzXzXzXzXzXzXzXq.y ].&XQ.0   g z.# %.%X%XU.9 I.{.{.U., lXzXgXX $  .<.e p zXzXzXzXzXzXzXzXzXzXzX",
"zXzXzXzXzXzXzXzXzXzXzXzXzXzXzXzXzXzXzXzXd G *X}.).&   + 4 } |.%XI.< ' Q.$X$XQ. .O.7.f     %.'.` o 7.zXzXzXzXzXzXzXzXzXzX",
"zXzXzXzXzXzXzXzXzXzXzXzXzXzXzXzXzXzXzXgXG !.}.).t X     $ ].$X}.{ - ,.).}.$X$X_._ X   O t U.[.`   . zXzXzXzXzXzXzXzXzXzX",
"zXzXzXzXzXzXzXzXzXzXzXzXzXzXzXzXzXzXzXe.K !.].e       . K (.{.*.8 6 ,.3.).}.*X#X|.$.z C )._.'.'   o zXzXzXzXzXzXzXzXzXzX",
"zXzXzXzXzXzXzXzXzXzXzXzXzXzXzXzXzXzX7.zX8.OXjXa a o o V U.}.-.u , 7 | ,.,.).{.&X-X#X~.Q.[.2.,.r   a zXzXzXzXzXzXzXzXzXzX",
"zXzXzXzXzXzXzXzXzXzXzXzXzXzXzXzXzXzXzXzXzXzXzXzXzXd y.OXD jX+.y.f.= * u o.4.`.}.#X#X[.4.`.4.[ X f zXzXzXzXzXzXzXzXzXzXzX",
"zXzXzXzXzXzXzXzXzXzXzXzXzXzXzXzXzXzXzXzXzXzXzXzXzXzXzXzXzXzXzXzXzXzXzXzXzXzXzXzXzXzXzXzXzXzXzXzXzXzXzXzXzXzXzXzXzXzXzXzX",
"zXzXzXzXzXzXzXzXzXzXzXzXzXzXzXzXzXzXzXzXzXzXzXzXzXzXzXzXzXzXzXzXzXzXzXzXzXzXzXzXzXzXzXzXzXzXzXzXzXzXzXzXzXzXzXzXzXzXzXzX",
"zXzXzXzXzXzXzXzXzXzXzXzXzXzXzXzXzXzXzXzXzXzXzXzXzXzXzXzXzXzXzXzXzXzXzXzXzXzXzXzXzXzXzXzXzXzXzXzXzXzXzXzXzXzXzXzXzXzXzXzX",
"zXzXzXzXzXzXzXzXzXzXzXzXzXzXzXzXzXzXzXzXzXzXzXzXzXzXzXzXzXzXzXzXzXzXzXzXzXzXzXzXzXzXzXzXzXzXzXzXzXzXzXzXzXzXzXzXzXzXzXzX",
"zXzXzXzXzXzXzXzXzXzXzXzXzXzXzXzXzXzXzXzXzXzXzXzXzXzXzXzXzXzXzXzXzXzXzXzXzXzXzXzXzXzXzXzXzXzXzXzXzXzXzXzXzXzXzXzXzXzXzXzX",
"zXzXzXzXzXzXzXzXzXzXzXzXzXzXzXzXzXzXzXzXzXzXzXzXzXzXzXzXzXzXzXzXzXzXzXzXzXzXzXzXzXzXzXzXzXzXzXzXzXzXzXzXzXzXzXzXzXzXzXzX",
"zXzXzXzXzXzXzXzXzXzXzXzXzXzXzXzXzXzXzXzXzXzXzXzXzXzXzXzXzXzXzXzXzXzXzXzXzXzXzXzXzXzXzXzXzXzXzXzXzXzXzXzXzXzXzXzXzXzXzXzX",
"zXzXzXzXzXzXzXzXzXzXzXzXzXzXzXzXzXzXzXzXzXzXzXzXzXzXzXzXzXzXzXzXzXzXzXzXzXzXzXzXzXzXzXzXzXzXzXzXzXzXzXzXzXzXzXzXzXzXzXzX",
"zXzXzXzXzXzXzXzXzXzXzXzXzXzXzXzXzXzXzXzXzXzXzXzXzXzXzXzXzXzXzXzXzXzXzXzXzXzXzXzXzXzXzXzXzXzXzXzXzXzXzXzXzXzXzXzXzXzXzXzX",
"zXzXzXzXzXzXzXzXzXzXzXzXzXzXzXzXzXzXzXzXzXzXzXzXzXzXzXzXzXzXzXzXzXzXzXzXzXzXzXzXzXzXzXzXzXzXzXzXzXzXzXzXzXzXzXzXzXzXzXzX"
};
