/* XPM */
static char *_06a8a25af3f4b68bc5d7aebf94b090dUMDufGozOhCV8izc[] = {
/* columns rows colors chars-per-pixel */
"60 60 235 2 ",
"   c None",
".  c #010202",
"X  c #010B0C",
"o  c #060A07",
"O  c #160D01",
"+  c #00120A",
"@  c #041A0C",
"#  c #131603",
"$  c #000F12",
"%  c #000E19",
"&  c #011413",
"*  c #011C1C",
"=  c #061816",
"-  c #161415",
";  c #1B1B1A",
":  c #141A16",
">  c #291900",
",  c #132308",
"<  c #032516",
"1  c #142519",
"2  c #033C1D",
"3  c #06341C",
"4  c #0A2100",
"5  c #2A2406",
"6  c #2A3B19",
"7  c #2E3212",
"8  c #001D22",
"9  c #261F25",
"0  c #012324",
"q  c #00272A",
"w  c #012B2C",
"e  c #022B22",
"r  c #1A2725",
"t  c #033423",
"y  c #02372A",
"u  c #173628",
"i  c #012E31",
"p  c #002531",
"a  c #013333",
"s  c #023B3C",
"d  c #093838",
"f  c #153A35",
"g  c #31302F",
"h  c #362F31",
"j  c #243A34",
"k  c #353535",
"l  c #3C3A3A",
"z  c #27302C",
"x  c #4A3E0D",
"c  c #533D05",
"v  c #403F3F",
"b  c #0D5604",
"n  c #034D19",
"m  c #075318",
"M  c #114D0F",
"N  c #285B00",
"B  c #186B00",
"V  c #1B790A",
"C  c #157015",
"Z  c #044728",
"A  c #035429",
"S  c #034433",
"D  c #04423E",
"F  c #044C38",
"G  c #055F32",
"H  c #045E3A",
"J  c #17582A",
"K  c #2C492F",
"L  c #04662F",
"P  c #026234",
"I  c #066837",
"U  c #077839",
"Y  c #136838",
"T  c #3E6B2F",
"R  c #35742F",
"E  c #2A7D13",
"W  c #584603",
"Q  c #454A17",
"!  c #53530D",
"~  c #685707",
"^  c #765A06",
"/  c #675109",
"(  c #5F661D",
")  c #7D620B",
"_  c #666506",
"`  c #47402F",
"'  c #7B7727",
"]  c #043E43",
"[  c #1E3F43",
"{  c #034344",
"}  c #024B45",
"|  c #044C4C",
" . c #074849",
".. c #164041",
"X. c #01514C",
"o. c #005C4E",
"O. c #035C53",
"+. c #055B5C",
"@. c #055657",
"#. c #004F50",
"$. c #2A5847",
"%. c #03694A",
"&. c #04784C",
"*. c #137246",
"=. c #05635B",
"-. c #076657",
";. c #087B5A",
":. c #06765D",
">. c #136A5D",
",. c #37664B",
"<. c #2E7456",
"1. c #025C60",
"2. c #056364",
"3. c #056A6C",
"4. c #146761",
"5. c #05756A",
"6. c #047767",
"7. c #117169",
"8. c #0A7372",
"9. c #077774",
"0. c #147977",
"q. c #484847",
"w. c #534F49",
"e. c #455556",
"r. c #595A59",
"t. c #445A46",
"y. c #625F5F",
"u. c #536A49",
"i. c #5D615A",
"p. c #4B6A50",
"a. c #686454",
"s. c #635D63",
"d. c #586666",
"f. c #686868",
"g. c #736E6E",
"h. c #6D7B69",
"j. c #6E7473",
"k. c #777677",
"l. c #706E70",
"z. c #846808",
"x. c #8A7702",
"c. c #9B770A",
"v. c #8B7E14",
"b. c #A27307",
"n. c #189216",
"m. c #1E841B",
"M. c #2C8015",
"N. c #208708",
"B. c #24A81A",
"V. c #29BC1C",
"C. c #159039",
"Z. c #18A83B",
"A. c #1DA523",
"S. c #23BB2C",
"D. c #24BB39",
"F. c #4B842B",
"G. c #74952A",
"H. c #62A12C",
"J. c #31DE1E",
"K. c #34E41F",
"L. c #29CB25",
"P. c #25C934",
"I. c #2BD42D",
"U. c #7DD93A",
"Y. c #0E8C42",
"T. c #05884B",
"R. c #169541",
"E. c #098758",
"W. c #099856",
"Q. c #109F56",
"!. c #129152",
"~. c #1CA749",
"^. c #06A65B",
"/. c #11AE54",
"(. c #01B25E",
"). c #12B759",
"_. c #1FB542",
"`. c #2BAF53",
"'. c #058567",
"]. c #079767",
"[. c #149460",
"{. c #088B72",
"}. c #138B6A",
"|. c #2B9362",
" X c #05A766",
".X c #03BB62",
"XX c #0FBC66",
"oX c #0CB362",
"OX c #14B666",
"+X c #1FAD68",
"@X c #2EAB6C",
"#X c #28994E",
"$X c #558A4A",
"%X c #6D9F43",
"&X c #49BF44",
"*X c #29C658",
"=X c #15C764",
"-X c #0AC560",
";X c #28C965",
":X c #2CD266",
">X c #34D368",
",X c #39C267",
"<X c #5FCF4A",
"1X c #61D757",
"2X c #40D966",
"3X c #898705",
"4X c #819B10",
"5X c #B28A0D",
"6X c #AA9506",
"7X c #B89A05",
"8X c #B39616",
"9X c #AD8D11",
"0X c #B8A306",
"qX c #ACA91B",
"wX c #908F28",
"eX c #A89721",
"rX c #8DAE34",
"tX c #A6A82B",
"yX c #C69D0C",
"uX c #CB980F",
"iX c #C9A609",
"pX c #D1AB07",
"aX c #DBB60B",
"sX c #DAB808",
"dX c #E1B80A",
"fX c #D9C407",
"gX c #CDD815",
"hX c #E7C805",
"jX c #F4D702",
"kX c #E8D306",
"lX c #949292",
"zX c #8B8B8C",
"xX c #A09C9A",
"cX c #A9ABAB",
"vX c #91AF90",
/* pixels */
"                                                                                                                        ",
"                                                                                                                        ",
"                                                                                                                        ",
"                                                                                                                        ",
"                                                                                                                        ",
"                                                                                                                        ",
"                                                                                                                        ",
"                                                                                                                        ",
"                                                                                                                        ",
"                                                                                                                        ",
"                                    q.        q.          q.                                                            ",
"                                  T M.i.s.s.,.Y j.      u.E u.s.s.p.                                                    ",
"                                T B V n b M I Z ;     u.B V n M b A Y                                                   ",
"                              f n.m.i Q.I.Z.Z . u   p.C B.y E.P.P.P 9                                                   ",
"                            K Y./.E.+.5.W.A X < | u Y ).W.=.3.W.L @ r                                                   ",
"                          j Y.L.~.{ w +.e P ;. .0 %.S._.+.q 1.d Z E.@.j                                                 ",
"                        $.U P.~.F ! G.!.X.S y a Y P.D.H 6 3X#X=.S Z w .                                                 ",
"                      T n.S.V E.#.F.U.!. .% 4 V S.N.C.O.K U.+X%.* . . 0 d.                                              ",
"                    - V K.B.t E.6.%.&.X.e o b K.V.3 %.'.O.&.O.w + . 8 2.q                                               ",
"                    ; L ).Q.=.4.a = = < | 0 Z )./.-.=.D & & & ] d 1 =.9.0                                               ",
"                    ; P XXT.* + s +.+.#.0 . S OXW.t $ i +.+.+.w Q wXW.5.0 g.                                            ",
"                      ,.Z Z { { a e w w 8 x N Z Z D { s w q w Q b.eX}.5.0 l.                                            ",
"                        h . a s e.k.w.O Q 8X7XW . i { * ; a.- z.hXqX4. .e.                                              ",
"                          k k k       w.z.iXjXiX5 < * . g cXr x.kXrX>.X xX                                              ",
"                                        q.^ 5X5X8XD.'.D o : u v.G.8.+.r lX                                              ",
"                                    y.    a.O W fXkX&X].{ # 6XkXrX@.z cXl.zX      k.                                    ",
"                                  T E r.f.9 < Y _ iXqXT u ) iXsXwX@.- w.R T s.s.s.,.Y                                   ",
"                                T B V m b m I Z o c ' 6 5 pXsXwX|.@.. M V C n b m I < ;                                 ",
"                              f n.m.i /.I.Z.Z . & . { { W fXjX$X3.{ 2 S.C F ).L.R.< X & . X                             ",
"                            K C./.E.+.5.!.A + < | $ ] $X7XyX0Xu.s t R./.:.2.'.T.2 X a  .* =.d j.                        ",
"                          j Y.L.~.{ q +.t G ;.| & . ] %XjXfX$Xd Z Z.L.[.i ] +.e *.:.a 0 O.[.6.d r.                      ",
"                        $.U P.~.D ! 4X!.X.S y i d 0 0 ( aX0XK D C.P.C.a _ H.E.} Z y a | 8.'.].:...f.                    ",
"                      T n.S.V E.X.F.U.[.| & @ P '.O.% W iX~ N A.B.V E.{ H.<X'.d . * s ] ] 2.'.{.@..                     ",
"                    - V K.B.t E.;.%.&.X.0 . J *X).].S x.0X, B.K.C y W.=.&.%.{ * . a f > 5 =.8.2. .q.                    ",
"                    ; L ).Q.=.2.a & = * | 8 ~ gX1X`.G.uXc., Y.).E.1.+.0 & @ 0 } : # / 5XwX4.3.] e.                      ",
"                    - I XXT.< $ ] +.+.| 0 . W aXgXqX8XdX7X, T.oXI $ * | +.+.| 1 ) 0XiXeX<.0.i d.                        ",
"                      ,.Z Z { { a w q d     a./ pXpXuXiXyX~ u n S { s i w q u 3XuXdXtX,.w 8 d.                          ",
"                        h . a d e.g.l.        a./ / 8XaXsXpX^ > % ] d x ^ ~ ) sX^ W 6 [ g.g.                            ",
"                          k l k                 - . x.jXkXhXeXK * < 1 ' 0X6Xc.z.` k k f.                                ",
"                                                ; . ) yXiX8X<.2.E.^.6.7.f # O k                                         ",
"                                              j  .% ^ dXhX5X1 &..X(. X9.2.q z                                           ",
"                                              $ 2.#.7 x.aX5X> I =X:X(.6.8.a l         y.f.r.                            ",
"                                            p.P '.9.p c 5X/ u &.=X;X].9.{.O.[ lX    e.i i w d.zX                        ",
"                                          e.P =XoX-.8 W c.+ =.OX-X^.O.3. X XO.;   lX..+.+.3.d . k                       ",
"                                        `  .@X>X^.< . c z.1 W.:X;X&.3 W..X-XT.u     j.. & =.9.i h                       ",
"                                        g Y ,XoX6.& . O ; -.,X:XU 3 O.^.:X;X XO.j k ; . + T.{.s o k                     ",
"                                      d.*./.OX6.w . . . : @X;X XS & 3.'.OX;X;X].} $ . X { ^.].s . o                     ",
"                                      t.P |.|.0 . . . @ U ;X Xo.0 w 3.9.'.OX>X;X@X*.Z P ].].{.{ . o                     ",
"                                    r.  r.    k k o - J W.+X>.f r w #.+.3.6.oX>X2X=X.X X X5.1.w o v                     ",
"                                                  k h.h.K vXj h.h.o : d 2.0.}.OXXX=X].0.0.0.f o v                       ",
"                                                                                                                        ",
"                                                                                                                        ",
"                                                                                                                        ",
"                                                                                                                        ",
"                                                                                                                        ",
"                                                                                                                        ",
"                                                                                                                        ",
"                                                                                                                        ",
"                                                                                                                        ",
"                                                                                                                        "
};
