/* XPM */
static char *result[] = {
/* columns rows colors chars-per-pixel */
"60 60 217 2 ",
"   c #010202",
".  c #000A0C",
"X  c #060808",
"o  c #120806",
"O  c #03170B",
"+  c #000E10",
"@  c #1A0416",
"#  c #011313",
"$  c #041A19",
"%  c #141413",
"&  c #171B1A",
"*  c #231700",
"=  c #062819",
"-  c #19261B",
";  c #043B1C",
":  c #113012",
">  c #242615",
",  c #2A3B1B",
"<  c #3E3813",
"1  c #001B22",
"2  c #261F23",
"3  c #002225",
"4  c #012B2B",
"5  c #012827",
"6  c #1D2524",
"7  c #1B2C2B",
"8  c #023322",
"9  c #19362C",
"0  c #012E31",
"q  c #023A3B",
"w  c #073736",
"e  c #153B3A",
"r  c #283737",
"t  c #353434",
"y  c #3C3B3A",
"u  c #362A2E",
"i  c #510D1D",
"p  c #422F00",
"a  c #483A06",
"s  c #573B09",
"d  c #4E3D11",
"f  c #5E1231",
"g  c #4A2539",
"h  c #43383B",
"j  c #55282E",
"k  c #0B5508",
"l  c #05521C",
"z  c #1A7707",
"x  c #146E0A",
"c  c #034725",
"v  c #01552A",
"b  c #024534",
"n  c #06443F",
"m  c #055E37",
"M  c #145834",
"N  c #2F5F30",
"B  c #2C5033",
"V  c #0B6C34",
"C  c #016436",
"Z  c #14633A",
"A  c #09783A",
"S  c #23723A",
"D  c #594604",
"F  c #424A16",
"G  c #655705",
"H  c #785A08",
"J  c #4E4A21",
"K  c #687E39",
"L  c #7D7C23",
"P  c #1F3F43",
"I  c #583E4E",
"U  c #732752",
"Y  c #054345",
"T  c #014B44",
"R  c #054D4E",
"E  c #1B4446",
"W  c #01584D",
"Q  c #004F51",
"!  c #025353",
"~  c #025D53",
"^  c #0A5B55",
"/  c #055B5B",
"(  c #045459",
")  c #3B4942",
"_  c #2E574B",
"`  c #026948",
"'  c #077646",
"]  c #137246",
"[  c #04625A",
"{  c #066557",
"}  c #0E6D5F",
"|  c #367A58",
" . c #2F7555",
".. c #025C60",
"X. c #056364",
"o. c #066C6B",
"O. c #086A66",
"+. c #047B6D",
"@. c #047568",
"#. c #187966",
"$. c #066D71",
"%. c #047571",
"&. c #037C73",
"*. c #057275",
"=. c #147977",
"-. c #116261",
";. c #2A7661",
":. c #464648",
">. c #465757",
",. c #575653",
"<. c #4F544B",
"1. c #615E5E",
"2. c #664A50",
"3. c #546B4A",
"4. c #4B7B4C",
"5. c #447B52",
"6. c #526852",
"7. c #79774C",
"8. c #625D62",
"9. c #695F66",
"0. c #546A63",
"q. c #626663",
"w. c #6E7C6A",
"e. c #677865",
"r. c #737575",
"t. c #7B7972",
"y. c #A91328",
"u. c #866C09",
"i. c #8A7503",
"p. c #987509",
"a. c #806411",
"s. c #A67505",
"d. c #827F79",
"f. c #26840E",
"g. c #29B61C",
"h. c #12823E",
"j. c #22BD2D",
"k. c #24BC39",
"l. c #758D3A",
"z. c #23C836",
"x. c #33E020",
"c. c #7ED235",
"v. c #00854A",
"b. c #098654",
"n. c #029352",
"m. c #0A9857",
"M. c #3B8250",
"N. c #328D4F",
"B. c #00A55C",
"V. c #07A559",
"C. c #01B45E",
"Z. c #02B95E",
"A. c #12B458",
"S. c #12AD53",
"D. c #2BB550",
"F. c #048766",
"G. c #039465",
"H. c #029864",
"J. c #059C6A",
"K. c #079669",
"L. c #068A71",
"P. c #138B72",
"I. c #2B9362",
"U. c #01A462",
"Y. c #0DAA6A",
"T. c #01A965",
"R. c #0CB463",
"E. c #06BA64",
"W. c #15B567",
"Q. c #1FAD68",
"!. c #2EAB6C",
"~. c #529D44",
"^. c #708740",
"/. c #22C15F",
"(. c #15C764",
"). c #0AC560",
"_. c #29CB65",
"`. c #27C965",
"'. c #2CD266",
"]. c #34D368",
"[. c #39C267",
"{. c #6CD04E",
"}. c #40D966",
"|. c #8A8806",
" X c #A68708",
".X c #B1880E",
"XX c #AA991E",
"oX c #B89A16",
"OX c #AF8D0F",
"+X c #BDA715",
"@X c #B2B818",
"#X c #998B25",
"$X c #84972B",
"%X c #A59623",
"&X c #CC9C0D",
"*X c #C2980B",
"=X c #CCA30C",
"-X c #C7AD07",
";X c #D5AA0A",
":X c #DAB60A",
">X c #DAB708",
",X c #CBB00F",
"<X c #E8BF08",
"1X c #80C12D",
"2X c #D4C70D",
"3X c #E2C706",
"4X c #E3CB05",
"5X c #EACF02",
"6X c #ECD202",
"7X c #F2D603",
"8X c #8D8989",
"9X c #91998A",
"0X c #999898",
"qX c #8F9494",
"wX c #AAAAA9",
"eX c #B2C1AA",
"rX c None",
/* pixels */
"rXrXrXrXrXrXrXrXrXrXrXrXrXrXrXrXrXrXrXrXrXrXrXrXrXrXrXrXrXrXrXrXrXrXrXrXrXrXrXrXrXrXrXrXrXrXrXrXrXrXrXrXrXrXrXrXrXrXrXrX",
"rXrXrXrXrXrXrXrXrXrXrXrXrXrXrXrXrXrXrXrXrXrXrXrXrXrXrXrXrXrXrXrXrXrXrXrXrXrXrXrXrXrXrXrXrXrXrXrXrXrXrXrXrXrXrXrXrXrXrXrX",
"rXrXrXrXrXrXrXrXrXrXrXrXrXrXrXrXrXrXrXrXrXrXrXrXrXrXrXrXrXrXrXrXrXrXrXrXrXrXrXrXrXrXrXrXrXrXrXrXrXrXrXrXrXrXrXrXrXrXrXrX",
"rXrXrXrXrXrXrXrXrXrXrXrXrXrXrXrXrXrXrXrXrXrXrXrXrXrXrXrXrXrXrXrXrXrXrXrXrXrXrXrXrXrXrXrXrXrXrXrXrXrXrXrXrXrXrXrXrXrXrXrX",
"rXrXrXrXrXrXrXrXrXrXrXrXrXrXrXrXrXrXrXrXrXrXrXrXrXrXrXrXrXrXrXrXrXrXrXrXrXrXrXrXrXrXrXrXrXrXrXrXrXrXrXrXrXrXrXrXrXrXrXrX",
"rXrXrXrXrXrXrXrXrXrXrXrXrXrXrXrXrXrXrXrXrXrXrXrXrXrXrXrXrXrXrXrXrXrXrXrXrXrXrXrXrXrXrXrXrXrXrXrXrXrXrXrXrXrXrXrXrXrXrXrX",
"rXrXrXrXrXrXrXrXrXrXrXrXrXrXrXrXrXrXrXrXrXrXrXrXrXrXrXrXrXrXrXrXrXrXrXrXrXrXrXrXrXrXrXrXrXrXrXrXrXrXrXrXrXrXrXrXrXrXrXrX",
"rXrXrXrXrXrXrXrXrXrXrXrXrXrXrXrXrXrXrXrXrXrXrXrXrXrXrXrXrXrXrXrXrXrXrXrXrXrXrXrXrXrXrXrXrXrXrXrXrXrXrXrXrXrXrXrXrXrXrXrX",
"rXrXrXrXrXrXrXrXrXrXrXrXrXrXrXrXrXrXrXrXrXrXrXrXrXrXrXrXrXrXrXrXrXrXrXrXrXrXrXrXrXrXrXrXrXrXrXrXrXrXrXrXrXrXrXrXrXrXrXrX",
"rXrXrXrXrXrXrXrXrXrXrXrXrXrXrXrXrXrXrXrXrXrXrXrXrXrXrXrXrXrXrXrXrXrXrXrXrXrXrXrXrXrXrXrXrXrXrXrXrXrXrXrXrXrXrXrXrXrXrXrX",
"rXrXrXrXrXrXrXrXrXrXrXrXrXrXrXrXrXrXrXrXrXrXrXrXrXrXrXrXrX:.rXrXrXrXrXrXrXrXrXrXrXrXrXrXrXrXrXrXrXrXrXrXrXrXrXrXrXrXrXrX",
"rXrXrXrXrXrXrXrXrXrXrXrXrXrXrXrXrXrXrXrXrXrXrXrXrXrXrXrX6.z 6.8.rXrXrXrXrXrXrXrXrXrXrXrXrXrXrXrXrXrXrXrXrXrXrXrXrXrXrXrX",
"rXrXrXrXrXrXrXrXrXrXrXrXrXrXrXrXrXrXrXrXrXrXrXrXrXrXrX3.x z l k k v Z rXrXrXrXrXrXrXrXrXrXrXrXrXrXrXrXrXrXrXrXrXrXrXrXrX",
"rXrXrXrXrXrXrXrXrXrXrXrXrXrXrXrXrXrXrXrXrXrXrXrXrXrX>.z g.8 b.z.j.C 6 rXrXrXrXrXrXrXrXrXrXrXrXrXrXrXrXrXrXrXrXrXrXrXrXrX",
"rXrXrXrXrXrXrXrXrXrXrXrXrXrXrXrXrXrXrXrXrXrXrXrXrX) V S.m.[ -.K.V O 6 rXrXrXrXrXrXrXrXrXrXrXrXrXrXrXrXrXrXrXrXrXrXrXrXrX",
"rXrXrXrXrXrXrXrXrXrXrXrXrXrXrXrXrXrXrXrXrXrXrXrXB ' j.D./ 5 / w c b.^ r rXrXrXrXrXrXrXrXrXrXrXrXrXrXrXrXrXrXrXrXrXrXrXrX",
"rXrXrXrXrXrXrXrXrXrXrXrXrXrXrXrXrXrXrXrXrXrXrX>.A z.k.M , |.I.` b b 5   t rXrXrXrXrXrXrXrXrXrXrXrXrXrXrXrXrXrXrXrXrXrXrX",
"rXrXrXrXrXrXrXrXrXrXrXrXrXrXrXrXrXrXrXrXrXrX3.z j.f.v.~ N c.Q.[ =     5 . rXrXrXrXrXrXrXrXrXrXrXrXrXrXrXrXrXrXrXrXrXrXrX",
"rXrXrXrXrXrXrXrXrXrXrXrXrXrXrXrXrXrXrXrXrX1.k x.g.; ` b.[ ' W 4 .   = X.4 rXrXrXrXrXrXrXrXrXrXrXrXrXrXrXrXrXrXrXrXrXrXrX",
"rXrXrXrXrXrXrXrXrXrXrXrXrXrXrXrXrXrXrXrXrX1.c A.S.{ [ n # O # n w : n.+.3 rXrXrXrXrXrXrXrXrXrXrXrXrXrXrXrXrXrXrXrXrXrXrX",
"rXrXrXrXrXrXrXrXrXrXrXrXrXrXrXrXrXrXrXrXrX9.c R.m.8 + 0 / / / 4 d L #.$.3 rXrXrXrXrXrXrXrXrXrXrXrXrXrXrXrXrXrXrXrXrXrXrX",
"rXrXrXrXrXrXrXrXrXrXrXrXrXrXrXrXrXrXrXrXrXrX0.; c Y Y q 4 0 0 F s.%X} q rXrXrXrXrXrXrXrXrXrXrXrXrXrXrXrXrXrXrXrXrXrXrXrX",
"rXrXrXrXrXrXrXrXrXrXrXrXrXrXrXrXrXrXrXrXrXrXrX,.X 4 w _ ,.o p OX@X~.} . rXrXrXrXrXrXrXrXrXrXrXrXrXrXrXrXrXrXrXrXrXrXrXrX",
"rXrXrXrXrXrXrXrXrXrXrXrXrXrXrXrXrXrXrXrXrXrXrXrX:.t t rXrX> p.<X1XG.^ r rXrXrXrXrXrXrXrXrXrXrXrXrXrXrXrXrXrXrXrXrXrXrXrX",
"rXrXrXrXrXrXrXrXrXrXrXrXrXrXrXrXrXrXrXrXrXrXrXrXrXrXrXrXrX<  X&X^.~ 7 rXrXrXrXrXrXrXrXrXrXrXrXrXrXrXrXrXrXrXrXrXrXrXrXrX",
"rXrXrXrXrXrXrXrXrXrXrXrXrXrXrXrXrXrXrXrXrXrXrXrXrXrXrXrXJ -X5X;X^.( 6 rXrXrXrXrXrXrXrXrXrXrXrXrXrXrXrXrXrXrXrXrXrXrXrXrX",
"rXrXrXrXrXrXrXrXrXrXrXrXrXrXrXrXrXrXrXrXrXrXrXrXrXrXrXrX* =X>X$X;.! 7 rXrXrXrXrXrXrXrXrXrXrXrXrXrXrXrXrXrXrXrXrXrXrXrXrX",
"rXrXrXrXrXrXrXrXrXrXrXrXrXrXrXrXrXrXrXrXrXrXrXrXrXrXrX7.i.;X&X4.*.Q 6 rXrXrXrXrXrXrXrXrXrXrXrXrXrXrXrXrXrXrXrXrXrXrXrXrX",
"rXrXrXrXrXrXrXrXrXrXrXrXrXrXrXrXrXrXrXrXrXrXrXrXrXrX:.G 7X2XXX| &.! 6 rXrXrXrXrXrXrXrXrXrXrXrXrXrXrXrXrXrXrXrXrXrXrXrXrX",
"rXrXrXrXrXrXrXrXrXrXrXrXrXrXrXrXrXrXrXrXrXrXrXrXu % X D ;X+X| m.J.~ 7 rXrXrXrXrXrXrXrXrXrXrXrXrXrXrXrXrXrXrXrXrXrXrXrXrX",
"rXrXrXrXrXrXrXrXrXrXrXrXrXrXrXrXrXrXrXrXrXrXrXj y.2 . G 7X2XM.J.Z.m.^ r rXrXrXrXrXrXrXrXrXrXrXrXrXrXrXrXrXrXrXrXrXrXrXrX",
"rXrXrXrXrXrXrXrXrXrXrXrXrXrXrXrXrXrXrXrXrXrX2.f f E 3 D >X+X;.&.T.T.O.. rXrXrXrXrXrXrXrXrXrXrXrXrXrXrXrXrXrXrXrXrXrXrXrX",
"rXrXrXrXrXrXrXrXrXrXrXrXrXrXrXrXrXrXrXrXrXq.@ g Z m.N p.>X,Xl.;.+.G.O.# ,.rXrXrXrXrXrXrXrXrXrXrXrXrXrXrXrXrXrXrXrXrXrXrX",
"rXrXrXrXrXrXrXrXrXrXrXrXrXrXrXrXrXrXrXrXrX8.  F {.D.$X;X6X4XXXM.+.O.Q + . o j rXrXrXrXrXrXrXrXrXrXrXrXrXrXrXrXrXrXrXrXrX",
"rXrXrXrXrXrXrXrXrXrXrXrXrXrXrXrXrXrXrXrXrXr.d OX2X+X*X=X=XoX4.m.K.( + X T 2.y.g rXrXrXrXrXrXrXrXrXrXrXrXrXrXrXrXrXrXrXrX",
"rXrXrXrXrXrXrXrXrXrXrXrXrXrXrXrXrXrXrXrXrXrXt.a *X&X>X7X6X3XXX5.&.( + Y G.Z i U t rXrXrXrXrXrXrXrXrXrXrXrXrXrXrXrXrXrXrX",
"rXrXrXrXrXrXrXrXrXrXrXrXrXrXrXrXrXrXrXrXrXrXrXd.J p  X:X,X;X&X#X5.X.R n.J.b @ U @ rXrXrXrXrXrXrXrXrXrXrXrXrXrXrXrXrXrXrX",
"rXrXrXrXrXrXrXrXrXrXrXrXrXrXrXrXrXrXrXrXrXrXrXrX%   i.>X>X>X&X#X5.$.%.G.&._ s j 9.rXrXrXrXrXrXrXrXrXrXrXrXrXrXrXrXrXrXrX",
"rXrXrXrXrXrXrXrXrXrXrXrXrXrXrXrXrXrXrXrXrXrXrXrX%   i.7X5X2XXX| %.%.$.$.#.K a.<.rXrXrXrXrXrXrXrXrXrXrXrXrXrXrXrXrXrXrXrX",
"rXrXrXrXrXrXrXrXrXrXrXrXrXrXrXrXrXrXrXrXrXrXrXwX&   H ;X=XoX .O.G.T.+.%.K D y rXrXrXrXrXrXrXrXrXrXrXrXrXrXrXrXrXrXrXrXrX",
"rXrXrXrXrXrXrXrXrXrXrXrXrXrXrXrXrXrXrXrXrXrXwXe R . H :X4XOX> ` E.C.U.+.r   y rXrXrXrXrXrXrXrXrXrXrXrXrXrXrXrXrXrXrXrXrX",
"rXrXrXrXrXrXrXrXrXrXrXrXrXrXrXrXrXrXrXrXrXrX8X+ X.R , u.:XOX* C (.`.E.+.! $ t rXrXrXrX1.q.1.rXrXrXrXrXrXrXrXrXrXrXrXrXrX",
"rXrXrXrXrXrXrXrXrXrXrXrXrXrXrXrXrXrXrXrXrXrX0.C F.&.4 s .XG 9 v.(.`.J.%.L.` P qXrXrX>.4 4 4 0.8XrXrXrXrXrXrXrXrXrXrXrXrX",
"rXrXrXrXrXrXrXrXrXrXrXrXrXrXrXrXrXrXrXrXrX>.C (.C.{ 1 D p.% { R.).B.[ o.U.T.W 6 rXqXE / / $.q   t rXrXrXrXrXrXrXrXrXrXrX",
"rXrXrXrXrXrXrXrXrXrXrXrXrXrXrXrXrXrXrXrXI q !.].m.=   D u.: n.].`.' 8 n.E.).v.9 rXrXr.  # [ *.0 t rXrXrXrXrXrXrXrXrXrXrX",
"rXrXrXrXrXrXrXrXrXrXrXrXrXrXrXrXrXrXrXrX6 S ].R.@.O   o > { !.'.A = ~ C.'._.B.^ r t &   O v.L.q X t rXrXrXrXrXrXrXrXrXrX",
"rXrXrXrXrXrXrXrXrXrXrXrXrXrXrXrXrXrXrXe.] S.W.@.4       $ !._.Y.b # O.F.W.'.`.K.T .   . T B.K.q   X rXrXrXrXrXrXrXrXrXrX",
"rXrXrXrXrXrXrXrXrXrXrXrXrXrXrXrXrXrXr.J C I.I.3       O A `.Y.W 1 4 $.*.F.W.]._.!.] v C G.K.L.Y   X rXrXrXrXrXrXrXrXrXrX",
"rXrXrXrXrXrXrXrXrXrXrXrXrXrXrXrXrX0X,.eX,.9X9Xy t X % W m.Q.{ e 6 4 R / X.F.R.].].(.E.C.H.@...4 X B rXrXrXrXrXrXrXrXrXrX",
"rXrXrXrXrXrXrXrXrXrXrXrXrXrXrXrXrXrXrXrXrXrXrXrXrXt ^.r.B rXt w.w.+ $ e -.=.P.W.(.W.J.=.=.=.e X I rXrXrXrXrXrXrXrXrXrXrX",
"rXrXrXrXrXrXrXrXrXrXrXrXrXrXrXrXrXrXrXrXrXrXrXrXrXrXrXrXrXrXrXrXrXrXrXrXrXrXrXrXrXrXrXrXrXrXrXrXrXrXrXrXrXrXrXrXrXrXrXrX",
"rXrXrXrXrXrXrXrXrXrXrXrXrXrXrXrXrXrXrXrXrXrXrXrXrXrXrXrXrXrXrXrXrXrXrXrXrXrXrXrXrXrXrXrXrXrXrXrXrXrXrXrXrXrXrXrXrXrXrXrX",
"rXrXrXrXrXrXrXrXrXrXrXrXrXrXrXrXrXrXrXrXrXrXrXrXrXrXrXrXrXrXrXrXrXrXrXrXrXrXrXrXrXrXrXrXrXrXrXrXrXrXrXrXrXrXrXrXrXrXrXrX",
"rXrXrXrXrXrXrXrXrXrXrXrXrXrXrXrXrXrXrXrXrXrXrXrXrXrXrXrXrXrXrXrXrXrXrXrXrXrXrXrXrXrXrXrXrXrXrXrXrXrXrXrXrXrXrXrXrXrXrXrX",
"rXrXrXrXrXrXrXrXrXrXrXrXrXrXrXrXrXrXrXrXrXrXrXrXrXrXrXrXrXrXrXrXrXrXrXrXrXrXrXrXrXrXrXrXrXrXrXrXrXrXrXrXrXrXrXrXrXrXrXrX",
"rXrXrXrXrXrXrXrXrXrXrXrXrXrXrXrXrXrXrXrXrXrXrXrXrXrXrXrXrXrXrXrXrXrXrXrXrXrXrXrXrXrXrXrXrXrXrXrXrXrXrXrXrXrXrXrXrXrXrXrX",
"rXrXrXrXrXrXrXrXrXrXrXrXrXrXrXrXrXrXrXrXrXrXrXrXrXrXrXrXrXrXrXrXrXrXrXrXrXrXrXrXrXrXrXrXrXrXrXrXrXrXrXrXrXrXrXrXrXrXrXrX",
"rXrXrXrXrXrXrXrXrXrXrXrXrXrXrXrXrXrXrXrXrXrXrXrXrXrXrXrXrXrXrXrXrXrXrXrXrXrXrXrXrXrXrXrXrXrXrXrXrXrXrXrXrXrXrXrXrXrXrXrX",
"rXrXrXrXrXrXrXrXrXrXrXrXrXrXrXrXrXrXrXrXrXrXrXrXrXrXrXrXrXrXrXrXrXrXrXrXrXrXrXrXrXrXrXrXrXrXrXrXrXrXrXrXrXrXrXrXrXrXrXrX",
"rXrXrXrXrXrXrXrXrXrXrXrXrXrXrXrXrXrXrXrXrXrXrXrXrXrXrXrXrXrXrXrXrXrXrXrXrXrXrXrXrXrXrXrXrXrXrXrXrXrXrXrXrXrXrXrXrXrXrXrX"
};
