/* XPM */
static char *result[] = {
/* columns rows colors chars-per-pixel */
"60 60 242 2 ",
"   c #010000",
".  c #0C0200",
"X  c #04060B",
"o  c #140101",
"O  c #1B0300",
"+  c #120B04",
"@  c #1C0F09",
"#  c #191309",
"$  c #010715",
"%  c #191918",
"&  c #0F1212",
"*  c #220300",
"=  c #280701",
"-  c #330B00",
";  c #3C0D00",
":  c #3B0102",
">  c #271705",
",  c #3D1402",
"<  c #361905",
"1  c #210E14",
"2  c #382708",
"3  c #392914",
"4  c #2F2F1A",
"5  c #020B27",
"6  c #081129",
"7  c #061639",
"8  c #16142A",
"9  c #341434",
"0  c #02203E",
"q  c #252728",
"w  c #3E3326",
"e  c #383736",
"r  c #392F21",
"t  c #450100",
"y  c #4A0000",
"u  c #530100",
"i  c #5B0200",
"p  c #451901",
"a  c #551D00",
"s  c #680301",
"d  c #780200",
"f  c #462406",
"g  c #503114",
"h  c #692900",
"j  c #772B00",
"k  c #6C320C",
"l  c #4B3929",
"z  c #672527",
"x  c #784114",
"c  c #554125",
"v  c #564735",
"b  c #784B29",
"n  c #6A4F2A",
"m  c #635608",
"M  c #091E48",
"N  c #0F2749",
"B  c #0C376E",
"V  c #051B68",
"C  c #5C5142",
"Z  c #565758",
"A  c #4D4E50",
"S  c #766955",
"D  c #5B646C",
"F  c #676869",
"G  c #737778",
"H  c #6B7474",
"J  c #615752",
"K  c #850501",
"L  c #990400",
"P  c #961400",
"I  c #A90300",
"U  c #BA0201",
"Y  c #B50500",
"T  c #852E00",
"R  c #863100",
"E  c #943A00",
"W  c #993A00",
"Q  c #973318",
"!  c #A23F00",
"~  c #B73F35",
"^  c #C90300",
"/  c #DB0100",
"(  c #D40000",
")  c #DA1500",
"_  c #CD1613",
"`  c #E40000",
"'  c #EC0000",
"]  c #EC0A00",
"[  c #F60000",
"{  c #FA0000",
"}  c #F70D04",
"|  c #FA1C00",
" . c #F41700",
".. c #CE2100",
"X. c #FB2300",
"o. c #FB2A00",
"O. c #F73900",
"+. c #E93A04",
"@. c #F8262A",
"#. c #C62724",
"$. c #9D4200",
"%. c #92561A",
"&. c #AC4C00",
"*. c #B44B00",
"=. c #BD5A00",
"-. c #B35100",
";. c #92572C",
":. c #AF5028",
">. c #886535",
",. c #956739",
"<. c #9D733C",
"1. c #A7773B",
"2. c #AE6B2F",
"3. c #B2671E",
"4. c #C25C00",
"5. c #C45600",
"6. c #D65B00",
"7. c #F95600",
"8. c #F54900",
"9. c #C46100",
"0. c #CA6400",
"q. c #CF6900",
"w. c #D46D00",
"e. c #DA7300",
"r. c #C4701D",
"t. c #FB6A01",
"y. c #FB6501",
"u. c #E77800",
"i. c #FD7B02",
"p. c #E7710C",
"a. c #92744F",
"s. c #A47A47",
"d. c #A55E5B",
"f. c #F35254",
"g. c #BB9F2F",
"h. c #EB8300",
"j. c #FB8704",
"k. c #EE9100",
"l. c #C48D3A",
"z. c #EE8A3C",
"x. c #C6A501",
"c. c #E5C402",
"v. c #F6D804",
"b. c #E8D608",
"n. c #FAEE0D",
"m. c #C3C03E",
"M. c #EADB3A",
"N. c #F8F83A",
"B. c #B38B51",
"V. c #AD997A",
"C. c #C29A58",
"Z. c #FB8642",
"A. c #C5A95A",
"S. c #CFA14E",
"D. c #C9A665",
"F. c #D1AE68",
"G. c #D8B977",
"H. c #CFB669",
"J. c #E6B972",
"K. c #D5C46A",
"L. c #EBCF75",
"P. c #F5EE63",
"I. c #0C2C87",
"U. c #18379A",
"Y. c #10328D",
"T. c #1039AC",
"R. c #01418A",
"E. c #1946BA",
"W. c #0C4EB3",
"Q. c #244BB0",
"!. c #7E7F80",
"~. c #5A7AB4",
"^. c #164AC9",
"/. c #1054C1",
"(. c #265BCC",
"). c #2757CB",
"_. c #285ED2",
"`. c #1263D1",
"'. c #2B62D3",
"]. c #2663D2",
"[. c #2F67CE",
"{. c #788AAF",
"}. c #048BE2",
"|. c #048FDF",
" X c #688ECA",
".X c #979898",
"XX c #8C8681",
"oX c #BAA688",
"OX c #9CA6A5",
"+X c #A8A7A6",
"@X c #BABABA",
"#X c #AEB4B7",
"$X c #CAB896",
"%X c #D4B78C",
"&X c #FAADB1",
"*X c #E7A69C",
"=X c #DAC69A",
"-X c #DFC182",
";X c #E7C78A",
":X c #F4CD8A",
">X c #F6D38A",
",X c #EBCC95",
"<X c #F3CF91",
"1X c #ECD19A",
"2X c #F9D494",
"3X c #F5D59B",
"4X c #F9DB9B",
"5X c #F5D595",
"6X c #E4D18E",
"7X c #F7E39C",
"8X c #F8E29D",
"9X c #F8E094",
"0X c #D9C5A2",
"qX c #D9D3AD",
"wX c #DAD5B9",
"eX c #ECD3A3",
"rX c #F9DCA4",
"tX c #F7D6A5",
"yX c #F4CDB3",
"uX c #F8E5A3",
"iX c #F7EAA2",
"pX c #F8E9A5",
"aX c #F7E6A0",
"sX c #85A1C9",
"dX c #BEC1C4",
"fX c #C7C8CA",
"gX c #DBD3C7",
"hX c #D4D4D4",
"jX c #DCDCDD",
"kX c #D7D7D8",
"lX c #D6D3D2",
"zX c #EFD5D1",
"xX c #D8E0DF",
"cX c #DEDFE1",
"vX c #DEE4E1",
"bX c #EBEBED",
"nX c #E4E5E6",
"mX c #F6E7E6",
"MX c #EFF0F1",
"NX c #F3F4F4",
"BX c #F7E0D9",
"VX c None",
/* pixels */
"VXVXVXVXVXVXVXVXVXVXVXVXVXVXVXVXVXVXVXVXVXVXVXVXVXVXVXVXVXVXVXVXVXVXVXVXVXVXVXVXVXVXVXVXVXVXVXVXVXVXVXVXVXVXVXVXVXVXVXVX",
"VXVXVXVXVXVXVXVXVXVXVXVXVXVXVXVXVXVXVXVXVXVXVXVXVXVXVXVXVXVXVXVXVXVXVXVXVXVXVXVXVXVXVXVXVXVXVXVXVXVXVXVXVXVXVXVXVXVXVXVX",
"VXVXVXVXVXVXVXVXVXVXVXVXVXVXVXVXVXVXVXVXVXVXVXVXVXVXVXVXVXVXVXVXVXVXVXVXVXVXVXVXVXVXVXVXVXVXVXVXVXVXVXVXVXVXVXVXVXVXVXVX",
"VXVXVXVXVXVXVXVXVXVXVXVXVXVXVXVXVXVXVXVXVXVXVXVXVXVXVXVXVXVX          . VXVXVXVXVXVXVXVXVXVXVXVXVXVXVXVXVXVXVXVXVXVXVXVX",
"VXVXVXVXVXVXVXVXVXVXVXVXVXVXVXVXVXVXVXVXVXVXVXVXVXVXVX        y { X.| I     VXVXVXVXVXVXVXVXVXVXVXVXVXVXVXVXVXVXVXVXVXVX",
"VXVXVXVXVXVXVXVXVXVXVXVXVXVXVXVXVXVXVXVXVXVXVXVXVXVX  . o P 7.i.t.y.y.y.i.O   VXVXVXVXVXVXVXVXVXVXVXVXVXVXVXVXVXVXVXVXVX",
"VXVXVXVXVXVXVXVXVXVXVXVXVXVXVXVXVXVXVXVXVXVXVXVX    y ] | 7.j.y.p.yXyXyXZ.u.i VXVXVXVXVXVXVXVXVXVXVXVXVXVXVXVXVXVXVXVXVX",
"VXVXVXVXVXVXVXVXVXVXVXVXVXVXVXVXVXVXVXVXVXVXVX  . s } X.| 7.i.p.yXBXNXmXgXj.+.VXVXVXVXVXVXVXVXVXVXVXVXVXVXVXVXVXVXVXVXVX",
"VXVXVXVXVXVXVXVXVXVXVXVXVXVXVXVXVXVXVXVXVXVX  . ' | X.X.| O.7.0XmX*X&X&XmX*Xj.s VXVXVXVXVXVXVXVXVXVXVXVXVXVXVXVXVXVXVXVX",
"VXVXVXVXVXVXVXVXVXVXVXVXVXVXVXVXVXVXVXVXVX  . / X.X.X.X.| o.Z.xXmX{ @.@.&XwXj.*   VXVXVXVXVXVXVXVXVXVXVXVXVXVXVXVXVXVXVX",
"VXVXVXVXVXVXVXVXVXVXVXVXVXVXVXVXVXVXVXVX    ( { o.X.X.|  .X.Z.xXmX{ f.f._ d.p           VXVXVXVXVXVXVXVXVXVXVXVXVXVXVXVX",
"VXVXVXVXVXVXVXVXVXVXVXVXVXVXVXVXVXVXVXVX  t { { X.X.X.| | o.+.+XzX#.d.:.Q t > t u : o o     VXVXVXVXVXVXVXVXVXVXVXVXVXVX",
"VXVXVXVXVXVXVXVXVXVXVXVXVXVXVXVXVXVXVXVXo [ { { } X.X.| X. .d 1 z s U ( ) O.8.7.i.j.y.O.K     VXVXVXVXVXVXVXVXVXVXVXVXVX",
"VXVXVXVXVXVXVXVXVXVXVXVXVXVXVXVXVXVXVX  s { { { { | X.) P * * L [ [ [ [ [ [ / ) 8.t.7.O.} u   VXVXVXVXVXVXVXVXVXVXVXVXVX",
"VXVXVXVXVXVXVXVXVXVXVXVXVXVXVXVXVXVXVX: ' { { { { { ... o / [ [ { [ [ { [ k #                 VXVXVXVXVXVXVXVXVXVXVXVXVX",
"VXVXVXVXVXVXVXVXVXVXVXVXVXVXVXVXVXVX  * ' { { { / s o U / U Y U U K _ :.n 3XpXD.            VXVXVXVXVXVXVXVXVXVXVXVXVXVX",
"VXVXVXVXVXVXVXVXVXVXVXVXVXVXVXVX  : ( ' { { { {   o I ^ U ^ K + + B.>X4XiX>.7X-X+   VXVXVXVXVXVXVXVXVXVXVXVXVXVXVXVXVXVX",
"VXVXVXVXVXVXVXVXVXVXVXVXVXVXVXVX/ { { { { [ [ t   . . . . ,.2XC.X 3 7X7X2X  + b # VXVXVXVXVXVXVXVXVXVXVXVXVXVXVXVXVXVXVX",
"VXVXVXVXVXVXVXVXVXVXVXVXVXVXVX  d ( [ { { { [   . g 6X5X5XrX7XA.  > 7X7X2X    b >       VXVXVXVXVXVXVXVXVXVXVXVXVXVXVXVX",
"VXVXVXVXVXVXVXVXVXVXVXVXVXVX    . p ;.:.g   . O , < ,XuXpXuXpXC.  . >X7X9XC.;X2X>X:X3X1Xs.+ VXVXVXVXVXVXVXVXVXVXVXVXVXVX",
"VXVXVXVXVXVXVXVXVXVXVXVXVXVX      H.eXeX6X%   < p O a.uXpXpXpXC.    :X7X7X5X7X7XiXiXaXrXeXB.VXVXVXVXVXVXVXVXVXVXVXVXVXVX",
"VXVXVXVXVXVXVXVXVXVXVXVXVXVX    K.tXtX,X,X<XB.. ; - , 1.2XpX4XJ.3 > 5X7X7X7X7X7X7X8X8XuXtXF.VXVXVXVXVXVXVXVXVXVXVXVXVXVX",
"VXVXVXVXVXVXVXVXVXVXVXVXVXVX. l tXpXuXG.>.;X4X>.< ; . 1.4X>X<.3 n F.7X7X7X7X7X7X7X8X8XuXrXH.. VXVXVXVXVXVXVXVXVXVXVXVXVX",
"VXVXVXVXVXVXVXVXVXVXVXVXVXVX  >.tXpXpX<Xc w iX5Xx *   J.4XS.@     B.5X8X7X7X7X8X7X7XuXuXrXH.. VXVXVXVXVXVXVXVXVXVXVXVXVX",
"VXVXVXVXVXVXVXVXVXVXVXVXVXVX  g 3XpXuXrXs.c iX8XD.3 3 L.L.r.< o     ,.C.<X4XuX4X8X8XaXuX3Xs.  VXVXVXVXVXVXVXVXVXVXVXVXVX",
"VXVXVXVXVXVXVXVXVXVXVXVXVXVXVX  6XpXpXtX-X,XuXaX<XF.<X8X>XS.> o - O . . b F.L.4XuXpXrX,Xs.+ VXVXVXVXVXVXVXVXVXVXVXVXVXVX",
"VXVXVXVXVXVXVXVXVXVXVXVXVXVXVXVXa.;X1XeXyXrX;X<XpXuX7X7X4XL.>   - - - < * . + D.1XeXG.#   VXVXVXVXVXVXVXVXVXVXVXVXVXVXVX",
"VXVXVXVXVXVXVXVXVXVXVXVXVXVXVXVX      X C w   l tXuXuXuXaX7XC.. = = - ; ; - - o         VXVXVXVXVXVXVXVXVXVXVXVXVXVXVXVX",
"VXVXVXVXVXVXVXVXVXVXVXVXVXVXVXVXVXVX          . s.<XrXuXuXpX>Xk . * O O - - ; ; -     VXVXVXVXVXVXVXVXVXVXVXVXVXVXVXVXVX",
"VXVXVXVXVXVXVXVXVXVXVXVXVXVXVXVXVXVXVXVXVX  * .   . l ;XrXpXpX6X1.%.      . . .     VXVXVXVXVXVXVXVXVXVXVXVXVXVXVXVXVXVX",
"VXVXVXVXVXVXVXVXVXVXVXVXVXVXVXVXVXVXVXVXVX    .       4 B.A.H.A.B.%.+             VXVXVXVXVXVXVXVXVXVXVXVXVXVXVXVXVXVXVX",
"VXVXVXVXVXVXVXVXVXVXVXVXVXVXVXVXVXVXVXVXVXVX. o / y O   5 6 : ` Y . 5 5   VXVXVXVXVXVXVXVXVXVXVXVXVXVXVXVXVXVXVXVXVXVXVX",
"VXVXVXVXVXVXVXVXVXVXVXVXVXVXVXVXVXVXVXVXVX  d { { L ( . 7 U.5 t [ ' : 8 E.  VXVXVXVXVXVXVXVXVXVXVXVXVXVXVXVXVXVXVXVXVXVX",
"VXVXVXVXVXVXVXVXVXVXVXVXVXVXVXVXVXVXVXVX  = { { { I ' .   I.Y.9 / [ ` u E.    VXVXVXVXVXVXVXVXVXVXVXVXVXVXVXVXVXVXVXVXVX",
"VXVXVXVXVXVXVXVXVXVXVXVXVXVXVXVXVXVXVX  s { { { { ' [ o $ Q.E.6   1 9 9 ].N V.e VXVXVXVXVXVXVXVXVXVXVXVXVXVXVXVXVXVXVXVX",
"VXVXVXVXVXVXVXVXVXVXVXVXVXVXVXVXVXVX  . L [ [ { ( I [ o N Q.sXqXm.OX5 Y.].6 K.M.VXVXVXVXVXVXVXVXVXVXVXVXVXVXVXVXVXVXVXVX",
"VXVXVXVXVXVXVXVXVXVXVXVXVXVXVXVXVX      . O y d i u ` o I. XwXP.N.P.4 0 [.q M.b.VXVXVXVXVXVXVXVXVXVXVXVXVXVXVXVXVXVXVXVX",
"VXVXVXVXVXVXVXVXVXVXVXVXVXVXVXVXD H D F !.H D 1 u u = 8 T.{.L.n.n.v.%.$ (.B g.c.2 VXVXVXVXVXVXVXVXVXVXVXVXVXVXVXVXVXVXVX",
"VXVXVXVXVXVXVXVXVXVXVXVXVXVXVXVXkXbXbXNXNXNXbX% . o $ T.^.D c.v.n.v.c 6 (.T.$ g n     VXVXVXVXVXVXVXVXVXVXVXVXVXVXVXVXVX",
"VXVXVXVXVXVXVXVXVXVXVXVXVXVXVXVXhXMXMXNXNXNXnX.   $ E.).^.~.G.v.c.x.0 U.(.].W.N hX@X  VXVXVXVXVXVXVXVXVXVXVXVXVXVXVXVXVX",
"VXVXVXVXVXVXVXVXVXVXVXVXVXVXVX  kXnXbXMXnXNXbX@X+XZ Y.E.Q.[.{.S g e T.).(.[./. XjXlX  VXVXVXVXVXVXVXVXVXVXVXVXVXVXVXVXVX",
"VXVXVXVXVXVXVXVXVXVXVXVXVXVX  F jXOXdXfX!.bXMXbXjX.X8 T.).).).E.T.E.).(.].`.0 hXhXq   VXVXVXVXVXVXVXVXVXVXVXVXVXVXVXVXVX",
"VXVXVXVXVXVXVXVXVXVXVXVXVXVX  .X!.& .XF X MXMXnXfX+XX I._._._._.(.(.(.(.[.B   kXOX  VXVXVXVXVXVXVXVXVXVXVXVXVXVXVXVXVXVX",
"VXVXVXVXVXVXVXVXVXVXVXVXVXVXX fXl X +XH X MXMXfXF Z X Y._._._.`.].'.[.`.].    F q   VXVXVXVXVXVXVXVXVXVXVXVXVXVXVXVXVXVX",
"VXVXVXVXVXVXVXVXVXVXVXVXVXVX  .XfXdXkXhX@XNXnXq X X V T.^.^.^.^.^.`.}.W.$ X   Z &     VXVXVXVXVXVXVXVXVXVXVXVXVXVXVXVXVX",
"VXVXVXVXVXVXVXVXVXVXVXVXVXVX  X kXcXcXjXjXjXhX.Xq X I.^.E./.`.}.|.R.  X h $.$.-.-.5.a . VXVXVXVXVXVXVXVXVXVXVXVXVXVXVXVX",
"VXVXVXVXVXVXVXVXVXVXVXVXVXVX    fXnXvXxXjXjXjXhXA X V B M $         p $.9.4.4.0.w.h.u.h   VXVXVXVXVXVXVXVXVXVXVXVXVXVXVX",
"VXVXVXVXVXVXVXVXVXVXVXVXVXVX    3 l F #XfXfXdXZ f <             + h k $.9.=.4.0.w.u.h.E   VXVXVXVXVXVXVXVXVXVXVXVXVXVXVX",
"VXVXVXVXVXVXVXVXVXVXVXVXVXVX    p a f g b b n p $.&.a   VXVX    $.w.=.*.4.=.4.4.q.e.h.!     VXVXVXVXVXVXVXVXVXVXVXVXVXVX",
"VXVXVXVXVXVXVXVXVXVXVXVXVXVXr v , j W R R T R W 9.w.h.  VXVX  . 6.u.e.q.9.4.4.0.w.u.q.O   VXVXVXVXVXVXVXVXVXVXVXVXVXVXVX",
"VXVXVXVXVXVXVXVXVXVXVXVXVXVXw $X=X,.f k &.5.4.0.q.e.k.  VXVX  . u.p.u.u.5.-.-.-.j h %.v     VXVXVXVXVXVXVXVXVXVXVXVXVXVX",
"VXVXVXVXVXVXVXVXVXVXVXVXVXVX  % qX=XS n k E $.4.e.u.E   VXVXVX  R W ! 5.r.2.3.3.g l ,X$X  VXVXVXVXVXVXVXVXVXVXVXVXVXVXVX",
"VXVXVXVXVXVXVXVXVXVXVXVXVXVXVXVXVXv wXgX;Xf * a -.h   VXVXVXVXX   = a s.,XgXwXwX$XoX$XS   VXVXVXVXVXVXVXVXVXVXVXVXVXVXVX",
"VXVXVXVXVXVXVXVXVXVXVXVXVXVXVXVXVXVX& 0XgXoXF g <     VXVXVXVXVX    oX$X$XqXqXwXV.    VXVXVXVXVXVXVXVXVXVXVXVXVXVXVXVXVX",
"VXVXVXVXVXVXVXVXVXVXVXVXVXVXVXVXVXVXVX  + $XzXwX%   VXVXVXVXVXVXVX  a.v         VXVXVXVXVXVXVXVXVXVXVXVXVXVXVXVXVXVXVXVX",
"VXVXVXVXVXVXVXVXVXVXVXVXVXVXVXVXVXVXVXVXVX      VXVXVXVXVXVXVXVXVXVXVXVXVXVXVXVXVXVXVXVXVXVXVXVXVXVXVXVXVXVXVXVXVXVXVXVX",
"VXVXVXVXVXVXVXVXVXVXVXVXVXVXVXVXVXVXVXVXVXVXVXVXVXVXVXVXVXVXVXVXVXVXVXVXVXVXVXVXVXVXVXVXVXVXVXVXVXVXVXVXVXVXVXVXVXVXVXVX",
"VXVXVXVXVXVXVXVXVXVXVXVXVXVXVXVXVXVXVXVXVXVXVXVXVXVXVXVXVXVXVXVXVXVXVXVXVXVXVXVXVXVXVXVXVXVXVXVXVXVXVXVXVXVXVXVXVXVXVXVX",
"VXVXVXVXVXVXVXVXVXVXVXVXVXVXVXVXVXVXVXVXVXVXVXVXVXVXVXVXVXVXVXVXVXVXVXVXVXVXVXVXVXVXVXVXVXVXVXVXVXVXVXVXVXVXVXVXVXVXVXVX",
"VXVXVXVXVXVXVXVXVXVXVXVXVXVXVXVXVXVXVXVXVXVXVXVXVXVXVXVXVXVXVXVXVXVXVXVXVXVXVXVXVXVXVXVXVXVXVXVXVXVXVXVXVXVXVXVXVXVXVXVX"
};
