/* XPM */
static char *result[] = {
/* columns rows colors chars-per-pixel */
"60 60 242 2 ",
"   c #010000",
".  c #0C0200",
"X  c #04060B",
"o  c #140101",
"O  c #1B0300",
"+  c #120B04",
"@  c #1C0F09",
"#  c #191309",
"$  c #010715",
"%  c #191918",
"&  c #0F1212",
"*  c #220300",
"=  c #280701",
"-  c #330B00",
";  c #3C0D00",
":  c #3B0102",
">  c #271705",
",  c #3D1402",
"<  c #361905",
"1  c #210E14",
"2  c #382708",
"3  c #392914",
"4  c #2F2F1A",
"5  c #020B27",
"6  c #081129",
"7  c #061639",
"8  c #16142A",
"9  c #341434",
"0  c #02203E",
"q  c #252728",
"w  c #3E3326",
"e  c #383736",
"r  c #392F21",
"t  c #450100",
"y  c #4A0000",
"u  c #530100",
"i  c #5B0200",
"p  c #451901",
"a  c #551D00",
"s  c #680301",
"d  c #780200",
"f  c #462406",
"g  c #503114",
"h  c #692900",
"j  c #772B00",
"k  c #6C320C",
"l  c #4B3929",
"z  c #672527",
"x  c #784114",
"c  c #554125",
"v  c #564735",
"b  c #784B29",
"n  c #6A4F2A",
"m  c #635608",
"M  c #091E48",
"N  c #0F2749",
"B  c #0C376E",
"V  c #051B68",
"C  c #5C5142",
"Z  c #565758",
"A  c #4D4E50",
"S  c #766955",
"D  c #5B646C",
"F  c #676869",
"G  c #737778",
"H  c #6B7474",
"J  c #615752",
"K  c #850501",
"L  c #990400",
"P  c #961400",
"I  c #A90300",
"U  c #BA0201",
"Y  c #B50500",
"T  c #852E00",
"R  c #863100",
"E  c #943A00",
"W  c #993A00",
"Q  c #973318",
"!  c #A23F00",
"~  c #B73F35",
"^  c #C90300",
"/  c #DB0100",
"(  c #D40000",
")  c #DA1500",
"_  c #CD1613",
"`  c #E40000",
"'  c #EC0000",
"]  c #EC0A00",
"[  c #F60000",
"{  c #FA0000",
"}  c #F70D04",
"|  c #FA1C00",
" . c #F41700",
".. c #CE2100",
"X. c #FB2300",
"o. c #FB2A00",
"O. c #F73900",
"+. c #E93A04",
"@. c #F8262A",
"#. c #C62724",
"$. c #9D4200",
"%. c #92561A",
"&. c #AC4C00",
"*. c #B44B00",
"=. c #BD5A00",
"-. c #B35100",
";. c #92572C",
":. c #AF5028",
">. c #886535",
",. c #956739",
"<. c #9D733C",
"1. c #A7773B",
"2. c #AE6B2F",
"3. c #B2671E",
"4. c #C25C00",
"5. c #C45600",
"6. c #D65B00",
"7. c #F95600",
"8. c #F54900",
"9. c #C46100",
"0. c #CA6400",
"q. c #CF6900",
"w. c #D46D00",
"e. c #DA7300",
"r. c #C4701D",
"t. c #FB6A01",
"y. c #FB6501",
"u. c #E77800",
"i. c #FD7B02",
"p. c #E7710C",
"a. c #92744F",
"s. c #A47A47",
"d. c #A55E5B",
"f. c #F35254",
"g. c #BB9F2F",
"h. c #EB8300",
"j. c #FB8704",
"k. c #EE9100",
"l. c #C48D3A",
"z. c #EE8A3C",
"x. c #C6A501",
"c. c #E5C402",
"v. c #F6D804",
"b. c #E8D608",
"n. c #FAEE0D",
"m. c #C3C03E",
"M. c #EADB3A",
"N. c #F8F83A",
"B. c #B38B51",
"V. c #AD997A",
"C. c #C29A58",
"Z. c #FB8642",
"A. c #C5A95A",
"S. c #CFA14E",
"D. c #C9A665",
"F. c #D1AE68",
"G. c #D8B977",
"H. c #CFB669",
"J. c #E6B972",
"K. c #D5C46A",
"L. c #EBCF75",
"P. c #F5EE63",
"I. c #0C2C87",
"U. c #18379A",
"Y. c #10328D",
"T. c #1039AC",
"R. c #01418A",
"E. c #1946BA",
"W. c #0C4EB3",
"Q. c #244BB0",
"!. c #7E7F80",
"~. c #5A7AB4",
"^. c #164AC9",
"/. c #1054C1",
"(. c #265BCC",
"). c #2757CB",
"_. c #285ED2",
"`. c #1263D1",
"'. c #2B62D3",
"]. c #2663D2",
"[. c #2F67CE",
"{. c #788AAF",
"}. c #048BE2",
"|. c #048FDF",
" X c #688ECA",
".X c #979898",
"XX c #8C8681",
"oX c #BAA688",
"OX c #9CA6A5",
"+X c #A8A7A6",
"@X c #BABABA",
"#X c #AEB4B7",
"$X c #CAB896",
"%X c #D4B78C",
"&X c #FAADB1",
"*X c #E7A69C",
"=X c #DAC69A",
"-X c #DFC182",
";X c #E7C78A",
":X c #F4CD8A",
">X c #F6D38A",
",X c #EBCC95",
"<X c #F3CF91",
"1X c #ECD19A",
"2X c #F9D494",
"3X c #F5D59B",
"4X c #F9DB9B",
"5X c #F5D595",
"6X c #E4D18E",
"7X c #F7E39C",
"8X c #F8E29D",
"9X c #F8E094",
"0X c #D9C5A2",
"qX c #D9D3AD",
"wX c #DAD5B9",
"eX c #ECD3A3",
"rX c #F9DCA4",
"tX c #F7D6A5",
"yX c #F4CDB3",
"uX c #F8E5A3",
"iX c #F7EAA2",
"pX c #F8E9A5",
"aX c #F7E6A0",
"sX c #85A1C9",
"dX c #BEC1C4",
"fX c #C7C8CA",
"gX c #DBD3C7",
"hX c #D4D4D4",
"jX c #DCDCDD",
"kX c #D7D7D8",
"lX c #D6D3D2",
"zX c #EFD5D1",
"xX c #D8E0DF",
"cX c #DEDFE1",
"vX c #DEE4E1",
"bX c #EBEBED",
"nX c #E4E5E6",
"mX c #F6E7E6",
"MX c #EFF0F1",
"NX c #F3F4F4",
"BX c #F7E0D9",
"VX c None",
/* pixels */
"VXVXVXVXVXVXVXVXVXVXVXVXVXVXVXVXVXVXVXVXVXVXVXVXVXVXVXVXVXVXVXVXVXVXVXVXVXVXVXVXVXVXVXVXVXVXVXVXVXVXVXVXVXVXVXVXVXVXVXVX",
"VXVXVXVXVXVXVXVXVXVXVXVXVXVXVXVXVXVXVXVXVXVXVXVXVXVXVXVXVXVXVXVXVXVXVXVXVXVXVXVXVXVXVXVXVXVXVXVXVXVXVXVXVXVXVXVXVXVXVXVX",
"VXVXVXVXVXVXVXVXVXVXVXVXVXVXVXVXVXVXVXVXVXVXVXVXVXVXVXVXVXVXVXVXVXVXVXVXVXVXVXVXVXVXVXVXVXVXVXVXVXVXVXVXVXVXVXVXVXVXVXVX",
"VXVXVXVXVXVXVXVXVXVXVXVXVXVXVXVXVXVXVXVXVXVXVXVX            VXVXVXVXVXVXVXVXVXVXVXVXVXVXVXVXVXVXVXVXVXVXVXVXVXVXVXVXVXVX",
"VXVXVXVXVXVXVXVXVXVXVXVXVXVXVXVXVXVXVXVXVXVX    I | X.[ y         VXVXVXVXVXVXVXVXVXVXVXVXVXVXVXVXVXVXVXVXVXVXVXVXVXVXVX",
"VXVXVXVXVXVXVXVXVXVXVXVXVXVXVXVXVXVXVXVXVX  O i.y.y.y.t.i.7.P o     VXVXVXVXVXVXVXVXVXVXVXVXVXVXVXVXVXVXVXVXVXVXVXVXVXVX",
"VXVXVXVXVXVXVXVXVXVXVXVXVXVXVXVXVXVXVXVXVXi t.z.yXyXyXp.y.j.7.| ] t     VXVXVXVXVXVXVXVXVXVXVXVXVXVXVXVXVXVXVXVXVXVXVXVX",
"VXVXVXVXVXVXVXVXVXVXVXVXVXVXVXVXVXVXVXVXVX+.j.gXmXNXBXyXp.t.7.| X. .s .   VXVXVXVXVXVXVXVXVXVXVXVXVXVXVXVXVXVXVXVXVXVXVX",
"VXVXVXVXVXVXVXVXVXVXVXVXVXVXVXVXVXVXVXVXs i.*XBX&XzX*XBX*Xt.8.X.X.X.| ' .   VXVXVXVXVXVXVXVXVXVXVXVXVXVXVXVXVXVXVXVXVXVX",
"VXVXVXVXVXVXVXVXVXVXVXVXVXVXVXVXVXVXVX  * j.gX&X@.@.{ mXcXf.o. .X.X.X.X./ .   VXVXVXVXVXVXVXVXVXVXVXVXVXVXVXVXVXVXVXVXVX",
"VXVXVXVXVXVXVXVXVXVXVXVXVXVXVXVX          p a.#.f.f.{ mXxXZ.o. .| X.o.o.{ (     VXVXVXVXVXVXVXVXVXVXVXVXVXVXVXVXVXVXVXVX",
"VXVXVXVXVXVXVXVXVXVXVXVXVXVX    o O ; u y - , Q :.d.#.zX+X+.o.| | X.X.| { { t   VXVXVXVXVXVXVXVXVXVXVXVXVXVXVXVXVXVXVXVX",
"VXVXVXVXVXVXVXVXVXVXVXVXVX    K O.t.j.i.7.8.o.) ^ U s z > d  .| | X.X.} { { [ o VXVXVXVXVXVXVXVXVXVXVXVXVXVXVXVXVXVXVXVX",
"VXVXVXVXVXVXVXVXVXVXVXVXVX  u } O.7.y.8.) ( { [ { [ [ [ L O = P ) X.| { { { { s   VXVXVXVXVXVXVXVXVXVXVXVXVXVXVXVXVXVXVX",
"VXVXVXVXVXVXVXVXVXVXVXVXVX              X + T { [ [ { { [ [ / o . ..{ [ { { { ' : VXVXVXVXVXVXVXVXVXVXVXVXVXVXVXVXVXVXVX",
"VXVXVXVXVXVXVXVXVXVXVXVXVXVX            D.pXtXc :._ K U U Y U / Y o s ` { { { ' *   VXVXVXVXVXVXVXVXVXVXVXVXVXVXVXVXVXVX",
"VXVXVXVXVXVXVXVXVXVXVXVXVXVXVXVXVXVX  + -X4X>.aX4X:XB.O O K ^ ^ ^ I o   [ { { { [ ( :   VXVXVXVXVXVXVXVXVXVXVXVXVXVXVXVX",
"VXVXVXVXVXVXVXVXVXVXVXVXVXVXVXVXVXVXVX+ >..   5X7X7X3   C.2X,.+ . .     t [ { { { { { / VXVXVXVXVXVXVXVXVXVXVXVXVXVXVXVX",
"VXVXVXVXVXVXVXVXVXVXVXVXVXVXVXVX      > n     2X7XaX>   A.aX4X5X3X6Xg     { { { { { ( K   VXVXVXVXVXVXVXVXVXVXVXVXVXVXVX",
"VXVXVXVXVXVXVXVXVXVXVXVXVXVXo s.1X3X<X>X>X;XC.8XaX:XX   C.pXpXaXaX<X2 t O     g :.;.,       VXVXVXVXVXVXVXVXVXVXVXVXVXVX",
"VXVXVXVXVXVXVXVXVXVXVXVXVXVXB.tXrXaX7X7X7X7X9X7X7X:X    C.iXuXpXrX,.+ p , X # 6XeXeXH.X     VXVXVXVXVXVXVXVXVXVXVXVXVXVX",
"VXVXVXVXVXVXVXVXVXVXVXVXVXVXF.rXuX7X7X7X7X7X7X7X7X4X# f G.8XpX2X<., - ,   B.5X1X,XrXtXK.    VXVXVXVXVXVXVXVXVXVXVXVXVXVX",
"VXVXVXVXVXVXVXVXVXVXVXVXVX  H.3XuXuX7X4X7X7X7X7X7X7XF.n 2 <.2X4XB.  , < >.4X;X>.G.uXpX3Xg   VXVXVXVXVXVXVXVXVXVXVXVXVXVX",
"VXVXVXVXVXVXVXVXVXVXVXVXVX  H.rXuXuX7X7X7X7X7X7X7X5XB.    > S.9XJ.  O x 4X7Xr l ,XaXpXrX>.X VXVXVXVXVXVXVXVXVXVXVXVXVXVX",
"VXVXVXVXVXVXVXVXVXVXVXVXVX  1.tXuXuX8X7XrXuX7X:XC.>..   . < l.L.:X< 3 D.4XiXc B.rXuXuX3Xg   VXVXVXVXVXVXVXVXVXVXVXVXVXVX",
"VXVXVXVXVXVXVXVXVXVXVXVXVXVX+ s.1XrXuXuX3XL.F.b . . O - + > l.>X4X5XH.<X7XuX<X%XtXuXuX6X  VXVXVXVXVXVXVXVXVXVXVXVXVXVXVX",
"VXVXVXVXVXVXVXVXVXVXVXVXVXVXVX  @ G.eX1XD.. . * - - - -   > J.9XrX7XpXuX2X;XtXyXeX1X6Xa.VXVXVXVXVXVXVXVXVXVXVXVXVXVXVXVX",
"VXVXVXVXVXVXVXVXVXVXVXVXVXVXVXVX        O - ; ; ; - = = . S.8XuXuXuXaXrXl   w C         VXVXVXVXVXVXVXVXVXVXVXVXVXVXVXVX",
"VXVXVXVXVXVXVXVXVXVXVXVXVXVXVXVXVX    - t , ; - O O *   k >XiXiX7XrX<Xs.            VXVXVXVXVXVXVXVXVXVXVXVXVXVXVXVXVXVX",
"VXVXVXVXVXVXVXVXVXVXVXVXVXVXVXVXVXVX    .           %.1.>XiXpXrX;Xl     . *   VXVXVXVXVXVXVXVXVXVXVXVXVXVXVXVXVXVXVXVXVX",
"VXVXVXVXVXVXVXVXVXVXVXVXVXVXVXVXVXVXVX            + %.S.A.A.A.B.3             VXVXVXVXVXVXVXVXVXVXVXVXVXVXVXVXVXVXVXVXVX",
"VXVXVXVXVXVXVXVXVXVXVXVXVXVXVXVXVXVXVXVXVXVXVX  5 5 X Y ` : 5 7 X * y / O . VXVXVXVXVXVXVXVXVXVXVXVXVXVXVXVXVXVXVXVXVXVX",
"VXVXVXVXVXVXVXVXVXVXVXVXVXVXVXVXVXVXVXVXVXVX  E.8 : ` { t 5 U.7   ( L { { d   VXVXVXVXVXVXVXVXVXVXVXVXVXVXVXVXVXVXVXVXVX",
"VXVXVXVXVXVXVXVXVXVXVXVXVXVXVXVXVXVXVXVXVX    E.u ` { ` 9 Y.Y.X o ` I { { { =   VXVXVXVXVXVXVXVXVXVXVXVXVXVXVXVXVXVXVXVX",
"VXVXVXVXVXVXVXVXVXVXVXVXVXVXVXVXVXVXVXVXe V.M (.q 9 1   5 ^.U.$ o [ ' { { { [ s   VXVXVXVXVXVXVXVXVXVXVXVXVXVXVXVXVXVXVX",
"VXVXVXVXVXVXVXVXVXVXVXVXVXVXVXVXVXVXVXVXM.L.6 ].Y.6 OXS.wXsXQ.M o [ I ( [ [ [ L .   VXVXVXVXVXVXVXVXVXVXVXVXVXVXVXVXVXVX",
"VXVXVXVXVXVXVXVXVXVXVXVXVXVXVXVXVXVXVXVXb.M.q ].M 4 P.N.P.wX XI.o ` u s d y O .       VXVXVXVXVXVXVXVXVXVXVXVXVXVXVXVXVX",
"VXVXVXVXVXVXVXVXVXVXVXVXVXVXVXVXVXVXVXf c.g.B (.& m n.n.n.P.{.T.7 = u u # D F {.F D H F VXVXVXVXVXVXVXVXVXVXVXVXVXVXVXVX",
"VXVXVXVXVXVXVXVXVXVXVXVXVXVXVXVXVX  X n 2 $ T.).6 m v.v.v.c.D ^.T.$ O . % bXNXNXNXbXnXkXVXVXVXVXVXVXVXVXVXVXVXVXVXVXVXVX",
"VXVXVXVXVXVXVXVXVXVXVXVXVXVXVXVXVX  @XkXN /.].(.U.N x.c.v.K.~.^.).Q.$ X X nXNXNXNXNXNXhXVXVXVXVXVXVXVXVXVXVXVXVXVXVXVXVX",
"VXVXVXVXVXVXVXVXVXVXVXVXVXVXVXVXVX  hXjX XW.[.'.).T.e g S {.[.^.E.Y.Z OXdXbXNXMXbXbXbXhX  VXVXVXVXVXVXVXVXVXVXVXVXVXVXVX",
"VXVXVXVXVXVXVXVXVXVXVXVXVXVXVXVXVX  q hXhXN /.].).).E.T.E.).)._.T.7 .XcXbXMXbXa.fXfXOXcXF   VXVXVXVXVXVXVXVXVXVXVXVXVXVX",
"VXVXVXVXVXVXVXVXVXVXVXVXVXVXVXVXVXVX  .XhX  B ].(.(.'.(.)._._._.I.. #XfXnXNXbXX H .X& !..X  VXVXVXVXVXVXVXVXVXVXVXVXVXVX",
"VXVXVXVXVXVXVXVXVXVXVXVXVXVXVXVXVXVX  q F   X ].].[.'.(.(.[.].^.U.  Z D dXbXMXX F +X. e fXX VXVXVXVXVXVXVXVXVXVXVXVXVXVX",
"VXVXVXVXVXVXVXVXVXVXVXVXVXVXVXVXVX    & Z X X $ W.}.`.^.^.^.^.^.T.V X X q cXMX#XhXjXdXfX.X  VXVXVXVXVXVXVXVXVXVXVXVXVXVX",
"VXVXVXVXVXVXVXVXVXVXVXVXVXVXVXVX  a 5.-.&.$.$.h   X R.|.|.`.W.^.E.Y.X q .XhXcXcXjXcXcXhXX   VXVXVXVXVXVXVXVXVXVXVXVXVXVX",
"VXVXVXVXVXVXVXVXVXVXVXVXVXVXVX  h u.h.w.0.9.9.9.$.f       X $ M B N X A hXcXcXcXjXcXbXfX    VXVXVXVXVXVXVXVXVXVXVXVXVXVX",
"VXVXVXVXVXVXVXVXVXVXVXVXVXVXVX  E h.h.q.9.9.9.9.$.j a .           X < f Z dXfXfX#XF l <     VXVXVXVXVXVXVXVXVXVXVXVXVXVX",
"VXVXVXVXVXVXVXVXVXVXVXVXVXVX    W h.e.q.9.=.=.=.-.=.w.!     VXVX  a *.E p n b b g f a ,     VXVXVXVXVXVXVXVXVXVXVXVXVXVX",
"VXVXVXVXVXVXVXVXVXVXVXVXVXVXVX  O q.h.w.0.9.9.9.q.u.u.6.    VXVX  h.w.4.$.R j T E E j p v r VXVXVXVXVXVXVXVXVXVXVXVXVXVX",
"VXVXVXVXVXVXVXVXVXVXVXVXVXVX    v :.h R -.-.-.4.e.u.p.u..   VXVX  k.e.q.4.=.5.&.k f >.eX$Xl VXVXVXVXVXVXVXVXVXVXVXVXVXVX",
"VXVXVXVXVXVXVXVXVXVXVXVXVXVXVX  $X0Xw g 3.3.2.r.5.! W R   VXVXVX  E u.e.5.&.W k n S 0XqX%   VXVXVXVXVXVXVXVXVXVXVXVXVXVX",
"VXVXVXVXVXVXVXVXVXVXVXVXVXVXVX  S $XoX$XwXwXgX;X,.k O     VXVXVXVX  h -.a @ f %XlXwXv VXVXVXVXVXVXVXVXVXVXVXVXVXVXVXVXVX",
"VXVXVXVXVXVXVXVXVXVXVXVXVXVXVXVXVX    V.wXwXqX$X$XoX    VXVXVXVXVX    < g S oXgX0X# VXVXVXVXVXVXVXVXVXVXVXVXVXVXVXVXVXVX",
"VXVXVXVXVXVXVXVXVXVXVXVXVXVXVXVXVXVXVXVX        v a.  VXVXVXVXVXVXVX  % gXgX$X+   VXVXVXVXVXVXVXVXVXVXVXVXVXVXVXVXVXVXVX",
"VXVXVXVXVXVXVXVXVXVXVXVXVXVXVXVXVXVXVXVXVXVXVXVXVXVXVXVXVXVXVXVXVXVXVXVX      VXVXVXVXVXVXVXVXVXVXVXVXVXVXVXVXVXVXVXVXVX",
"VXVXVXVXVXVXVXVXVXVXVXVXVXVXVXVXVXVXVXVXVXVXVXVXVXVXVXVXVXVXVXVXVXVXVXVXVXVXVXVXVXVXVXVXVXVXVXVXVXVXVXVXVXVXVXVXVXVXVXVX",
"VXVXVXVXVXVXVXVXVXVXVXVXVXVXVXVXVXVXVXVXVXVXVXVXVXVXVXVXVXVXVXVXVXVXVXVXVXVXVXVXVXVXVXVXVXVXVXVXVXVXVXVXVXVXVXVXVXVXVXVX",
"VXVXVXVXVXVXVXVXVXVXVXVXVXVXVXVXVXVXVXVXVXVXVXVXVXVXVXVXVXVXVXVXVXVXVXVXVXVXVXVXVXVXVXVXVXVXVXVXVXVXVXVXVXVXVXVXVXVXVXVX",
"VXVXVXVXVXVXVXVXVXVXVXVXVXVXVXVXVXVXVXVXVXVXVXVXVXVXVXVXVXVXVXVXVXVXVXVXVXVXVXVXVXVXVXVXVXVXVXVXVXVXVXVXVXVXVXVXVXVXVXVX"
};
