/* XPM */
static char *result[] = {
/* columns rows colors chars-per-pixel */
"60 60 16 1 ",
"  c black",
". c #010000",
"X c #000100",
"o c #010100",
"O c #000001",
"+ c #010001",
"@ c #000101",
"# c #010101",
"$ c #D26A20",
"% c #D36A20",
"& c #D26B20",
"* c #D36B20",
"= c #D26A21",
"- c #D36A21",
"; c #D26B21",
": c #D36B21",
/* pixels */
";;&:=;;;&;;;:=&;=;:;&;=&;;;;###;;:=&;;&:;&:;&:=&;;&:;;;;;;;#",
":;&:;;:;&;;&;;;;;;:;;:=&;;;;###;;;=;:=;;=;;=;;=&:=&;;&:;&:;o",
":;&;;&;;&;=;;;&;=&;=;;;;:=&;+##;;;;&;=&:;&;=;:=&;;;:=&;;&:;#",
"*$;&::::&&&;*$&&=;;=;&$;*$;&X .=;:;;:;-:;;;**&%---%&%:*%%$*X",
"&&;&::;-;*$&&$&*;;;=;&&;*$;*   &=%$-=:-;=&:*:&%--:%&*:*%-%*@",
"&$&&::;:;&&;&&;*;&;;&&&&&&;&   $$$&%---;;;;**&*%---**:**-$%X",
"*$&&-:;-&&&&*$;&=;:;;&$;&$&*XO.&$%$-=-%:;&;%:&%-=-%****%%$%@",
"*$;&;;:=*&%*%%-$=$==%%*%$$$%XXX&;*&;;;;%%-%&$$$**%*=;$-;;:=.",
"&$;&;;;;***:%%-$=$-=%%*%%$=$X@X&;*$;:=;$*-$$$%$*&*:=;==;;;=.",
"*&&*=&:=*&%*%*-$=$=;-$%%$$$$X@X$;&&&;;;%*-$&=$$*&*:=;$=;&:=.",
"&&;&=&:;*&%*$*-$==-;-$%-%&$%X@o&&&&&;=;$%-$$=$$:&*:-;=-=&;=.",
" XO .oo..+++XX@X  . @o X XO.oooO@#@ .X oooX+#@# .X    .  .X.",
".XO .oX.+O++X XX   XXXXX.XO.ooo@@@OO   oo#o+###O  O X  XO.X+",
" X  o#o.+++.oXXXX .X@o @.XO o#X@@#@ . Oo.#o+#@#   O X . O  .",
"%$$%:-=:&*&;  O ;=-=;:;;&&;&;$=&=$&*:::**:*-%--XXXX:=&;$$$&&",
"$&$$--=-;*$&.XO ===;&:=&&&;*;$=&$%&::-**%:*-%-:XXXX;;;:$$$$;",
"%$=%:%-:;*&;    ;===;:=;*$&*;=-$$%$:;-**%**:%=:@o @:;;;&$$$;",
"%&=$:-=:&*$;.XO.=$==&:=&&&;&;==$=%&:;-:*%:&:-=-@oX@:=&:$=$&&",
"$%-%=;;;&*$;+O O;$-;=%&=:;;:$=$:---:**:%$=%&&&$OO@ $*-$&=$&%",
"%*%$=&;=&*&;O@ +=$-;=$&$;;;;&$$---::***%$=%$;*$ O@O$%%$$$$$-",
"$%%$;;;=&&&&+O O;==;=$$$;;&:$$$:%--:&%*%$$%$&*$ O@ %*%$&$%&%",
"$*%%=&;;;*&;O@ O;=-==%&$;;&:$$$---::**:%&=%$&*$OOO $%-$$=$&%",
"&&&&:*;:;;=&+@OO*-$%%%%%-;==$=$$;*$&*&&%&$%$&*&++#.-:%-$$$$-",
"&$&&-:;:&:;&+O +*%$%-%*%-===$$%&;*&&*$&%$=%&;*&+O++---=$=%&%",
"&$;*:*;-;;=;+OO+*-$*%%%%-;$-$$$&;&&&*$;%$$$&;*&.O#+=-%=$=$$-",
"*$;*-*;-;;;;O@ +%%$%-%*-=;==&$$&;*&;&$&$$$%$;*&++++---=$=%$-",
"+@ ++.++O   oXXo+++#oo.o+@ ++##XXoXO X O@ OooX.o@##@@X##++# ",
"O@ O+.O+O X o Xo#++##oo#O@OO##@ Xo O. OO@O+o#o.o#+o@OX@+++#O",
"+@OO#++# .X X @o++O+#Xo#OOO+#o#XXoX   O+@ +.#Xo#@+##OX#+.O# ",
"+OO+#++#O  OX @o++++#o.oOO +##@XXo O  O+@O+ooo.#@#o@@@##.+#O",
"=-%=&=$&$$&=&%:*:%=-&&$;**:*  .;&:=$$&=$$$%$;*$=%$=-:%-&&*$O",
"=:-=$$$&=$&=***&--=-;*&&&*:*XO =;;;$$&$$&$$$&&$$%$$--%=$&*$O",
"-:%-$$$$=%&=&%**:-=:;*&;*%:&XO.=;;;=$&$$$$$$;&$$%&=----$;*&O",
"-:%=$=$&=$&$**:&-%=-;&$;*%:&  .;&:=$$&=%$=$$&&&=$$$=-%=$&&$ ",
"$$=%&;&$$-==&&;*&;&&==;$&%:&X .*-$%%=--%$$$*%$*&*$&:=;:-%-:#",
"%$$%$;*$$-;=&&&&$&*&$=;=**:*X  %-%%--:%%&$%*-$%;*&&;;;::%=-#",
"%$$$&&&$=-;$&$;&&&*$==;$****XO *-%%%-:%%&$%*%$%&&$;:=&:--=-o",
"$$=$&&&&=-;=&$;&&;*&$-=$&%:&X  %-$%-=:-%$$%%-$%;&&;:;&;:---#",
"&***=&:;;*&;%%-%$=%$=$&=%%-%X@X%***=$$$;-*;&&&&====$$$%%*&*#",
"**:*;;:=&*&&%%-$$=%&=$&$$%-$X@X%:&*$%$$;-:;$&*$$=;=%&$%%***o",
"&*:*;&:;;&&&%*-$&$$&=$&$%*-$ @o***%$%&$;:::$;&&=-;=$$$$%:**#",
"&%*&;&;;;*$&$%%$&=$&$$$=%*%% @o*:**$$&=;:::&&&&=-=$%$$%%*&%#",
"o @o @o o###X.#o O.XO  OX.oo#.+O@#O +O  X  @@#@X#O@@OX@O +O+",
"oXXoXXXX##+#X.#XXO.  .XOXo#o+.OO@#@ OOO X .@@@@X@@@@@@@O O@.",
"XXXXXXo ##+oo.#o O XO.  X.oX#+OO@@O +OO  O OX#OX#OX@O@#OOO@.",
"*%:*%*&*$$$$@#o#*:&**&*:%*%$&&*;;;=;&$;%&=%-:::#@+#&$&*====$",
"***&*:&%$$$$@#o#*:&****:$*%$$&*=;;;&&&&$$=%:*;-o@#o&$;&=$=;$",
"&%:&*:*%=%$$##o@%:&%****$*%%$&&;;:=&*&;$$=$:*:-##+o&$;*;=-==",
"*%:&%**%$$$$#+##***%****$%%$&&&;&;=;&$;%$=%-:;-o@##*$;&===;$",
":=&;-:;-;&$&.o+.$;*&***:::*;:*:-::-=-;$-;=-;==;@XXX&$;&%*&*-",
";=&;:*;:&&&; o. &&&$****:-*:-*:-*::=-;===$=;=-=XoXX&&&&%***%",
":=;::*:-;*&&..+ &&*&:*%*;:::::;:*::$-=$=;$-=$==XX X&&;****%%",
";;&::*;-&&$& ...$&*&***:;:*::*::*;-=-=$=;======@XXX*&;&%*&*-",
";-:;%%%%;*&&O+.+*:*%&&&;;;&:::;*-$%%$%%;=;:::;-+O++%%%$*:&%*",
";:*;%-%%;*&&O+.+%**%&*&;;;;:-::*%$*-$*-;=;;-:::.O#.$%%%**&%*",
"::*:%%%%;&&&++.+%**%;&$&:=&;-::*%%*-%%%;=&:-*:-+O+.$%-%%**%:",
";-:;%-$*&&$&####**&%;*&;;;;;-::%-$*-$*%;=;::*;-.+##%*-$*:&**",
";;&;;;:;;;;&#+o#;&;=;:=;;=;;;;;;;:;&;;;:;&:;&;;####;;;;;;:=&",
":;;;;&;;&:;;###@;;;;;;;;;;;;=;:;;;=&:;;;=&;;;:;o###;;;;;;:=&",
";;;;=;:;&;=;####;;;;&:;&;=;;;;;;;;;;;=;;;;:;;:=####;;;;;;;;;"
};
